<svg xmlns="http://www.w3.org/2000/svg" xmlns:xlink="http://www.w3.org/1999/xlink" width="500" zoomAndPan="magnify" viewBox="0 0 375 374.999991" height="500" preserveAspectRatio="xMidYMid meet" version="1.0"><defs><clipPath id="711b2f4674"><path d="M 7.527344 37.5 L 375 37.5 L 375 266.425781 L 7.527344 266.425781 Z M 7.527344 37.5 " clip-rule="nonzero"/></clipPath><clipPath id="3525e2d93f"><path d="M 15.707031 230.515625 C 25.480469 265.773438 17.953125 358.6875 115.601562 355.390625 C 185.949219 353.023438 170.941406 355.542969 278.34375 350.605469 C 323.671875 348.527344 352.292969 338.746094 363.238281 272.183594 C 375.007812 200.605469 385.308594 154.3125 355.707031 98.558594 C 333.453125 56.644531 288.277344 30.476562 222.40625 39.136719 C 48.773438 61.957031 -16.839844 113.175781 15.707031 230.515625 Z M 15.707031 230.515625 " clip-rule="nonzero"/></clipPath><clipPath id="2be505f28b"><path d="M 7.527344 266.25 L 375 266.25 L 375 355.585938 L 7.527344 355.585938 Z M 7.527344 266.25 " clip-rule="nonzero"/></clipPath><clipPath id="372045b56e"><path d="M 15.707031 230.515625 C 25.480469 265.773438 17.953125 358.6875 115.601562 355.390625 C 185.949219 353.023438 170.941406 355.542969 278.34375 350.605469 C 323.671875 348.527344 352.292969 338.746094 363.238281 272.183594 C 375.007812 200.605469 385.308594 154.3125 355.707031 98.558594 C 333.453125 56.644531 288.277344 30.476562 222.40625 39.136719 C 48.773438 61.957031 -16.839844 113.175781 15.707031 230.515625 Z M 15.707031 230.515625 " clip-rule="nonzero"/></clipPath><clipPath id="cff2ea9eaf"><path d="M 7.527344 37.5 L 170.675781 37.5 L 170.675781 245.753906 L 7.527344 245.753906 Z M 7.527344 37.5 " clip-rule="nonzero"/></clipPath><clipPath id="474a9348cf"><path d="M 15.707031 230.515625 C 25.480469 265.773438 17.953125 358.6875 115.601562 355.390625 C 185.949219 353.023438 170.941406 355.542969 278.34375 350.605469 C 323.671875 348.527344 352.292969 338.746094 363.238281 272.183594 C 375.007812 200.605469 385.308594 154.3125 355.707031 98.558594 C 333.453125 56.644531 288.277344 30.476562 222.40625 39.136719 C 48.773438 61.957031 -16.839844 113.175781 15.707031 230.515625 Z M 15.707031 230.515625 " clip-rule="nonzero"/></clipPath><clipPath id="b1ce6a97f4"><path d="M 7.527344 277.109375 L 375 277.109375 L 375 355.585938 L 7.527344 355.585938 Z M 7.527344 277.109375 " clip-rule="nonzero"/></clipPath><clipPath id="6bacca6288"><path d="M 15.707031 230.515625 C 25.480469 265.773438 17.953125 358.6875 115.601562 355.390625 C 185.949219 353.023438 170.941406 355.542969 278.34375 350.605469 C 323.671875 348.527344 352.292969 338.746094 363.238281 272.183594 C 375.007812 200.605469 385.308594 154.3125 355.707031 98.558594 C 333.453125 56.644531 288.277344 30.476562 222.40625 39.136719 C 48.773438 61.957031 -16.839844 113.175781 15.707031 230.515625 Z M 15.707031 230.515625 " clip-rule="nonzero"/></clipPath><clipPath id="975e8ad191"><path d="M 73.871094 37.5 L 188 37.5 L 188 261.519531 L 73.871094 261.519531 Z M 73.871094 37.5 " clip-rule="nonzero"/></clipPath><clipPath id="9c2a4b9e29"><path d="M 15.707031 230.515625 C 25.480469 265.773438 17.953125 358.6875 115.601562 355.390625 C 185.949219 353.023438 170.941406 355.542969 278.34375 350.605469 C 323.671875 348.527344 352.292969 338.746094 363.238281 272.183594 C 375.007812 200.605469 385.308594 154.3125 355.707031 98.558594 C 333.453125 56.644531 288.277344 30.476562 222.40625 39.136719 C 48.773438 61.957031 -16.839844 113.175781 15.707031 230.515625 Z M 15.707031 230.515625 " clip-rule="nonzero"/></clipPath><clipPath id="ae4a198638"><path d="M 229.144531 53.425781 L 304.417969 53.425781 L 304.417969 83.203125 L 229.144531 83.203125 Z M 229.144531 53.425781 " clip-rule="nonzero"/></clipPath><clipPath id="a779da134f"><path d="M 15.707031 230.515625 C 25.480469 265.773438 17.953125 358.6875 115.601562 355.390625 C 185.949219 353.023438 170.941406 355.542969 278.34375 350.605469 C 323.671875 348.527344 352.292969 338.746094 363.238281 272.183594 C 375.007812 200.605469 385.308594 154.3125 355.707031 98.558594 C 333.453125 56.644531 288.277344 30.476562 222.40625 39.136719 C 48.773438 61.957031 -16.839844 113.175781 15.707031 230.515625 Z M 15.707031 230.515625 " clip-rule="nonzero"/></clipPath><clipPath id="16851f19d9"><path d="M 229 53.25 L 304.59375 53.25 L 304.59375 83.378906 L 229 83.378906 Z M 229 53.25 " clip-rule="nonzero"/></clipPath><clipPath id="0053bfee54"><path d="M 15.707031 230.515625 C 25.480469 265.773438 17.953125 358.6875 115.601562 355.390625 C 185.949219 353.023438 170.941406 355.542969 278.34375 350.605469 C 323.671875 348.527344 352.292969 338.746094 363.238281 272.183594 C 375.007812 200.605469 385.308594 154.3125 355.707031 98.558594 C 333.453125 56.644531 288.277344 30.476562 222.40625 39.136719 C 48.773438 61.957031 -16.839844 113.175781 15.707031 230.515625 Z M 15.707031 230.515625 " clip-rule="nonzero"/></clipPath><clipPath id="017ba4ff60"><path d="M 266.257812 37.5 L 267.480469 37.5 L 267.480469 60.605469 L 266.257812 60.605469 Z M 266.257812 37.5 " clip-rule="nonzero"/></clipPath><clipPath id="08cc89b3da"><path d="M 15.707031 230.515625 C 25.480469 265.773438 17.953125 358.6875 115.601562 355.390625 C 185.949219 353.023438 170.941406 355.542969 278.34375 350.605469 C 323.671875 348.527344 352.292969 338.746094 363.238281 272.183594 C 375.007812 200.605469 385.308594 154.3125 355.707031 98.558594 C 333.453125 56.644531 288.277344 30.476562 222.40625 39.136719 C 48.773438 61.957031 -16.839844 113.175781 15.707031 230.515625 Z M 15.707031 230.515625 " clip-rule="nonzero"/></clipPath><clipPath id="8860f814be"><path d="M 346.082031 226.488281 L 372.164062 226.488281 L 372.164062 375 L 346.082031 375 Z M 346.082031 226.488281 " clip-rule="nonzero"/></clipPath></defs><rect x="-37.5" width="450" fill="#ffffff" y="-37.499999" height="449.999989" fill-opacity="1"/><rect x="-37.5" width="450" fill="#eaefef" y="-37.499999" height="449.999989" fill-opacity="1"/><g clip-path="url(#711b2f4674)"><g clip-path="url(#3525e2d93f)"><path fill="#fcd8bd" d="M -12.46875 -4.097656 L 377.972656 -4.097656 L 377.972656 266.28125 L -12.46875 266.28125 L -12.46875 -4.097656 " fill-opacity="1" fill-rule="nonzero"/></g></g><g clip-path="url(#2be505f28b)"><g clip-path="url(#372045b56e)"><path fill="#f9ae77" d="M -12.46875 266.28125 L 377.972656 266.28125 L 377.972656 377.398438 L -12.46875 377.398438 L -12.46875 266.28125 " fill-opacity="1" fill-rule="nonzero"/></g></g><g clip-path="url(#cff2ea9eaf)"><g clip-path="url(#474a9348cf)"><path fill="#7a9ed9" d="M -13.195312 -7.832031 L 170.542969 -7.832031 L 170.542969 245.734375 L -13.195312 245.734375 L -13.195312 -7.832031 " fill-opacity="1" fill-rule="nonzero"/></g></g><g clip-path="url(#b1ce6a97f4)"><g clip-path="url(#6bacca6288)"><path fill="#f79451" d="M 195.292969 277.191406 C 310.507812 277.191406 403.910156 296.054688 403.910156 319.328125 C 403.910156 342.597656 310.507812 361.464844 195.292969 361.464844 C 80.074219 361.464844 -13.328125 342.597656 -13.328125 319.328125 C -13.328125 296.054688 80.074219 277.191406 195.292969 277.191406 " fill-opacity="1" fill-rule="nonzero"/></g></g><g clip-path="url(#975e8ad191)"><g clip-path="url(#9c2a4b9e29)"><path fill="#d8ccea" d="M 73.941406 -44.785156 C 82.039062 6.460938 78.851562 59.007812 87.1875 110.226562 C 95.523438 161.4375 134.5 235.652344 179.535156 261.386719 C 184.269531 153.515625 173.277344 32.074219 187.871094 -74.90625 C 147.769531 -69.871094 112.265625 -72.476562 73.941406 -44.785156 " fill-opacity="1" fill-rule="nonzero"/></g></g><g clip-path="url(#ae4a198638)"><g clip-path="url(#a779da134f)"><path fill="#f4f4f4" d="M 229.214844 83.035156 C 229.214844 66.773438 246.039062 53.585938 266.792969 53.585938 C 287.550781 53.585938 304.371094 66.773438 304.371094 83.035156 L 229.214844 83.035156 " fill-opacity="1" fill-rule="nonzero"/></g></g><g clip-path="url(#16851f19d9)"><g clip-path="url(#0053bfee54)"><path fill="#f4f4f4" d="M 229.40625 82.84375 L 304.179688 82.84375 C 304.046875 66.800781 287.328125 53.777344 266.792969 53.777344 C 246.261719 53.777344 229.542969 66.800781 229.40625 82.84375 Z M 304.5625 83.226562 L 229.023438 83.226562 L 229.023438 83.035156 C 229.023438 66.691406 245.96875 53.394531 266.792969 53.394531 C 287.621094 53.394531 304.5625 66.691406 304.5625 83.035156 L 304.5625 83.226562 " fill-opacity="1" fill-rule="nonzero"/></g></g><g clip-path="url(#017ba4ff60)"><g clip-path="url(#08cc89b3da)"><path fill="#f4f4f4" d="M 267.308594 60.507812 L 266.257812 60.507812 L 266.257812 29.769531 L 267.308594 29.769531 L 267.308594 60.507812 " fill-opacity="1" fill-rule="nonzero"/></g></g><path fill="#97ab4c" d="M 48.871094 218.449219 L 47.085938 228 L 42.820312 228 L 42.851562 221.167969 C 42.761719 218.617188 42.113281 191.425781 54.972656 186.472656 L 48.871094 218.449219 " fill-opacity="1" fill-rule="nonzero"/><path fill="#afcc5b" d="M 40.433594 223.894531 C 39.925781 223.894531 39.917969 223.105469 40.433594 223.105469 C 40.945312 223.105469 40.945312 223.894531 40.433594 223.894531 Z M 46.226562 228 L 48.523438 173.675781 C 33.097656 183.613281 34.695312 212.746094 34.695312 212.746094 L 34.734375 212.757812 C 34.734375 212.777344 34.734375 212.792969 34.734375 212.816406 C 34.984375 218.28125 36.332031 223.644531 37.820312 228.011719 L 46.226562 228 " fill-opacity="1" fill-rule="nonzero"/><path fill="#97ab4c" d="M 40.433594 223.894531 C 39.925781 223.894531 39.917969 223.105469 40.433594 223.105469 C 40.945312 223.105469 40.945312 223.894531 40.433594 223.894531 Z M 43.609375 228 L 40.386719 205.941406 L 40.375 205.941406 L 35.253906 169.996094 C 24.34375 180.636719 34.445312 208.707031 35.414062 211.324219 L 40.886719 227.988281 L 43.609375 228 " fill-opacity="1" fill-rule="nonzero"/><path fill="#afcc5b" d="M 35.972656 228 C 33.6875 225.550781 31.261719 222.476562 29.484375 219 C 29.472656 218.988281 29.472656 218.96875 29.464844 218.960938 L 29.433594 218.96875 C 29.433594 218.96875 19.160156 199.359375 26.707031 187.160156 L 43.191406 227.992188 L 35.972656 228 " fill-opacity="1" fill-rule="nonzero"/><path fill="#fcd8bd" d="M 34.363281 242.40625 L 43.011719 242.40625 C 45.148438 242.40625 47.066406 241.148438 47.894531 239.207031 L 53.722656 225.613281 L 25.179688 225.613281 L 29.304688 238.71875 C 29.980469 240.90625 32.039062 242.40625 34.363281 242.40625 " fill-opacity="1" fill-rule="nonzero"/><path fill="#f4f4f4" d="M 157.722656 381.667969 L 0 381.667969 L 0 241.917969 L 157.722656 241.917969 L 157.722656 381.667969 " fill-opacity="1" fill-rule="nonzero"/><path fill="#ababdd" d="M 158.003906 381.035156 L 157.105469 381.035156 L 157.851562 241.921875 L 158.753906 241.929688 L 158.003906 381.035156 " fill-opacity="1" fill-rule="nonzero"/><path fill="#ababdd" d="M 69.65625 387.5625 L 68.738281 387.558594 L 69.40625 241.953125 L 70.328125 241.957031 L 69.65625 387.5625 " fill-opacity="1" fill-rule="nonzero"/><path fill="#ababdd" d="M 94.707031 288.75 L 25.46875 288.699219 L 25.46875 287.796875 L 94.707031 287.847656 L 94.707031 288.75 " fill-opacity="1" fill-rule="nonzero"/><path fill="#ababdd" d="M 50.449219 283.214844 L 61.800781 283.214844 C 63.269531 283.214844 64.464844 282.015625 64.464844 280.546875 C 64.464844 279.078125 63.265625 277.878906 61.800781 277.878906 L 50.449219 277.878906 C 48.980469 277.878906 47.785156 279.078125 47.785156 280.546875 C 47.792969 282.015625 48.992188 283.214844 50.449219 283.214844 " fill-opacity="1" fill-rule="nonzero"/><path fill="#f4f4f4" d="M 65.234375 280.855469 L 46.953125 280.855469 L 46.953125 280.195312 L 65.234375 280.195312 L 65.234375 280.855469 " fill-opacity="1" fill-rule="nonzero"/><path fill="#ababdd" d="M 49.839844 298.230469 L 61.191406 298.230469 C 62.660156 298.230469 63.855469 297.03125 63.855469 295.5625 C 63.855469 294.09375 62.660156 292.894531 61.191406 292.894531 L 49.839844 292.894531 C 48.371094 292.894531 47.175781 294.09375 47.175781 295.5625 C 47.183594 297.03125 48.382812 298.230469 49.839844 298.230469 " fill-opacity="1" fill-rule="nonzero"/><path fill="#f4f4f4" d="M 64.625 295.871094 L 46.347656 295.871094 L 46.347656 295.210938 L 64.625 295.210938 L 64.625 295.871094 " fill-opacity="1" fill-rule="nonzero"/><path fill="#93a7ac" d="M 304.023438 356.035156 L 264.410156 356.035156 L 264.410156 355.585938 L 304.023438 355.585938 L 304.023438 356.035156 " fill-opacity="1" fill-rule="nonzero"/><path fill="#605668" d="M 99.140625 387.804688 C 99.117188 387.804688 99.09375 387.804688 99.070312 387.800781 C 98.785156 387.761719 98.589844 387.5 98.628906 387.21875 L 120.730469 226.859375 C 120.769531 226.578125 121.027344 226.375 121.3125 226.417969 C 121.597656 226.457031 121.792969 226.71875 121.753906 227 L 99.652344 387.359375 C 99.613281 387.617188 99.394531 387.804688 99.140625 387.804688 " fill-opacity="1" fill-rule="nonzero"/><path fill="#f8a49e" d="M 160.976562 382.59375 L 150.636719 380.277344 L 150.875 373.484375 C 155.109375 371.195312 159.628906 370.476562 164.164062 370.496094 L 160.976562 382.59375 " fill-opacity="1" fill-rule="nonzero"/><path fill="#f68082" d="M 165.121094 366.820312 L 164.152344 370.507812 C 159.621094 370.488281 155.085938 371.207031 150.863281 373.496094 L 151.144531 365.472656 L 165.121094 366.820312 " fill-opacity="1" fill-rule="nonzero"/><path fill="#f4f4f4" d="M 336.378906 292.90625 L 311.550781 292.90625 L 311.550781 284.589844 L 331.4375 284.589844 C 334.164062 284.589844 336.378906 286.8125 336.378906 289.539062 L 336.378906 292.90625 " fill-opacity="1" fill-rule="nonzero"/><path fill="#5e5e8b" d="M 329.023438 387.78125 L 245.019531 387.78125 C 241.566406 387.78125 238.980469 384.28125 239.660156 380.535156 L 255.542969 292.875 L 329.023438 292.875 L 329.023438 387.78125 " fill-opacity="1" fill-rule="nonzero"/><path fill="#86869e" d="M 338.59375 292.875 L 292.234375 292.875 L 276.25 381.054688 C 275.621094 384.53125 278.027344 387.78125 281.230469 387.78125 L 344.117188 387.78125 L 344.117188 298.988281 C 344.117188 295.601562 341.652344 292.875 338.59375 292.875 " fill-opacity="1" fill-rule="nonzero"/><g clip-path="url(#8860f814be)"><path fill="#2e3135" d="M 371.574219 388.367188 C 371.351562 388.367188 371.152344 388.207031 371.121094 387.980469 L 346.089844 227.164062 C 346.050781 226.910156 346.222656 226.675781 346.472656 226.636719 C 346.722656 226.601562 346.957031 226.769531 346.996094 227.019531 L 372.027344 387.835938 C 372.0625 388.085938 371.894531 388.320312 371.640625 388.359375 C 371.617188 388.363281 371.59375 388.367188 371.574219 388.367188 " fill-opacity="1" fill-rule="nonzero"/></g><path fill="#86869e" d="M 265.257812 192.113281 L 282.855469 192.113281 L 282.855469 219.4375 L 265.257812 219.4375 L 265.257812 192.113281 " fill-opacity="1" fill-rule="nonzero"/><path fill="#432a4a" d="M 213.570312 192.183594 C 212.761719 192.183594 211.992188 191.828125 211.464844 191.207031 C 210.9375 190.578125 210.714844 189.757812 210.84375 188.949219 L 223.765625 112.027344 C 224.253906 109.089844 226.621094 107.191406 229.792969 107.191406 L 342.96875 107.261719 C 343.777344 107.261719 344.617188 107.679688 345.214844 108.390625 C 345.753906 109.03125 345.992188 109.769531 345.882812 110.4375 L 332.722656 189.417969 C 332.425781 191.195312 331.136719 192.433594 329.601562 192.445312 L 213.570312 192.183594 " fill-opacity="1" fill-rule="nonzero"/><path fill="#86869e" d="M 229.792969 106.511719 C 226.300781 106.511719 223.644531 108.648438 223.09375 111.917969 L 210.175781 188.839844 C 209.828125 190.945312 211.433594 192.867188 213.570312 192.867188 L 329.601562 193.125 C 331.589844 193.125 333.066406 191.507812 333.394531 189.539062 L 346.554688 110.558594 C 346.871094 108.660156 345.007812 106.59375 342.96875 106.59375 L 229.792969 106.511719 C 229.804688 106.511719 229.804688 106.511719 229.792969 106.511719 Z M 229.804688 107.859375 L 342.96875 107.929688 C 343.566406 107.929688 344.234375 108.269531 344.707031 108.820312 C 345.105469 109.300781 345.304688 109.859375 345.226562 110.316406 L 332.066406 189.289062 C 331.867188 190.464844 331.019531 191.746094 329.609375 191.746094 L 213.582031 191.484375 C 212.972656 191.484375 212.394531 191.214844 211.992188 190.746094 C 211.59375 190.277344 211.425781 189.648438 211.523438 189.039062 L 224.445312 112.117188 C 224.871094 109.539062 226.980469 107.859375 229.804688 107.859375 " fill-opacity="1" fill-rule="nonzero"/><path fill="#f4f4f4" d="M 327.453125 122.082031 L 232.71875 122.070312 L 232.71875 121.621094 L 327.453125 121.628906 L 327.453125 122.082031 " fill-opacity="1" fill-rule="nonzero"/><path fill="#d8ccea" d="M 312.859375 135.621094 L 306.21875 135.621094 C 305.832031 135.621094 305.480469 135.863281 305.429688 136.164062 C 305.382812 136.460938 305.652344 136.703125 306.039062 136.703125 L 312.679688 136.703125 L 312.859375 135.621094 " fill-opacity="1" fill-rule="nonzero"/><path fill="#d8ccea" d="M 315.792969 135.621094 L 315.613281 136.691406 L 319.738281 136.691406 L 319.90625 135.621094 L 315.792969 135.621094 " fill-opacity="1" fill-rule="nonzero"/><path fill="#d8ccea" d="M 274.082031 135.621094 L 267.550781 135.621094 C 267.164062 135.621094 266.8125 135.863281 266.765625 136.164062 C 266.714844 136.460938 266.984375 136.703125 267.375 136.703125 L 273.902344 136.703125 L 274.082031 135.621094 " fill-opacity="1" fill-rule="nonzero"/><path fill="#d8ccea" d="M 298.710938 135.621094 L 286.941406 135.621094 L 286.761719 136.703125 L 298.53125 136.703125 C 298.921875 136.703125 299.269531 136.460938 299.320312 136.164062 C 299.371094 135.863281 299.089844 135.621094 298.710938 135.621094 " fill-opacity="1" fill-rule="nonzero"/><path fill="#d8ccea" d="M 258.785156 136.691406 L 236.472656 136.691406 C 236.085938 136.691406 235.816406 136.449219 235.867188 136.152344 C 235.914062 135.851562 236.265625 135.613281 236.652344 135.613281 L 258.96875 135.613281 C 259.355469 135.613281 259.625 135.851562 259.578125 136.152344 C 259.515625 136.449219 259.167969 136.691406 258.785156 136.691406 " fill-opacity="1" fill-rule="nonzero"/><path fill="#f4f4f4" d="M 319.238281 139.71875 L 279.054688 139.71875 C 278.664062 139.71875 278.3125 139.957031 278.265625 140.257812 C 278.214844 140.558594 278.484375 140.796875 278.875 140.796875 L 319.058594 140.796875 L 319.238281 139.71875 " fill-opacity="1" fill-rule="nonzero"/><path fill="#f4f1fa" d="M 241.625 139.71875 L 235.972656 139.71875 C 235.585938 139.71875 235.234375 139.957031 235.1875 140.257812 C 235.136719 140.558594 235.40625 140.796875 235.796875 140.796875 L 241.445312 140.796875 L 241.625 139.71875 " fill-opacity="1" fill-rule="nonzero"/><path fill="#f4f1fa" d="M 258.308594 139.71875 L 244.558594 139.71875 L 244.378906 140.785156 L 258.136719 140.785156 L 258.308594 139.71875 " fill-opacity="1" fill-rule="nonzero"/><path fill="#f4f1fa" d="M 270.996094 139.71875 L 263.039062 139.71875 L 262.859375 140.796875 L 270.816406 140.796875 C 271.207031 140.796875 271.558594 140.558594 271.605469 140.257812 C 271.65625 139.957031 271.386719 139.71875 270.996094 139.71875 " fill-opacity="1" fill-rule="nonzero"/><path fill="#d8ccea" d="M 272.785156 143.574219 L 240.894531 143.574219 L 240.726562 144.652344 L 272.605469 144.652344 L 272.785156 143.574219 " fill-opacity="1" fill-rule="nonzero"/><path fill="#f57e41" d="M 287.378906 143.574219 L 285.632812 143.574219 L 285.453125 144.652344 L 287.199219 144.652344 C 287.589844 144.652344 287.9375 144.414062 287.988281 144.113281 C 288.039062 143.8125 287.761719 143.574219 287.378906 143.574219 " fill-opacity="1" fill-rule="nonzero"/><path fill="#d8ccea" d="M 314.1875 127.539062 L 307.546875 127.539062 C 307.15625 127.539062 306.808594 127.78125 306.757812 128.078125 C 306.707031 128.378906 306.976562 128.621094 307.367188 128.621094 L 314.007812 128.621094 L 314.1875 127.539062 " fill-opacity="1" fill-rule="nonzero"/><path fill="#d8ccea" d="M 317.121094 127.539062 L 316.941406 128.621094 L 321.054688 128.621094 L 321.234375 127.539062 L 317.121094 127.539062 " fill-opacity="1" fill-rule="nonzero"/><path fill="#d8ccea" d="M 275.410156 127.539062 L 268.878906 127.539062 C 268.492188 127.539062 268.140625 127.78125 268.089844 128.078125 C 268.042969 128.378906 268.3125 128.621094 268.699219 128.621094 L 275.230469 128.621094 L 275.410156 127.539062 " fill-opacity="1" fill-rule="nonzero"/><path fill="#d8ccea" d="M 300.03125 127.539062 L 288.257812 127.539062 L 288.078125 128.621094 L 299.847656 128.621094 C 300.238281 128.621094 300.589844 128.378906 300.640625 128.078125 C 300.6875 127.78125 300.417969 127.539062 300.03125 127.539062 " fill-opacity="1" fill-rule="nonzero"/><path fill="#f4f4f4" d="M 260.105469 128.621094 L 237.792969 128.621094 C 237.402344 128.621094 237.132812 128.378906 237.183594 128.078125 C 237.234375 127.78125 237.582031 127.539062 237.972656 127.539062 L 260.285156 127.539062 C 260.675781 127.539062 260.945312 127.78125 260.894531 128.078125 C 260.84375 128.371094 260.492188 128.621094 260.105469 128.621094 " fill-opacity="1" fill-rule="nonzero"/><path fill="#f4f1fa" d="M 297.28125 131.636719 L 280.382812 131.636719 C 279.992188 131.636719 279.644531 131.878906 279.59375 132.175781 C 279.542969 132.476562 279.8125 132.714844 280.203125 132.714844 L 297.105469 132.714844 L 297.28125 131.636719 " fill-opacity="1" fill-rule="nonzero"/><path fill="#f4f1fa" d="M 299.988281 131.636719 L 299.808594 132.714844 L 320.386719 132.714844 L 320.566406 131.636719 L 299.988281 131.636719 " fill-opacity="1" fill-rule="nonzero"/><path fill="#f57e41" d="M 272.324219 131.636719 L 242.851562 131.636719 L 242.671875 132.714844 L 272.144531 132.714844 C 272.535156 132.714844 272.882812 132.476562 272.933594 132.175781 C 272.984375 131.875 272.714844 131.636719 272.324219 131.636719 " fill-opacity="1" fill-rule="nonzero"/><path fill="#f57e41" d="M 309.027344 116.269531 C 308.65625 116.269531 308.265625 116.375 307.910156 116.601562 C 307.484375 116.871094 307.171875 117.265625 307.039062 117.714844 C 306.902344 118.152344 306.953125 118.585938 307.175781 118.9375 C 307.640625 119.675781 308.726562 119.824219 309.601562 119.273438 C 310.472656 118.722656 310.804688 117.671875 310.339844 116.9375 C 310.058594 116.496094 309.566406 116.269531 309.027344 116.269531 Z M 308.492188 120.058594 C 307.796875 120.058594 307.15625 119.753906 306.792969 119.179688 C 306.5 118.714844 306.433594 118.148438 306.605469 117.585938 C 306.773438 117.03125 307.152344 116.546875 307.671875 116.21875 C 308.75 115.53125 310.121094 115.746094 310.71875 116.695312 C 311.320312 117.640625 310.925781 118.96875 309.84375 119.65625 C 309.414062 119.925781 308.941406 120.058594 308.492188 120.058594 " fill-opacity="1" fill-rule="nonzero"/><path fill="#d8ccea" d="M 315.054688 116.265625 C 314.671875 116.265625 314.285156 116.382812 313.941406 116.597656 C 313.070312 117.152344 312.738281 118.199219 313.207031 118.9375 C 313.671875 119.675781 314.757812 119.824219 315.632812 119.273438 C 316.058594 119 316.371094 118.605469 316.507812 118.15625 C 316.636719 117.71875 316.589844 117.285156 316.367188 116.933594 C 316.144531 116.582031 315.773438 116.351562 315.324219 116.285156 C 315.234375 116.273438 315.144531 116.265625 315.054688 116.265625 Z M 314.519531 120.054688 C 313.828125 120.054688 313.1875 119.75 312.824219 119.179688 C 312.226562 118.230469 312.617188 116.902344 313.699219 116.21875 C 314.21875 115.890625 314.816406 115.753906 315.390625 115.839844 C 315.972656 115.925781 316.457031 116.226562 316.75 116.695312 C 317.042969 117.160156 317.109375 117.722656 316.9375 118.289062 C 316.769531 118.839844 316.390625 119.324219 315.875 119.65625 C 315.445312 119.925781 314.972656 120.054688 314.519531 120.054688 " fill-opacity="1" fill-rule="nonzero"/><path fill="#f4f4f4" d="M 321.214844 116.269531 C 320.832031 116.269531 320.445312 116.382812 320.101562 116.601562 C 319.675781 116.871094 319.363281 117.265625 319.226562 117.714844 C 319.09375 118.152344 319.144531 118.585938 319.367188 118.9375 C 319.832031 119.675781 320.921875 119.824219 321.792969 119.273438 C 322.664062 118.722656 322.992188 117.671875 322.527344 116.9375 C 322.304688 116.585938 321.933594 116.355469 321.484375 116.289062 C 321.394531 116.273438 321.304688 116.269531 321.214844 116.269531 Z M 320.679688 120.058594 C 319.988281 120.058594 319.347656 119.753906 318.984375 119.179688 C 318.691406 118.714844 318.625 118.148438 318.796875 117.585938 C 318.964844 117.03125 319.339844 116.546875 319.859375 116.21875 C 320.378906 115.890625 320.980469 115.757812 321.550781 115.839844 C 322.132812 115.925781 322.613281 116.230469 322.910156 116.695312 C 323.507812 117.644531 323.117188 118.972656 322.035156 119.65625 C 321.605469 119.929688 321.132812 120.058594 320.679688 120.058594 " fill-opacity="1" fill-rule="nonzero"/><path fill="#86869e" d="M 270.976562 214.203125 C 296.75 214.203125 317.640625 216.570312 317.640625 219.488281 C 317.640625 222.40625 296.75 224.773438 270.976562 224.773438 C 245.203125 224.773438 224.3125 222.40625 224.3125 219.488281 C 224.3125 216.570312 245.203125 214.203125 270.976562 214.203125 " fill-opacity="1" fill-rule="nonzero"/><path fill="#2e3135" d="M 257.742188 387.847656 C 257.726562 387.847656 257.710938 387.847656 257.699219 387.847656 C 257.445312 387.824219 257.261719 387.601562 257.28125 387.347656 L 271.511719 226.53125 C 271.53125 226.277344 271.753906 226.089844 272.003906 226.113281 C 272.257812 226.136719 272.445312 226.359375 272.421875 226.613281 L 258.195312 387.429688 C 258.175781 387.667969 257.976562 387.847656 257.742188 387.847656 " fill-opacity="1" fill-rule="nonzero"/><path fill="#595c6e" d="M 237.273438 220.148438 L 274.53125 211.347656 C 277.175781 210.929688 279.671875 212.496094 279.882812 214.714844 L 280.351562 219.488281 L 237.273438 220.148438 " fill-opacity="1" fill-rule="nonzero"/><path fill="#908fa3" d="M 202.417969 210.007812 L 182.640625 217.171875 C 181.355469 217.640625 181.695312 219.539062 183.0625 219.539062 L 243.640625 219.558594 L 275.230469 211.207031 L 227.121094 210.757812 L 202.417969 210.007812 " fill-opacity="1" fill-rule="nonzero"/><path fill="#a9c5ea" d="M 145.683594 364.433594 C 147.199219 318.089844 155.996094 283.515625 155.996094 283.515625 L 125.175781 283.851562 C 97.613281 278.929688 103.183594 244.191406 103.183594 244.191406 C 103.183594 244.191406 137.785156 240.714844 182.992188 245.402344 C 194.253906 246.570312 192.046875 263.324219 190.019531 275.730469 C 186.484375 297.417969 167.488281 369.835938 167.488281 369.835938 L 151.003906 369.96875 C 147.988281 369.949219 145.582031 367.449219 145.683594 364.433594 " fill-opacity="1" fill-rule="nonzero"/><path fill="#7a232b" d="M 328.898438 227.527344 L 87.195312 227.527344 L 87.195312 219.554688 L 328.898438 219.554688 L 328.898438 227.527344 " fill-opacity="1" fill-rule="nonzero"/><path fill="#f25126" d="M 165.429688 220.335938 C 169.5625 201.566406 170.550781 180.976562 161.828125 163.445312 C 157.402344 154.550781 149.464844 148.660156 139.632812 147.0625 C 130.109375 145.511719 116.898438 146 103.480469 154.921875 C 95.875 159.976562 92.46875 169.988281 95.953125 176.960938 C 98.300781 181.65625 100.738281 187.9375 102.066406 195.5625 C 118.625 211.785156 142.089844 218.089844 165.429688 220.335938 " fill-opacity="1" fill-rule="nonzero"/><path fill="#f25126" d="M 159.230469 250.625 C 148.617188 255.972656 102.734375 252.792969 102.734375 252.792969 C 99.367188 252.585938 97.5625 240.027344 97.769531 236.171875 C 97.921875 233.34375 105.726562 216.632812 102.0625 195.550781 C 118.636719 211.785156 142.089844 218.078125 165.429688 220.328125 C 164.910156 222.695312 164.722656 226.089844 164.621094 228.027344 C 163.882812 242.257812 167.648438 246.382812 159.230469 250.625 " fill-opacity="1" fill-rule="nonzero"/><path fill="#f25126" d="M 181.695312 188.199219 L 158.613281 158.269531 L 145.460938 197.46875 L 161.078125 211.644531 C 173.21875 203.222656 180.753906 200.957031 181.695312 188.199219 " fill-opacity="1" fill-rule="nonzero"/><path fill="#f25126" d="M 216.945312 209.109375 C 216.867188 207.351562 215.527344 204.613281 211.644531 203.992188 C 207.652344 203.355469 205.535156 204.066406 196.410156 200.207031 C 194.332031 199.328125 191.277344 197.589844 189.691406 196.179688 C 184.300781 191.40625 176.980469 183.082031 176.980469 183.082031 C 175.363281 194.824219 171.300781 202.394531 163.421875 210.226562 L 166.859375 213.53125 C 171.011719 217.296875 175.960938 219.585938 181.824219 219.605469 L 214.910156 219.425781 C 217.253906 219.425781 217.777344 217.058594 217.855469 214.941406 L 216.945312 209.109375 " fill-opacity="1" fill-rule="nonzero"/><path fill="#f8a49e" d="M 213.210938 383.074219 L 202.558594 383.632812 L 200.800781 372.964844 C 204.40625 369.019531 209.667969 369.246094 213.609375 368.949219 L 213.210938 383.074219 " fill-opacity="1" fill-rule="nonzero"/><path fill="#f68082" d="M 213.808594 365.402344 L 213.609375 368.949219 C 209.9375 369.367188 206.152344 368.996094 200.761719 373.113281 L 199.703125 366.480469 L 213.808594 365.402344 " fill-opacity="1" fill-rule="nonzero"/><path fill="#a9c5ea" d="M 202.449219 246.558594 L 172.636719 244.761719 L 149.367188 280.566406 L 189.621094 283.742188 L 219.3125 255.941406 C 215.210938 251.035156 208.398438 246.691406 202.449219 246.558594 " fill-opacity="1" fill-rule="nonzero"/><path fill="#a9c5ea" d="M 223.65625 270.066406 C 223.554688 262.746094 221.378906 257.46875 217.664062 254.035156 L 188.035156 284.28125 L 188.125 284.28125 C 189.699219 320.578125 190.25 345.8125 194.003906 362.253906 C 194.753906 365.53125 196.347656 368.367188 199.894531 368.269531 L 216.15625 367.789062 L 223.65625 270.066406 " fill-opacity="1" fill-rule="nonzero"/><path fill="#f25126" d="M 142.507812 193.914062 C 142.507812 193.914062 156.175781 207.140625 165.460938 213.113281 C 168.765625 215.242188 170.640625 220.625 191.546875 219.03125 L 142.507812 193.914062 " fill-opacity="1" fill-rule="nonzero"/><path fill="#c93e21" d="M 184.5625 219.542969 C 172.703125 219.542969 169.273438 216.585938 166.882812 214.523438 C 166.355469 214.070312 165.855469 213.636719 165.339844 213.304688 C 156.140625 207.386719 142.488281 194.207031 142.351562 194.078125 L 142.664062 193.75 C 142.800781 193.882812 156.421875 207.03125 165.582031 212.925781 C 166.128906 213.273438 166.636719 213.714844 167.179688 214.179688 C 169.929688 216.554688 174.082031 220.132812 191.53125 218.804688 L 191.566406 219.253906 C 188.949219 219.453125 186.625 219.542969 184.5625 219.542969 " fill-opacity="1" fill-rule="nonzero"/><path fill="#7599d6" d="M 190.167969 325.355469 C 190.050781 325.355469 189.949219 325.265625 189.945312 325.144531 L 187.796875 288.171875 C 187.6875 286.296875 186.132812 284.816406 184.257812 284.796875 L 165.308594 284.617188 C 165.183594 284.617188 165.085938 284.515625 165.085938 284.390625 C 165.085938 284.265625 165.1875 284.167969 165.3125 284.167969 L 184.261719 284.347656 C 186.371094 284.367188 188.121094 286.035156 188.25 288.144531 L 190.394531 325.117188 C 190.402344 325.242188 190.308594 325.347656 190.183594 325.355469 C 190.179688 325.355469 190.175781 325.355469 190.167969 325.355469 " fill-opacity="1" fill-rule="nonzero"/><path fill="#815785" d="M 217.59375 375.660156 C 216.804688 374.871094 215.65625 374.652344 214.570312 374.589844 C 213.5625 374.542969 212.375 374.691406 211.816406 375.621094 C 211.382812 376.339844 211.496094 377.308594 211.90625 378.019531 C 212.3125 378.726562 212.953125 379.226562 213.601562 379.679688 C 214.917969 380.597656 216.308594 381.386719 217.746094 382.054688 L 223.105469 382.074219 C 222.996094 381.328125 222.347656 380.90625 221.546875 380.257812 C 220.542969 379.417969 219.421875 378.46875 218.703125 377.328125 C 218.351562 376.761719 218.054688 376.132812 217.59375 375.660156 " fill-opacity="1" fill-rule="nonzero"/><path fill="#815785" d="M 166.148438 375.5625 C 165.359375 374.773438 164.210938 374.550781 163.125 374.492188 C 162.117188 374.441406 160.925781 374.589844 160.367188 375.519531 C 159.941406 376.242188 160.050781 377.210938 160.460938 377.917969 C 160.867188 378.628906 161.507812 379.128906 162.15625 379.578125 C 163.464844 380.496094 164.851562 381.285156 166.300781 381.945312 L 171.660156 381.976562 C 171.550781 381.226562 170.902344 380.808594 170.105469 380.15625 C 169.09375 379.320312 167.976562 378.371094 167.257812 377.230469 C 166.917969 376.660156 166.617188 376.03125 166.148438 375.5625 " fill-opacity="1" fill-rule="nonzero"/><path fill="#f79342" d="M 157.871094 157.707031 C 157.808594 157.707031 157.742188 157.679688 157.699219 157.625 C 146.449219 143.734375 132.632812 148.828125 132.496094 148.878906 C 132.378906 148.925781 132.25 148.867188 132.203125 148.75 C 132.160156 148.632812 132.21875 148.503906 132.332031 148.457031 C 132.476562 148.40625 146.597656 143.195312 158.046875 157.339844 C 158.125 157.4375 158.113281 157.578125 158.015625 157.65625 C 157.972656 157.691406 157.921875 157.707031 157.871094 157.707031 " fill-opacity="1" fill-rule="nonzero"/><path fill="#a33b3f" d="M 351.503906 227.519531 L 266.554688 227.519531 C 266.554688 223.054688 270.179688 219.429688 274.640625 219.429688 L 343.417969 219.429688 C 347.882812 219.417969 351.503906 223.046875 351.503906 227.519531 " fill-opacity="1" fill-rule="nonzero"/><path fill="#2e3135" d="M 348.410156 237.492188 L 271.238281 237.492188 C 270.988281 237.492188 270.785156 237.289062 270.785156 237.042969 C 270.785156 236.789062 270.988281 236.589844 271.238281 236.589844 L 348.410156 236.589844 C 348.660156 236.589844 348.859375 236.789062 348.859375 237.042969 C 348.859375 237.289062 348.660156 237.492188 348.410156 237.492188 " fill-opacity="1" fill-rule="nonzero"/><path fill="#5e5e8b" d="M 343.65625 387.714844 L 319.730469 373.539062 L 319.730469 325.429688 L 292.050781 293.027344 L 292.414062 292.722656 L 320.203125 325.253906 L 320.203125 373.269531 L 343.898438 387.304688 L 343.65625 387.714844 " fill-opacity="1" fill-rule="nonzero"/><path fill="#c3d3ef" d="M 315.503906 292.933594 L 280.96875 292.933594 L 293.757812 284.582031 L 328.304688 284.582031 L 315.503906 292.933594 " fill-opacity="1" fill-rule="nonzero"/><path fill="#f4f4f4" d="M 327.035156 287.097656 L 295.90625 287.097656 L 295.90625 286.644531 L 327.035156 286.644531 L 327.035156 287.097656 " fill-opacity="1" fill-rule="nonzero"/><path fill="#f4f4f4" d="M 294.984375 286.703125 C 294.601562 287.046875 294.511719 287.570312 294.78125 287.863281 C 295.046875 288.160156 295.574219 288.121094 295.957031 287.773438 C 296.335938 287.425781 296.429688 286.90625 296.160156 286.609375 C 295.894531 286.316406 295.367188 286.355469 294.984375 286.703125 Z M 295.257812 288.511719 C 294.949219 288.511719 294.652344 288.398438 294.445312 288.167969 C 294.007812 287.6875 294.117188 286.882812 294.679688 286.367188 C 295.246094 285.855469 296.058594 285.828125 296.496094 286.308594 C 296.929688 286.785156 296.824219 287.59375 296.257812 288.109375 C 295.964844 288.378906 295.601562 288.511719 295.257812 288.511719 " fill-opacity="1" fill-rule="nonzero"/><path fill="#f57e41" d="M 307.292969 290.640625 C 307.726562 290.253906 308.324219 290.21875 308.632812 290.566406 C 308.945312 290.910156 308.84375 291.503906 308.414062 291.890625 C 307.980469 292.277344 307.382812 292.308594 307.074219 291.964844 C 306.765625 291.621094 306.863281 291.027344 307.292969 290.640625 " fill-opacity="1" fill-rule="nonzero"/><path fill="#f4f4f4" d="M 309.890625 290.636719 C 310.320312 290.25 310.921875 290.21875 311.230469 290.5625 C 311.539062 290.90625 311.441406 291.5 311.007812 291.886719 C 310.578125 292.273438 309.976562 292.308594 309.667969 291.960938 C 309.359375 291.617188 309.457031 291.027344 309.890625 290.636719 " fill-opacity="1" fill-rule="nonzero"/><path fill="#7599d6" d="M 210.507812 367.996094 C 210.382812 367.996094 210.28125 367.894531 210.28125 367.769531 L 210.28125 334.820312 C 210.28125 334.695312 210.382812 334.597656 210.507812 334.597656 C 210.632812 334.597656 210.734375 334.695312 210.734375 334.820312 L 210.734375 367.769531 C 210.734375 367.894531 210.632812 367.996094 210.507812 367.996094 " fill-opacity="1" fill-rule="nonzero"/><path fill="#7599d6" d="M 161.867188 369.671875 C 161.855469 369.671875 161.84375 369.671875 161.835938 369.671875 C 161.710938 369.652344 161.625 369.539062 161.644531 369.414062 L 165.386719 343.023438 C 165.402344 342.898438 165.519531 342.8125 165.640625 342.832031 C 165.765625 342.847656 165.851562 342.960938 165.832031 343.085938 L 162.089844 369.480469 C 162.074219 369.59375 161.976562 369.671875 161.867188 369.671875 " fill-opacity="1" fill-rule="nonzero"/><path fill="#f89b2a" d="M 247.007812 191.484375 L 259.875 191.535156 C 259.875 191.535156 259.476562 194.292969 259.476562 205.832031 L 245.390625 205.832031 C 245.378906 205.839844 244.289062 199.289062 247.007812 191.484375 " fill-opacity="1" fill-rule="nonzero"/><path fill="#6595d5" d="M 295.765625 191.945312 L 305.121094 191.984375 C 305.121094 191.984375 304.832031 193.984375 304.832031 202.382812 L 294.589844 202.382812 C 294.578125 202.375 293.789062 197.609375 295.765625 191.945312 " fill-opacity="1" fill-rule="nonzero"/><path fill="#f4f4f4" d="M 283.304688 300.785156 C 281.578125 300.785156 279.847656 302.246094 279.449219 304.042969 L 276.324219 318.039062 C 276.128906 318.910156 276.289062 319.753906 276.765625 320.347656 C 277.207031 320.894531 277.875 321.195312 278.644531 321.195312 C 280.367188 321.195312 282.097656 319.734375 282.503906 317.9375 L 285.628906 303.941406 C 285.824219 303.070312 285.660156 302.230469 285.179688 301.636719 C 284.742188 301.085938 284.078125 300.785156 283.304688 300.785156 Z M 278.644531 321.65625 C 277.730469 321.65625 276.9375 321.292969 276.410156 320.636719 C 275.847656 319.929688 275.648438 318.949219 275.875 317.9375 L 279 303.941406 C 279.441406 301.949219 281.375 300.328125 283.304688 300.328125 C 284.21875 300.328125 285.011719 300.6875 285.539062 301.347656 C 286.105469 302.050781 286.300781 303.035156 286.078125 304.042969 L 282.953125 318.039062 C 282.5 320.03125 280.570312 321.65625 278.644531 321.65625 " fill-opacity="1" fill-rule="nonzero"/><path fill="#f8a49e" d="M 144.632812 144.949219 L 142.925781 153.964844 L 140.859375 154.703125 L 129.988281 149.710938 L 130.597656 145.992188 C 135.148438 145.234375 139.972656 144.308594 144.632812 144.949219 " fill-opacity="1" fill-rule="nonzero"/><path fill="#f8a49e" d="M 131.625 139.6875 C 134.378906 133.96875 140.871094 139.117188 145.710938 139.457031 L 144.585938 145.320312 C 139.921875 144.671875 135.148438 145.222656 130.585938 145.992188 L 131.085938 142.957031 L 131.625 139.6875 " fill-opacity="1" fill-rule="nonzero"/><path fill="#f68082" d="M 147.480469 130.097656 L 145.710938 139.46875 C 140.871094 139.128906 136.179688 138.628906 131.625 139.699219 L 133.78125 126.582031 C 136.296875 131.386719 142.199219 128.488281 147.480469 130.097656 " fill-opacity="1" fill-rule="nonzero"/><path fill="#f4f4f4" d="M 143.847656 122.824219 C 143.816406 122.875 143.824219 122.84375 143.847656 122.816406 L 143.847656 122.824219 " fill-opacity="1" fill-rule="nonzero"/><path fill="#f8a49e" d="M 158.003906 100.878906 C 155.265625 100.667969 153.058594 106.511719 148.257812 106.472656 C 144.316406 106.429688 139.953125 108.25 138.632812 109.089844 C 136.027344 110.746094 134.050781 124.285156 133.851562 124.914062 C 133.851562 124.914062 139.203125 123.933594 140.183594 128.269531 C 141.898438 135.851562 143.417969 136.730469 145.292969 138 C 146.003906 138.480469 146.851562 138.5 147.710938 138.5 C 150.496094 138.507812 157.253906 133.90625 158.929688 127.78125 C 158.941406 127.75 158.949219 127.710938 158.949219 127.679688 L 162.296875 111.695312 C 162.367188 111.355469 162.425781 111.007812 162.433594 110.65625 C 162.796875 103.945312 158.53125 100.9375 158.003906 100.878906 " fill-opacity="1" fill-rule="nonzero"/><path fill="#7a232b" d="M 149.425781 100.898438 C 147.507812 100.386719 145.511719 100.136719 143.445312 99.96875 C 144.984375 99.878906 146.5625 99.925781 148.039062 100.367188 C 148.507812 100.507812 148.96875 100.6875 149.425781 100.898438 " fill-opacity="1" fill-rule="nonzero"/><path fill="#7a232b" d="M 155.957031 111.105469 C 155.625 111.527344 155.328125 111.96875 155.058594 112.4375 C 154.328125 113.664062 153.820312 115.023438 153.53125 116.414062 C 153.121094 118.429688 153.199219 120.546875 152.652344 122.535156 C 151.484375 126.8125 147.519531 132.785156 143.21875 134.554688 C 141.738281 135.164062 139.421875 134.515625 136.96875 134.074219 C 134.203125 133.566406 132.785156 131.558594 131.578125 129.230469 C 119.148438 120.238281 124.558594 102.046875 126.027344 98.710938 C 126.972656 96.542969 128.832031 94.273438 130.976562 92.554688 C 132.414062 96.683594 138.691406 96.90625 142.527344 97 C 143.464844 97.058594 146.757812 96.988281 147.675781 97.066406 C 149.742188 97.238281 154.433594 99.335938 156.351562 99.847656 C 159.316406 101.207031 158.605469 102.800781 160.621094 105 C 162.347656 106.847656 157.164062 109.570312 155.957031 111.105469 " fill-opacity="1" fill-rule="nonzero"/><path fill="#7a232b" d="M 161.648438 106.203125 C 160.867188 108.648438 157.992188 109.628906 156.054688 111.335938 C 155.675781 111.675781 155.335938 112.046875 155.046875 112.425781 C 155.316406 111.964844 155.617188 111.515625 155.945312 111.097656 C 157.15625 109.546875 158.949219 109.046875 157.234375 107.179688 C 155.21875 104.984375 152.382812 102.246094 149.417969 100.886719 C 152.203125 101.625 154.808594 102.945312 157.15625 105.402344 C 158.363281 106.761719 160.039062 106.859375 161.648438 106.203125 " fill-opacity="1" fill-rule="nonzero"/><path fill="#963537" d="M 157.324219 97.140625 C 154.578125 94.773438 154.179688 88.941406 142.996094 89.191406 C 134.371094 89.378906 132.734375 91.136719 130.988281 92.546875 C 132.414062 96.671875 136.828125 99.679688 140.660156 99.769531 C 146.8125 100.199219 152.5 100.519531 157.164062 105.414062 C 158.363281 106.761719 160.039062 106.863281 161.648438 106.203125 L 161.648438 106.191406 C 161.957031 102.226562 161.457031 100.707031 157.324219 97.140625 " fill-opacity="1" fill-rule="nonzero"/><path fill="#f8a49e" d="M 154.109375 123.503906 C 156.195312 126.519531 153.867188 129.148438 151.683594 128.660156 C 149.484375 128.167969 147.738281 125.023438 147.777344 121.625 C 147.820312 118.230469 150.253906 115.839844 153.359375 116.34375 C 155.578125 116.691406 152.183594 120.707031 154.109375 123.503906 " fill-opacity="1" fill-rule="nonzero"/><path fill="#f68082" d="M 153.539062 127.6875 C 153.527344 127.6875 153.519531 127.683594 153.507812 127.679688 C 153.429688 127.664062 153.382812 127.585938 153.398438 127.507812 C 153.492188 127.105469 153.574219 126.675781 153.546875 126.242188 C 153.515625 125.816406 153.355469 125.4375 153.117188 125.230469 C 152.890625 125.050781 152.550781 124.988281 152.113281 125.058594 C 151.984375 125.074219 151.855469 125.085938 151.726562 125.097656 C 151.460938 125.117188 151.210938 125.136719 150.980469 125.238281 C 150.925781 125.261719 150.859375 125.246094 150.816406 125.203125 C 150.796875 125.175781 148.640625 122.808594 150.042969 119.796875 C 150.078125 119.726562 150.164062 119.695312 150.238281 119.726562 C 150.308594 119.761719 150.339844 119.847656 150.308594 119.917969 C 149.121094 122.46875 150.632812 124.523438 150.96875 124.929688 C 151.210938 124.847656 151.460938 124.828125 151.703125 124.808594 C 151.828125 124.796875 151.949219 124.789062 152.070312 124.769531 C 152.59375 124.691406 153.003906 124.769531 153.300781 125.011719 C 153.605469 125.273438 153.800781 125.714844 153.832031 126.222656 C 153.867188 126.691406 153.78125 127.148438 153.679688 127.574219 C 153.664062 127.640625 153.605469 127.6875 153.539062 127.6875 " fill-opacity="1" fill-rule="nonzero"/><path fill="#7a232b" d="M 132.5625 91.015625 C 128.511719 88.859375 121.34375 88.890625 117.597656 91.109375 C 114.382812 93.003906 112.566406 96.691406 109.273438 98.460938 C 108.664062 98.800781 107.996094 99.050781 107.316406 99.269531 C 106.40625 99.910156 106.398438 99.890625 107.296875 99.25 C 103.703125 100.398438 99.4375 100.378906 97.210938 103.273438 C 96.644531 104.015625 96.261719 104.941406 96.34375 105.894531 C 96.421875 106.871094 96.972656 107.800781 96.972656 108.78125 C 96.960938 111.449219 93.019531 112.828125 93.359375 115.484375 C 93.539062 116.890625 94.953125 118.121094 94.707031 119.5 C 94.617188 119.976562 94.347656 120.386719 94.175781 120.835938 C 93.65625 122.273438 94.386719 123.984375 95.546875 125.09375 C 96.703125 126.199219 98.222656 126.828125 99.699219 127.441406 C 99.359375 128.597656 100.019531 129.929688 101.027344 130.679688 C 102.035156 131.425781 103.3125 131.699219 104.53125 131.726562 C 104.789062 131.734375 105.039062 131.726562 105.300781 131.726562 C 105.1875 131.636719 105.203125 131.652344 105.328125 131.746094 C 109.871094 131.65625 114.003906 128.976562 116.640625 125.402344 C 119.414062 121.625 120.753906 116.960938 121.660156 112.304688 C 122.410156 108.46875 123.339844 103.984375 126.941406 102.464844 C 128.03125 102.007812 129.238281 101.894531 130.378906 101.558594 C 134.699219 100.269531 137.65625 93.734375 132.5625 91.015625 " fill-opacity="1" fill-rule="nonzero"/><path fill="#7599d6" d="M 151.59375 256.886719 C 151.472656 256.886719 151.371094 256.789062 151.367188 256.667969 C 151.363281 256.542969 151.460938 256.4375 151.585938 256.433594 C 151.667969 256.433594 159.691406 256.140625 163.195312 251.648438 C 164.742188 249.671875 165.195312 247.148438 164.539062 244.152344 C 164.515625 244.027344 164.589844 243.910156 164.714844 243.882812 C 164.839844 243.855469 164.957031 243.933594 164.980469 244.054688 C 165.664062 247.1875 165.183594 249.839844 163.550781 251.929688 C 159.914062 256.585938 151.9375 256.875 151.601562 256.886719 C 151.597656 256.886719 151.59375 256.886719 151.59375 256.886719 " fill-opacity="1" fill-rule="nonzero"/><path fill="#432a4a" d="M 248.023438 219.585938 C 247.773438 214.074219 241.4375 209.65625 233.636719 209.65625 C 225.851562 209.65625 219.511719 214.070312 219.25 219.585938 L 248.023438 219.585938 " fill-opacity="1" fill-rule="nonzero"/><path fill="#f8a49e" d="M 216.117188 219.398438 C 216.117188 219.398438 219.769531 220.167969 223.375 218.238281 C 224.933594 217.398438 229.90625 215.492188 229.90625 215.492188 L 237.433594 205.792969 C 235.953125 203.5625 233.070312 202.503906 230.363281 203.214844 L 223.246094 205.0625 C 221.328125 205.5625 219.351562 205.769531 217.386719 205.679688 L 215.148438 205.511719 C 218.972656 211.347656 216.117188 219.398438 216.117188 219.398438 " fill-opacity="1" fill-rule="nonzero"/><path fill="#f8a49e" d="M 233.796875 211.027344 L 236.304688 207.070312 L 237.3125 207.480469 L 247.914062 213.40625 C 248.496094 213.722656 248.59375 214.464844 248.125 214.902344 L 247.644531 215.363281 C 246.9375 216.03125 245.507812 216.3125 244.601562 215.902344 L 233.796875 211.027344 " fill-opacity="1" fill-rule="nonzero"/><path fill="#f8a49e" d="M 234.085938 210.675781 L 241.835938 216.519531 C 242.183594 216.78125 242.210938 217.269531 241.90625 217.566406 C 241.195312 218.257812 239.949219 218.46875 239.058594 217.988281 L 231.730469 213.921875 L 234.085938 210.675781 " fill-opacity="1" fill-rule="nonzero"/><path fill="#f8a49e" d="M 236.511719 208.039062 L 236.183594 208.617188 L 236.175781 208.617188 Z M 236.511719 208.039062 " fill-opacity="1" fill-rule="nonzero"/><path fill="#f8a49e" d="M 248.34375 209.027344 C 249.144531 209.40625 249.292969 210.40625 248.632812 210.96875 L 248.574219 211.015625 C 247.695312 211.765625 246.417969 211.976562 245.308594 211.546875 L 236.183594 208.617188 L 236.511719 208.042969 L 236.183594 208.617188 L 231.363281 217.089844 C 231.363281 217.089844 230.265625 216.332031 229.144531 215.445312 L 234.40625 203.476562 L 248.34375 209.027344 " fill-opacity="1" fill-rule="nonzero"/><path fill="#f8a49e" d="M 231.871094 213.824219 L 236.113281 217.199219 C 236.664062 217.660156 236.472656 218.550781 235.84375 218.898438 C 235.234375 219.238281 234.464844 219.207031 233.886719 218.820312 L 228.707031 215.304688 L 228.976562 214.632812 L 231.871094 213.824219 " fill-opacity="1" fill-rule="nonzero"/><path fill="#f25126" d="M 147.351562 150.398438 C 144.15625 145.113281 139.921875 140.476562 134.949219 136.820312 C 132.316406 134.882812 129.339844 133.175781 126.074219 132.925781 C 120.414062 132.496094 115.003906 137 113.796875 142.554688 C 112.585938 148.097656 115.28125 154.113281 119.867188 157.46875 C 124.449219 160.816406 130.597656 161.636719 136.109375 160.277344 L 147.351562 150.398438 " fill-opacity="1" fill-rule="nonzero"/><path fill="#f4c338" d="M 103.570312 245.382812 L 152.480469 245.382812 C 159.570312 245.382812 164.832031 234.34375 163.273438 222.734375 L 146.589844 163.921875 C 145.453125 155.441406 140.972656 149.410156 135.800781 149.410156 L 103.5 149.410156 C 98.429688 149.410156 93.996094 155.210938 92.769531 163.484375 L 92.828125 222.292969 C 91.101562 234.023438 96.375 245.382812 103.570312 245.382812 " fill-opacity="1" fill-rule="nonzero"/><path fill="#f8a03a" d="M 96.5625 245.382812 L 145.472656 245.382812 C 152.5625 245.382812 157.824219 234.34375 156.265625 222.734375 L 139.582031 163.921875 C 138.445312 155.441406 133.960938 149.410156 128.789062 149.410156 L 96.492188 149.410156 C 91.421875 149.410156 87 155.210938 85.761719 163.484375 L 85.820312 222.292969 C 84.082031 234.023438 89.363281 245.382812 96.5625 245.382812 " fill-opacity="1" fill-rule="nonzero"/><path fill="#553f5d" d="M 116.390625 281.074219 L 126.875 279.496094 L 114.394531 196.679688 C 113.957031 193.78125 111.257812 191.785156 108.363281 192.226562 C 105.46875 192.664062 103.472656 195.363281 103.910156 198.261719 L 116.390625 281.074219 " fill-opacity="1" fill-rule="nonzero"/><path fill="#755e80" d="M 108.898438 199.71875 C 113.136719 198.988281 117.285156 202.53125 118.164062 207.632812 C 119.042969 212.730469 116.320312 217.457031 112.082031 218.1875 C 107.84375 218.917969 103.695312 215.378906 102.816406 210.277344 C 101.9375 205.175781 104.660156 200.449219 108.898438 199.71875 " fill-opacity="1" fill-rule="nonzero"/><path fill="#553f5d" d="M 110.140625 201.207031 C 109.863281 201.207031 109.582031 201.226562 109.300781 201.277344 C 106.039062 201.835938 103.949219 205.550781 104.640625 209.570312 C 105.269531 213.246094 108.003906 215.890625 110.96875 215.890625 C 111.25 215.890625 111.527344 215.871094 111.808594 215.820312 C 115.074219 215.261719 117.160156 211.546875 116.46875 207.53125 C 115.839844 203.863281 113.105469 201.207031 110.140625 201.207031 Z M 110.140625 201.726562 C 112.875 201.726562 115.382812 204.261719 115.960938 207.621094 C 116.269531 209.449219 115.992188 211.253906 115.171875 212.726562 C 114.375 214.15625 113.144531 215.070312 111.71875 215.324219 C 111.46875 215.363281 111.21875 215.394531 110.96875 215.394531 C 108.234375 215.394531 105.726562 212.855469 105.148438 209.488281 C 104.839844 207.660156 105.109375 205.851562 105.9375 204.382812 C 106.734375 202.953125 107.964844 202.035156 109.390625 201.785156 C 109.640625 201.746094 109.890625 201.726562 110.140625 201.726562 " fill-opacity="1" fill-rule="nonzero"/><path fill="#755e80" d="M 105.707031 284.300781 L 114.863281 270.21875 C 115.234375 269.660156 115.929688 269.308594 116.691406 269.308594 L 124.976562 269.308594 C 125.933594 269.308594 126.8125 269.789062 127.203125 270.539062 L 134.359375 284.304688 L 105.707031 284.304688 L 105.707031 284.300781 " fill-opacity="1" fill-rule="nonzero"/><path fill="#553f5d" d="M 105.890625 284.488281 L 105.527344 284.117188 L 114.601562 275.207031 C 115.167969 274.640625 116 274.3125 116.878906 274.3125 L 124.167969 274.3125 C 125.109375 274.3125 125.984375 274.679688 126.566406 275.316406 L 134.542969 284.128906 L 134.160156 284.476562 L 126.183594 275.664062 C 125.699219 275.136719 124.964844 274.832031 124.167969 274.832031 L 116.878906 274.832031 C 116.136719 274.832031 115.4375 275.101562 114.964844 275.574219 L 105.890625 284.488281 " fill-opacity="1" fill-rule="nonzero"/><path fill="#605668" d="M 206.804688 388.339844 C 206.546875 388.339844 206.3125 388.164062 206.25 387.902344 L 184.707031 299.003906 C 184.632812 298.699219 184.820312 298.390625 185.125 298.316406 C 185.425781 298.242188 185.738281 298.425781 185.8125 298.734375 L 207.355469 387.632812 C 207.429688 387.941406 207.242188 388.246094 206.9375 388.320312 C 206.890625 388.332031 206.847656 388.339844 206.804688 388.339844 " fill-opacity="1" fill-rule="nonzero"/><path fill="#605668" d="M 75.925781 387.796875 C 75.882812 387.796875 75.832031 387.792969 75.785156 387.78125 C 75.480469 387.703125 75.296875 387.394531 75.375 387.089844 L 97.390625 300.714844 C 97.46875 300.410156 97.78125 300.230469 98.082031 300.304688 C 98.386719 300.382812 98.570312 300.691406 98.492188 300.996094 L 76.480469 387.371094 C 76.414062 387.628906 76.183594 387.796875 75.925781 387.796875 " fill-opacity="1" fill-rule="nonzero"/><path fill="#605668" d="M 187.574219 309.894531 L 95.804688 309.894531 C 95.492188 309.894531 95.234375 309.640625 95.234375 309.328125 C 95.234375 309.011719 95.492188 308.757812 95.804688 308.757812 L 187.574219 308.757812 C 187.890625 308.757812 188.140625 309.011719 188.140625 309.328125 C 188.140625 309.640625 187.890625 309.894531 187.574219 309.894531 " fill-opacity="1" fill-rule="nonzero"/><path fill="#f4c338" d="M 93.796875 297.5 C 90.253906 297.5 87.757812 294.921875 89.054688 292.523438 C 92.089844 286.929688 99.308594 282.960938 107.675781 282.960938 L 177.320312 282.960938 C 185.855469 282.960938 193.195312 287.089844 196.121094 292.863281 C 197.257812 295.113281 195.011719 297.488281 191.707031 297.488281 L 93.796875 297.488281 L 93.796875 297.5 " fill-opacity="1" fill-rule="nonzero"/><path fill="#553f5d" d="M 188.960938 297.53125 C 186.695312 299.757812 183 301.226562 178.808594 301.226562 L 103.441406 301.226562 C 99.25 301.226562 95.554688 299.769531 93.289062 297.53125 L 188.960938 297.53125 " fill-opacity="1" fill-rule="nonzero"/><path fill="#f8a03a" d="M 91.582031 297.5 C 88.945312 297.5 87.097656 294.921875 88.066406 292.523438 C 90.324219 286.929688 95.675781 282.960938 101.875 282.960938 L 153.511719 282.960938 C 159.839844 282.960938 165.28125 287.089844 167.449219 292.863281 C 168.285156 295.113281 166.617188 297.488281 164.171875 297.488281 L 91.582031 297.488281 L 91.582031 297.5 " fill-opacity="1" fill-rule="nonzero"/><path fill="#f25126" d="M 213.730469 204.496094 C 216.546875 208.027344 217.394531 213.042969 215.917969 217.3125 C 215.679688 218.011719 215.398438 218.878906 215.90625 219.429688 C 222.117188 220.289062 222.695312 215.152344 222.25 210.4375 C 222.1875 207.679688 220.609375 205.480469 218.035156 204.523438 C 217.074219 203.945312 214.417969 203.414062 213.730469 204.496094 " fill-opacity="1" fill-rule="nonzero"/><path fill="#cd3f21" d="M 216.023438 219.214844 C 217.984375 219.472656 219.492188 219.113281 220.492188 218.15625 C 221.886719 216.816406 222.386719 214.296875 222.023438 210.457031 C 221.964844 207.796875 220.445312 205.664062 217.957031 204.734375 C 217 204.164062 214.730469 203.757812 214.019531 204.496094 C 216.78125 208.066406 217.613281 213.105469 216.128906 217.382812 C 215.886719 218.101562 215.691406 218.78125 216.023438 219.214844 Z M 217.195312 219.746094 C 216.78125 219.746094 216.339844 219.714844 215.878906 219.652344 L 215.796875 219.640625 L 215.742188 219.582031 C 215.128906 218.917969 215.476562 217.90625 215.703125 217.238281 C 217.15625 213.046875 216.3125 208.097656 213.554688 204.632812 L 213.457031 204.507812 L 213.539062 204.371094 C 214.335938 203.121094 217.167969 203.738281 218.152344 204.332031 C 220.78125 205.304688 222.410156 207.59375 222.472656 210.433594 C 222.851562 214.402344 222.304688 217.042969 220.804688 218.480469 C 219.925781 219.324219 218.714844 219.746094 217.195312 219.746094 " fill-opacity="1" fill-rule="nonzero"/><path fill="#f25126" d="M 167.175781 166.980469 C 166.257812 166.082031 164.863281 165.894531 163.742188 166.511719 C 162.464844 167.230469 161.238281 168.039062 160.21875 169.089844 C 158.710938 170.636719 157.722656 172.855469 158.171875 174.972656 C 158.480469 176.421875 159.410156 177.660156 160.308594 178.828125 C 162.59375 181.808594 164.882812 184.785156 167.167969 187.761719 C 167.648438 188.390625 168.15625 189.027344 168.855469 189.390625 C 170.703125 190.328125 172.839844 188.929688 174.425781 187.601562 C 176.183594 186.132812 178.097656 184.355469 178.058594 182.066406 C 178.039062 180.449219 177.019531 179.03125 176.042969 177.742188 C 173.117188 173.832031 170.183594 169.9375 167.175781 166.980469 " fill-opacity="1" fill-rule="nonzero"/><path fill="#c93e21" d="M 165.136719 166.378906 C 164.695312 166.378906 164.253906 166.488281 163.851562 166.710938 C 162.316406 167.574219 161.246094 168.359375 160.378906 169.246094 C 158.765625 170.90625 158.003906 173.082031 158.394531 174.925781 C 158.703125 176.367188 159.691406 177.65625 160.488281 178.691406 L 167.347656 187.625 C 167.851562 188.285156 168.320312 188.859375 168.957031 189.1875 C 170.324219 189.882812 172.015625 189.324219 174.28125 187.429688 C 176.023438 185.972656 177.871094 184.242188 177.835938 182.070312 C 177.816406 180.570312 176.890625 179.230469 175.863281 177.878906 C 173.152344 174.257812 170.082031 170.15625 167.019531 167.140625 C 166.507812 166.640625 165.824219 166.378906 165.136719 166.378906 Z M 170.160156 189.925781 C 169.6875 189.925781 169.214844 189.824219 168.753906 189.589844 C 168.03125 189.21875 167.507812 188.578125 166.988281 187.898438 L 160.128906 178.96875 C 159.304688 177.894531 158.28125 176.5625 157.953125 175.019531 C 157.523438 173.003906 158.3125 170.726562 160.058594 168.933594 C 160.953125 168.007812 162.054688 167.203125 163.632812 166.316406 C 164.832031 165.652344 166.355469 165.859375 167.335938 166.820312 C 170.421875 169.855469 173.503906 173.972656 176.226562 177.605469 C 177.300781 179.019531 178.265625 180.429688 178.285156 182.0625 C 178.328125 184.433594 176.390625 186.253906 174.570312 187.773438 C 173.394531 188.761719 171.773438 189.925781 170.160156 189.925781 " fill-opacity="1" fill-rule="nonzero"/><path fill="#f5ae3c" d="M 284.460938 183.640625 C 284.46875 185.625 286.085938 187.234375 288.070312 187.234375 L 321.714844 187.234375 C 323.703125 187.234375 325.324219 185.613281 325.324219 183.621094 L 331.578125 154.136719 C 331.574219 152.179688 329.953125 150.5625 327.964844 150.5625 L 294.320312 150.5625 C 292.328125 150.5625 290.710938 152.179688 290.710938 154.171875 Z M 321.714844 187.585938 L 288.070312 187.585938 C 285.886719 187.585938 284.109375 185.808594 284.109375 183.621094 L 284.117188 183.589844 L 290.363281 154.136719 C 290.359375 151.988281 292.136719 150.210938 294.320312 150.210938 L 327.964844 150.210938 C 330.144531 150.210938 331.921875 151.988281 331.921875 154.171875 L 325.667969 183.660156 C 325.671875 185.808594 323.898438 187.585938 321.714844 187.585938 " fill-opacity="1" fill-rule="nonzero"/><path fill="#f5ae3c" d="M 223.210938 160.578125 C 223.226562 161.113281 223.671875 161.550781 224.21875 161.5625 L 235.09375 161.5625 C 235.648438 161.5625 236.097656 161.109375 236.097656 160.558594 L 238.121094 150.980469 C 238.113281 150.472656 237.664062 150.023438 237.113281 150.023438 L 226.230469 150.023438 C 225.675781 150.023438 225.230469 150.472656 225.230469 151.027344 Z M 235.09375 162.011719 L 224.214844 162.011719 C 223.410156 162 222.761719 161.347656 222.761719 160.558594 L 222.765625 160.511719 L 224.78125 150.980469 C 224.777344 150.226562 225.429688 149.570312 226.230469 149.570312 L 237.113281 149.570312 C 237.914062 149.570312 238.566406 150.226562 238.566406 151.027344 L 236.542969 160.601562 C 236.550781 161.359375 235.898438 162.011719 235.09375 162.011719 " fill-opacity="1" fill-rule="nonzero"/><path fill="#f5ae3c" d="M 260.472656 156.6875 C 260.472656 156.882812 260.554688 157.066406 260.695312 157.207031 C 260.851562 157.363281 261.066406 157.453125 261.289062 157.453125 C 261.292969 157.453125 261.292969 157.453125 261.292969 157.453125 L 268.96875 157.453125 C 269.421875 157.453125 269.792969 157.105469 269.792969 156.679688 L 271.21875 150.390625 C 271.21875 149.964844 270.855469 149.628906 270.398438 149.628906 L 262.722656 149.628906 C 262.269531 149.628906 261.902344 149.972656 261.902344 150.398438 Z M 261.289062 157.527344 C 261.046875 157.527344 260.8125 157.429688 260.640625 157.261719 C 260.484375 157.105469 260.394531 156.898438 260.394531 156.679688 L 260.398438 156.671875 L 261.824219 150.390625 C 261.824219 149.929688 262.226562 149.550781 262.722656 149.550781 L 270.398438 149.550781 C 270.902344 149.550781 271.292969 149.921875 271.292969 150.398438 L 269.867188 156.691406 C 269.867188 157.148438 269.464844 157.527344 268.96875 157.527344 L 261.292969 157.527344 C 261.292969 157.527344 261.292969 157.527344 261.289062 157.527344 " fill-opacity="1" fill-rule="nonzero"/><path fill="#f5ae3c" d="M 260.441406 156.933594 C 260.453125 157.246094 260.730469 157.492188 261.074219 157.492188 L 268.75 157.492188 C 269.097656 157.492188 269.382812 157.234375 269.382812 156.910156 L 270.816406 150.578125 C 270.8125 150.300781 270.53125 150.042969 270.179688 150.042969 L 262.5 150.042969 C 262.152344 150.042969 261.867188 150.304688 261.867188 150.628906 Z M 268.75 157.945312 L 261.074219 157.945312 C 260.476562 157.945312 259.988281 157.480469 259.988281 156.910156 L 259.996094 156.863281 L 261.421875 150.578125 C 261.417969 150.058594 261.902344 149.59375 262.5 149.59375 L 270.179688 149.59375 C 270.777344 149.59375 271.261719 150.058594 271.261719 150.628906 L 269.828125 156.960938 C 269.835938 157.480469 269.347656 157.945312 268.75 157.945312 " fill-opacity="1" fill-rule="nonzero"/><path fill="#f5ae3c" d="M 218.699219 187.210938 C 218.710938 187.375 218.871094 187.511719 219.054688 187.511719 L 224.175781 187.511719 C 224.371094 187.511719 224.527344 187.371094 224.527344 187.191406 L 225.480469 182.835938 C 225.476562 182.710938 225.316406 182.5625 225.121094 182.5625 L 220 182.5625 C 219.800781 182.5625 219.648438 182.703125 219.648438 182.886719 Z M 224.175781 187.964844 L 219.054688 187.964844 C 218.609375 187.964844 218.25 187.617188 218.25 187.191406 L 218.253906 187.140625 L 219.203125 182.835938 C 219.199219 182.449219 219.550781 182.109375 220 182.109375 L 225.121094 182.109375 C 225.566406 182.109375 225.929688 182.457031 225.929688 182.886719 L 224.972656 187.238281 C 224.980469 187.625 224.625 187.964844 224.175781 187.964844 " fill-opacity="1" fill-rule="nonzero"/><path fill="#f5ae3c" d="M 235.390625 184.757812 C 235.402344 186.019531 236.445312 187.042969 237.722656 187.042969 L 260.433594 187.042969 C 261.71875 187.042969 262.765625 186.007812 262.765625 184.734375 L 266.984375 164.9375 C 266.976562 163.707031 265.933594 162.671875 264.648438 162.671875 L 241.933594 162.671875 C 240.648438 162.671875 239.605469 163.707031 239.605469 164.984375 Z M 260.433594 187.496094 L 237.722656 187.496094 C 236.1875 187.496094 234.941406 186.257812 234.941406 184.734375 L 234.945312 184.6875 L 239.160156 164.9375 C 239.152344 163.460938 240.402344 162.21875 241.933594 162.21875 L 264.648438 162.21875 C 266.179688 162.21875 267.429688 163.460938 267.429688 164.984375 L 263.210938 184.78125 C 263.214844 186.257812 261.96875 187.496094 260.433594 187.496094 " fill-opacity="1" fill-rule="nonzero"/><path fill="#f4f4f4" d="M 153.949219 119.917969 C 155.007812 119.917969 155.867188 120.777344 155.867188 121.835938 C 155.867188 122.894531 155.007812 123.753906 153.949219 123.753906 C 152.890625 123.753906 152.03125 122.894531 152.03125 121.835938 C 152.03125 120.777344 152.890625 119.917969 153.949219 119.917969 " fill-opacity="1" fill-rule="nonzero"/><path fill="#f4f4f4" d="M 157.296875 156.660156 C 155.976562 154.222656 155.769531 151.027344 156.675781 147.167969 C 156.957031 145.957031 157.320312 144.75 157.671875 143.582031 C 158.222656 141.75 158.789062 139.855469 159.058594 137.9375 C 159.839844 132.339844 158.015625 126.519531 154.171875 122.378906 L 154.503906 122.070312 C 158.4375 126.3125 160.308594 132.269531 159.503906 138 C 159.234375 139.949219 158.660156 141.863281 158.105469 143.710938 C 157.757812 144.875 157.394531 146.074219 157.113281 147.269531 C 156.234375 151.023438 156.429688 154.105469 157.691406 156.441406 L 157.296875 156.660156 " fill-opacity="1" fill-rule="nonzero"/></svg>