<svg xmlns="http://www.w3.org/2000/svg" xmlns:xlink="http://www.w3.org/1999/xlink" width="793" zoomAndPan="magnify" viewBox="0 0 595.5 842.249979" height="1122" preserveAspectRatio="xMidYMid meet" version="1.0"><defs><clipPath id="9457879c5e"><path d="M 0.015625 0 L 594.984375 0 L 594.984375 841.5 L 0.015625 841.5 Z M 0.015625 0 " clip-rule="nonzero"/></clipPath><clipPath id="4d25f18d08"><path d="M 62.4375 538.425781 L 78.8125 538.425781 L 78.8125 640.335938 L 62.4375 640.335938 Z M 62.4375 538.425781 " clip-rule="nonzero"/></clipPath><clipPath id="bfe18593bc"><path d="M 0.015625 160 L 188 160 L 188 309 L 0.015625 309 Z M 0.015625 160 " clip-rule="nonzero"/></clipPath><clipPath id="db96d04fa7"><path d="M 307.273438 199.519531 L 594.886719 199.519531 L 594.886719 408.460938 L 307.273438 408.460938 Z M 307.273438 199.519531 " clip-rule="nonzero"/></clipPath><clipPath id="7e1ef74253"><path d="M 286 134.535156 L 374 134.535156 L 374 180 L 286 180 Z M 286 134.535156 " clip-rule="nonzero"/></clipPath><clipPath id="bae0effeb9"><path d="M 440.121094 572.765625 L 452.535156 572.765625 L 452.535156 640.335938 L 440.121094 640.335938 Z M 440.121094 572.765625 " clip-rule="nonzero"/></clipPath><clipPath id="1865d3a02f"><path d="M 312.820312 572 L 320.742188 572 L 320.742188 640.335938 L 312.820312 640.335938 Z M 312.820312 572 " clip-rule="nonzero"/></clipPath><clipPath id="a23ece6af7"><path d="M 45.003906 599.179688 L 189.476562 599.179688 L 189.476562 640.335938 L 45.003906 640.335938 Z M 45.003906 599.179688 " clip-rule="nonzero"/></clipPath><clipPath id="f50dcf3887"><path d="M 133.75 602.085938 L 234.375 602.085938 L 234.375 640.335938 L 133.75 640.335938 Z M 133.75 602.085938 " clip-rule="nonzero"/></clipPath><clipPath id="0681fcf2ca"><path d="M 209.019531 617.144531 L 241.507812 617.144531 L 241.507812 640.335938 L 209.019531 640.335938 Z M 209.019531 617.144531 " clip-rule="nonzero"/></clipPath><clipPath id="64955f5f6c"><path d="M 46.589844 516.5 L 81.71875 516.5 L 81.71875 640.335938 L 46.589844 640.335938 Z M 46.589844 516.5 " clip-rule="nonzero"/></clipPath></defs><g clip-path="url(#9457879c5e)"><path fill="#ffffff" d="M 0.015625 0 L 594.984375 0 L 594.984375 841.5 L 0.015625 841.5 Z M 0.015625 0 " fill-opacity="1" fill-rule="nonzero"/><path fill="#ffffff" d="M 0.015625 0 L 594.984375 0 L 594.984375 841.5 L 0.015625 841.5 Z M 0.015625 0 " fill-opacity="1" fill-rule="nonzero"/></g><g clip-path="url(#4d25f18d08)"><path fill="#2e3135" d="M 64.125 640.339844 L 78.585938 539.433594 C 78.644531 539.035156 78.367188 538.660156 77.964844 538.605469 C 77.5625 538.546875 77.195312 538.824219 77.136719 539.226562 L 62.644531 640.339844 L 64.125 640.339844 " fill-opacity="1" fill-rule="nonzero"/></g><g clip-path="url(#bfe18593bc)"><path fill="#fcd8bd" d="M 0.105469 304.730469 L 0.105469 164.527344 C 0.105469 162.371094 1.855469 160.621094 4.011719 160.621094 L 184.324219 160.621094 C 186.167969 160.621094 187.664062 162.117188 187.664062 163.960938 L 187.664062 305.296875 C 187.664062 307.140625 186.167969 308.636719 184.324219 308.636719 L 4.011719 308.636719 C 1.847656 308.636719 0.105469 306.886719 0.105469 304.730469 " fill-opacity="1" fill-rule="nonzero"/></g><path fill="#fcd8bd" d="M 247.945312 181.269531 C 238.652344 181.269531 231.085938 188.832031 231.085938 198.132812 C 231.085938 207.425781 238.652344 214.992188 247.945312 214.992188 C 257.242188 214.992188 264.808594 207.425781 264.808594 198.132812 C 264.808594 188.832031 257.242188 181.269531 247.945312 181.269531 Z M 247.945312 216.75 C 237.683594 216.75 229.332031 208.394531 229.332031 198.132812 C 229.332031 187.863281 237.683594 179.511719 247.945312 179.511719 C 258.210938 179.511719 266.5625 187.863281 266.5625 198.132812 C 266.5625 208.394531 258.210938 216.75 247.945312 216.75 " fill-opacity="1" fill-rule="nonzero"/><path fill="#f9b0a2" d="M 247.945312 246.894531 C 238.652344 246.894531 231.085938 254.457031 231.085938 263.753906 C 231.085938 273.050781 238.652344 280.617188 247.945312 280.617188 C 257.242188 280.617188 264.808594 273.050781 264.808594 263.753906 C 264.808594 254.457031 257.242188 246.894531 247.945312 246.894531 Z M 247.945312 282.375 C 237.683594 282.375 229.332031 274.023438 229.332031 263.753906 C 229.332031 253.488281 237.683594 245.136719 247.945312 245.136719 C 258.210938 245.136719 266.5625 253.488281 266.5625 263.753906 C 266.5625 274.023438 258.210938 282.375 247.945312 282.375 " fill-opacity="1" fill-rule="nonzero"/><path fill="#d8ccea" d="M 247.945312 312.511719 C 238.652344 312.511719 231.085938 320.074219 231.085938 329.371094 C 231.085938 338.671875 238.652344 346.234375 247.945312 346.234375 C 257.242188 346.234375 264.808594 338.671875 264.808594 329.371094 C 264.808594 320.074219 257.242188 312.511719 247.945312 312.511719 Z M 247.945312 347.992188 C 237.683594 347.992188 229.332031 339.640625 229.332031 329.371094 C 229.332031 319.109375 237.683594 310.753906 247.945312 310.753906 C 258.210938 310.753906 266.5625 319.109375 266.5625 329.371094 C 266.5625 339.640625 258.210938 347.992188 247.945312 347.992188 " fill-opacity="1" fill-rule="nonzero"/><path fill="#f4ac79" d="M 39.484375 218.449219 L 49.984375 218.449219 C 50.59375 218.449219 51.097656 219.027344 51.113281 219.738281 C 51.128906 220.449219 50.652344 221.027344 50.042969 221.027344 L 39.542969 221.027344 L 39.484375 218.449219 " fill-opacity="1" fill-rule="nonzero"/><path fill="#f4ac79" d="M 34.847656 218.449219 L 34.90625 221.027344 L 28.394531 221.027344 L 28.335938 218.449219 L 34.847656 218.449219 " fill-opacity="1" fill-rule="nonzero"/><path fill="#f4ac79" d="M 100.84375 218.449219 L 111.175781 218.449219 C 111.785156 218.449219 112.289062 219.027344 112.304688 219.738281 C 112.320312 220.449219 111.84375 221.027344 111.234375 221.027344 L 100.902344 221.027344 L 100.84375 218.449219 " fill-opacity="1" fill-rule="nonzero"/><path fill="#f4ac79" d="M 61.882812 218.449219 L 80.515625 218.449219 L 80.570312 221.035156 L 61.941406 221.035156 C 61.332031 221.035156 60.828125 220.457031 60.8125 219.746094 C 60.792969 219.027344 61.273438 218.449219 61.882812 218.449219 " fill-opacity="1" fill-rule="nonzero"/><path fill="#f4ac79" d="M 124.839844 221.027344 L 160.144531 221.027344 C 160.753906 221.027344 161.238281 220.449219 161.214844 219.738281 C 161.199219 219.027344 160.695312 218.449219 160.085938 218.449219 L 124.78125 218.449219 C 124.171875 218.449219 123.6875 219.027344 123.710938 219.738281 C 123.726562 220.449219 124.230469 221.027344 124.839844 221.027344 " fill-opacity="1" fill-rule="nonzero"/><path fill="#ffffff" d="M 28.5625 228.296875 L 92.140625 228.296875 C 92.75 228.296875 93.253906 228.875 93.269531 229.585938 C 93.285156 230.300781 92.808594 230.878906 92.199219 230.878906 L 28.621094 230.878906 L 28.5625 228.296875 " fill-opacity="1" fill-rule="nonzero"/><path fill="#ffffff" d="M 151.375 228.296875 L 160.316406 228.296875 C 160.921875 228.296875 161.429688 228.875 161.441406 229.585938 C 161.457031 230.300781 160.980469 230.878906 160.375 230.878906 L 151.433594 230.878906 L 151.375 228.296875 " fill-opacity="1" fill-rule="nonzero"/><path fill="#ffffff" d="M 124.980469 228.296875 L 146.738281 228.296875 L 146.796875 230.878906 L 125.039062 230.878906 L 124.980469 228.296875 " fill-opacity="1" fill-rule="nonzero"/><path fill="#ffffff" d="M 104.890625 228.296875 L 117.484375 228.296875 L 117.542969 230.882812 L 104.949219 230.882812 C 104.339844 230.882812 103.835938 230.304688 103.820312 229.59375 C 103.804688 228.882812 104.28125 228.296875 104.890625 228.296875 " fill-opacity="1" fill-rule="nonzero"/><path fill="#f4ac79" d="M 101.292969 237.574219 L 151.734375 237.574219 L 151.800781 240.160156 L 101.351562 240.160156 L 101.292969 237.574219 " fill-opacity="1" fill-rule="nonzero"/><path fill="#ffffff" d="M 39.039062 199.03125 L 49.539062 199.03125 C 50.144531 199.03125 50.652344 199.609375 50.667969 200.320312 C 50.679688 201.039062 50.203125 201.609375 49.597656 201.609375 L 39.097656 201.609375 L 39.039062 199.03125 " fill-opacity="1" fill-rule="nonzero"/><path fill="#ffffff" d="M 34.394531 199.03125 L 34.460938 201.617188 L 27.945312 201.617188 L 27.878906 199.03125 L 34.394531 199.03125 " fill-opacity="1" fill-rule="nonzero"/><path fill="#ffffff" d="M 100.398438 199.03125 L 110.730469 199.03125 C 111.335938 199.03125 111.84375 199.609375 111.855469 200.320312 C 111.871094 201.03125 111.394531 201.609375 110.789062 201.609375 L 100.457031 201.609375 L 100.398438 199.03125 " fill-opacity="1" fill-rule="nonzero"/><path fill="#ffffff" d="M 61.429688 199.03125 L 80.058594 199.03125 L 80.117188 201.617188 L 61.488281 201.617188 C 60.878906 201.617188 60.375 201.039062 60.359375 200.328125 C 60.34375 199.609375 60.820312 199.03125 61.429688 199.03125 " fill-opacity="1" fill-rule="nonzero"/><path fill="#ffffff" d="M 124.386719 201.617188 L 159.691406 201.617188 C 160.300781 201.617188 160.78125 201.039062 160.761719 200.328125 C 160.746094 199.617188 160.242188 199.039062 159.632812 199.039062 L 124.328125 199.039062 C 123.71875 199.039062 123.234375 199.617188 123.257812 200.328125 C 123.269531 201.039062 123.777344 201.617188 124.386719 201.617188 " fill-opacity="1" fill-rule="nonzero"/><path fill="#ffffff" d="M 64.953125 208.878906 L 91.695312 208.878906 C 92.300781 208.878906 92.808594 209.457031 92.824219 210.167969 C 92.835938 210.878906 92.363281 211.460938 91.753906 211.460938 L 65.011719 211.460938 L 64.953125 208.878906 " fill-opacity="1" fill-rule="nonzero"/><path fill="#ffffff" d="M 60.667969 208.878906 L 60.726562 211.464844 L 28.171875 211.464844 L 28.117188 208.878906 L 60.667969 208.878906 " fill-opacity="1" fill-rule="nonzero"/><path fill="#628cd0" d="M 104.441406 208.878906 L 151.074219 208.878906 L 151.132812 211.464844 L 104.5 211.464844 C 103.894531 211.464844 103.386719 210.886719 103.371094 210.175781 C 103.351562 209.457031 103.835938 208.878906 104.441406 208.878906 " fill-opacity="1" fill-rule="nonzero"/><g clip-path="url(#db96d04fa7)"><path fill="#d8ccea" d="M 307.378906 404.386719 L 307.378906 203.441406 C 307.378906 201.289062 309.128906 199.535156 311.285156 199.535156 L 591.546875 199.535156 C 593.390625 199.535156 594.886719 201.03125 594.886719 202.878906 L 594.886719 404.949219 C 594.886719 406.796875 593.390625 408.292969 591.546875 408.292969 L 311.285156 408.292969 C 309.128906 408.292969 307.378906 406.539062 307.378906 404.386719 " fill-opacity="1" fill-rule="nonzero"/></g><path fill="#ffffff" d="M 29.582031 272.042969 L 51.230469 272.042969 C 51.839844 272.042969 52.34375 272.621094 52.359375 273.332031 C 52.371094 274.042969 51.898438 274.621094 51.289062 274.621094 L 29.640625 274.621094 L 29.582031 272.042969 " fill-opacity="1" fill-rule="nonzero"/><path fill="#f57e41" d="M 102.089844 272.042969 L 112.421875 272.042969 C 113.027344 272.042969 113.535156 272.621094 113.550781 273.332031 C 113.5625 274.042969 113.085938 274.621094 112.480469 274.621094 L 102.148438 274.621094 L 102.089844 272.042969 " fill-opacity="1" fill-rule="nonzero"/><path fill="#ffffff" d="M 63.128906 272.042969 L 81.757812 272.042969 L 81.820312 274.628906 L 63.1875 274.628906 C 62.578125 274.628906 62.074219 274.050781 62.058594 273.339844 C 62.035156 272.621094 62.519531 272.042969 63.128906 272.042969 " fill-opacity="1" fill-rule="nonzero"/><path fill="#ffffff" d="M 144.539062 272.042969 L 152.539062 272.042969 L 152.597656 274.628906 L 144.597656 274.628906 L 144.539062 272.042969 " fill-opacity="1" fill-rule="nonzero"/><path fill="#ffffff" d="M 126.019531 272.042969 L 135.625 272.042969 L 135.683594 274.628906 L 126.078125 274.628906 C 125.46875 274.628906 124.964844 274.050781 124.949219 273.339844 C 124.933594 272.621094 125.410156 272.042969 126.019531 272.042969 " fill-opacity="1" fill-rule="nonzero"/><path fill="#f4f1fa" d="M 137.28125 281.890625 L 161.558594 281.890625 C 162.167969 281.890625 162.671875 282.46875 162.6875 283.179688 C 162.703125 283.890625 162.226562 284.472656 161.617188 284.472656 L 137.339844 284.472656 L 137.28125 281.890625 " fill-opacity="1" fill-rule="nonzero"/><path fill="#f4f1fa" d="M 106.136719 281.890625 L 123.367188 281.890625 L 123.425781 284.476562 L 106.195312 284.476562 C 105.585938 284.476562 105.078125 283.898438 105.066406 283.1875 C 105.050781 282.46875 105.527344 281.890625 106.136719 281.890625 " fill-opacity="1" fill-rule="nonzero"/><path fill="#ffffff" d="M 62.734375 255.210938 L 112.027344 255.210938 C 112.632812 255.210938 113.117188 254.632812 113.09375 253.921875 C 113.082031 253.210938 112.574219 252.632812 111.96875 252.632812 L 62.667969 252.632812 C 62.058594 252.632812 61.574219 253.210938 61.597656 253.921875 C 61.617188 254.632812 62.125 255.210938 62.734375 255.210938 " fill-opacity="1" fill-rule="nonzero"/><path fill="#f4ac79" d="M 144.09375 252.625 L 160.886719 252.625 C 161.492188 252.625 162 253.203125 162.015625 253.914062 C 162.027344 254.625 161.550781 255.203125 160.945312 255.203125 L 144.152344 255.203125 L 144.09375 252.625 " fill-opacity="1" fill-rule="nonzero"/><path fill="#f4ac79" d="M 125.570312 252.625 L 135.175781 252.625 L 135.234375 255.210938 L 125.632812 255.210938 C 125.023438 255.210938 124.519531 254.632812 124.503906 253.921875 C 124.480469 253.203125 124.964844 252.625 125.570312 252.625 " fill-opacity="1" fill-rule="nonzero"/><path fill="#f4ac79" d="M 46.570312 262.472656 L 81.53125 262.472656 L 81.589844 265.058594 L 46.636719 265.058594 L 46.570312 262.472656 " fill-opacity="1" fill-rule="nonzero"/><path fill="#ffffff" d="M 42.292969 262.472656 L 42.351562 265.058594 L 29.417969 265.058594 L 29.359375 262.472656 L 42.292969 262.472656 " fill-opacity="1" fill-rule="nonzero"/><path fill="#628cd0" d="M 144.320312 262.472656 L 152.3125 262.472656 L 152.371094 265.058594 L 144.378906 265.058594 L 144.320312 262.472656 " fill-opacity="1" fill-rule="nonzero"/><path fill="#f4ac79" d="M 105.6875 262.472656 L 135.402344 262.472656 L 135.464844 265.058594 L 105.746094 265.058594 C 105.136719 265.058594 104.632812 264.480469 104.617188 263.769531 C 104.597656 263.050781 105.074219 262.472656 105.6875 262.472656 " fill-opacity="1" fill-rule="nonzero"/><path fill="#b6a8db" d="M 361.691406 268.277344 L 377.742188 268.277344 C 378.671875 268.277344 379.449219 268.855469 379.472656 269.566406 C 379.496094 270.277344 378.761719 270.855469 377.832031 270.855469 L 361.777344 270.855469 L 361.691406 268.277344 " fill-opacity="1" fill-rule="nonzero"/><path fill="#d8ccea" d="M 354.601562 268.277344 L 354.695312 270.855469 L 344.738281 270.855469 L 344.640625 268.277344 L 354.601562 268.277344 " fill-opacity="1" fill-rule="nonzero"/><path fill="#b6a8db" d="M 455.5 268.277344 L 471.296875 268.277344 C 472.226562 268.277344 473.003906 268.855469 473.023438 269.566406 C 473.046875 270.277344 472.3125 270.855469 471.382812 270.855469 L 455.585938 270.855469 L 455.5 268.277344 " fill-opacity="1" fill-rule="nonzero"/><path fill="#b6a8db" d="M 395.929688 268.277344 L 424.40625 268.277344 L 424.5 270.863281 L 396.023438 270.863281 C 395.09375 270.863281 394.316406 270.285156 394.292969 269.574219 C 394.265625 268.855469 395 268.277344 395.929688 268.277344 " fill-opacity="1" fill-rule="nonzero"/><path fill="#b6a8db" d="M 492.175781 270.855469 L 546.15625 270.855469 C 547.085938 270.855469 547.820312 270.277344 547.796875 269.566406 C 547.777344 268.855469 547 268.277344 546.070312 268.277344 L 492.085938 268.277344 C 491.15625 268.277344 490.421875 268.855469 490.449219 269.566406 C 490.476562 270.277344 491.246094 270.855469 492.175781 270.855469 " fill-opacity="1" fill-rule="nonzero"/><path fill="#ffffff" d="M 344.992188 278.125 L 442.195312 278.125 C 443.125 278.125 443.902344 278.703125 443.921875 279.414062 C 443.945312 280.125 443.210938 280.707031 442.285156 280.707031 L 345.082031 280.707031 L 344.992188 278.125 " fill-opacity="1" fill-rule="nonzero"/><path fill="#f4f1fa" d="M 532.75 278.125 L 546.421875 278.125 C 547.351562 278.125 548.128906 278.703125 548.152344 279.414062 C 548.171875 280.125 547.441406 280.707031 546.507812 280.707031 L 532.839844 280.707031 L 532.75 278.125 " fill-opacity="1" fill-rule="nonzero"/><path fill="#f4f1fa" d="M 492.390625 278.125 L 525.660156 278.125 L 525.753906 280.707031 L 492.484375 280.707031 L 492.390625 278.125 " fill-opacity="1" fill-rule="nonzero"/><path fill="#f4f1fa" d="M 461.683594 278.125 L 480.9375 278.125 L 481.03125 280.710938 L 461.777344 280.710938 C 460.847656 280.710938 460.070312 280.132812 460.050781 279.421875 C 460.019531 278.699219 460.753906 278.125 461.683594 278.125 " fill-opacity="1" fill-rule="nonzero"/><path fill="#b6a8db" d="M 456.179688 287.402344 L 533.308594 287.402344 L 533.394531 289.988281 L 456.269531 289.988281 L 456.179688 287.402344 " fill-opacity="1" fill-rule="nonzero"/><path fill="#b6a8db" d="M 361 248.859375 L 377.054688 248.859375 C 377.984375 248.859375 378.761719 249.4375 378.785156 250.148438 C 378.804688 250.867188 378.074219 251.4375 377.140625 251.4375 L 361.089844 251.4375 L 361 248.859375 " fill-opacity="1" fill-rule="nonzero"/><path fill="#b6a8db" d="M 353.910156 248.859375 L 354.003906 251.445312 L 344.039062 251.445312 L 343.953125 248.859375 L 353.910156 248.859375 " fill-opacity="1" fill-rule="nonzero"/><path fill="#b6a8db" d="M 454.808594 248.859375 L 470.609375 248.859375 C 471.539062 248.859375 472.3125 249.4375 472.335938 250.148438 C 472.359375 250.859375 471.628906 251.4375 470.695312 251.4375 L 454.898438 251.4375 L 454.808594 248.859375 " fill-opacity="1" fill-rule="nonzero"/><path fill="#b6a8db" d="M 395.238281 248.859375 L 423.714844 248.859375 L 423.8125 251.445312 L 395.335938 251.445312 C 394.402344 251.445312 393.628906 250.867188 393.605469 250.15625 C 393.574219 249.4375 394.308594 248.859375 395.238281 248.859375 " fill-opacity="1" fill-rule="nonzero"/><path fill="#ffffff" d="M 491.488281 251.445312 L 545.46875 251.445312 C 546.402344 251.445312 547.132812 250.867188 547.109375 250.15625 C 547.085938 249.445312 546.3125 248.867188 545.382812 248.867188 L 491.398438 248.867188 C 490.46875 248.867188 489.738281 249.445312 489.757812 250.15625 C 489.785156 250.867188 490.554688 251.445312 491.488281 251.445312 " fill-opacity="1" fill-rule="nonzero"/><path fill="#f4f1fa" d="M 400.617188 258.707031 L 441.5 258.707031 C 442.429688 258.707031 443.207031 259.285156 443.230469 259.996094 C 443.25 260.707031 442.515625 261.289062 441.585938 261.289062 L 400.703125 261.289062 L 400.617188 258.707031 " fill-opacity="1" fill-rule="nonzero"/><path fill="#f4f1fa" d="M 394.074219 258.707031 L 394.167969 261.292969 L 344.394531 261.292969 L 344.304688 258.707031 L 394.074219 258.707031 " fill-opacity="1" fill-rule="nonzero"/><path fill="#628cd0" d="M 460.992188 258.707031 L 532.28125 258.707031 L 532.375 261.292969 L 461.089844 261.292969 C 460.160156 261.292969 459.382812 260.714844 459.359375 260.003906 C 459.332031 259.285156 460.0625 258.707031 460.992188 258.707031 " fill-opacity="1" fill-rule="nonzero"/><path fill="#b6a8db" d="M 346.507812 349.664062 L 376.101562 349.664062 C 376.9375 349.664062 377.625 351.070312 377.648438 352.808594 C 377.667969 354.542969 377.019531 355.953125 376.183594 355.953125 L 346.589844 355.953125 L 346.507812 349.664062 " fill-opacity="1" fill-rule="nonzero"/><path fill="#b6a8db" d="M 392.367188 349.664062 L 417.832031 349.664062 L 417.914062 355.945312 L 392.445312 355.945312 C 391.613281 355.945312 390.921875 354.535156 390.902344 352.800781 C 390.878906 351.070312 391.539062 349.664062 392.367188 349.664062 " fill-opacity="1" fill-rule="nonzero"/><path fill="#b6a8db" d="M 443.636719 302.578125 C 443.636719 302.53125 443.644531 302.496094 443.644531 302.460938 L 391.753906 302.460938 C 390.914062 302.460938 390.265625 303.867188 390.285156 305.605469 C 390.308594 307.339844 390.996094 308.75 391.832031 308.75 L 443.601562 308.75 C 443.601562 306.6875 443.609375 304.628906 443.636719 302.578125 " fill-opacity="1" fill-rule="nonzero"/><path fill="#b6a8db" d="M 369.746094 326.398438 L 417.53125 326.398438 L 417.617188 332.683594 L 369.824219 332.683594 L 369.746094 326.398438 " fill-opacity="1" fill-rule="nonzero"/><path fill="#b6a8db" d="M 363.886719 326.398438 L 363.972656 332.683594 L 346.28125 332.683594 L 346.203125 326.398438 L 363.886719 326.398438 " fill-opacity="1" fill-rule="nonzero"/><path fill="#f9b0a2" d="M 300.960938 164.234375 L 318.480469 164.234375 C 318.96875 164.234375 319.378906 164.855469 319.394531 165.621094 C 319.410156 166.386719 319.019531 167.003906 318.53125 167.003906 L 301.011719 167.003906 L 300.960938 164.234375 " fill-opacity="1" fill-rule="nonzero"/><path fill="#f9b0a2" d="M 328.113281 164.234375 L 343.191406 164.234375 L 343.242188 167.011719 L 328.164062 167.011719 C 327.671875 167.011719 327.265625 166.386719 327.246094 165.625 C 327.226562 164.847656 327.613281 164.234375 328.113281 164.234375 " fill-opacity="1" fill-rule="nonzero"/><path fill="#f9b0a2" d="M 358.464844 143.421875 C 358.464844 143.402344 358.472656 143.386719 358.472656 143.371094 L 327.753906 143.371094 C 327.265625 143.371094 326.875 143.996094 326.890625 144.757812 C 326.902344 145.527344 327.316406 146.140625 327.804688 146.140625 L 358.453125 146.140625 C 358.4375 145.238281 358.445312 144.332031 358.464844 143.421875 " fill-opacity="1" fill-rule="nonzero"/><path fill="#f9b0a2" d="M 314.714844 153.953125 L 343.007812 153.953125 L 343.058594 156.730469 L 314.765625 156.730469 L 314.714844 153.953125 " fill-opacity="1" fill-rule="nonzero"/><path fill="#f9b0a2" d="M 311.246094 153.953125 L 311.300781 156.730469 L 300.832031 156.730469 L 300.777344 153.953125 L 311.246094 153.953125 " fill-opacity="1" fill-rule="nonzero"/><g clip-path="url(#7e1ef74253)"><path fill="#f9b0a2" d="M 293.0625 135.867188 C 290.003906 135.867188 287.515625 138.355469 287.515625 141.414062 L 287.515625 172.230469 C 287.515625 175.277344 290.003906 177.769531 293.066406 177.777344 L 366.367188 177.777344 C 369.425781 177.777344 371.910156 175.289062 371.910156 172.230469 L 371.910156 141.414062 C 371.910156 138.355469 369.425781 135.867188 366.367188 135.867188 Z M 366.367188 179.105469 L 293.0625 179.105469 C 289.269531 179.097656 286.1875 176.011719 286.1875 172.230469 L 286.1875 141.414062 C 286.1875 137.621094 289.269531 134.535156 293.0625 134.535156 L 366.367188 134.535156 C 370.160156 134.535156 373.242188 137.621094 373.242188 141.414062 L 373.242188 172.230469 C 373.242188 176.019531 370.160156 179.105469 366.367188 179.105469 " fill-opacity="1" fill-rule="nonzero"/></g><path fill="#b6a8db" d="M 360.714844 222.382812 C 360.121094 222.382812 359.535156 222.507812 358.984375 222.761719 C 357.996094 223.21875 357.253906 224.027344 356.890625 225.039062 C 356.53125 226.050781 356.59375 227.144531 357.066406 228.125 C 357.542969 229.109375 358.378906 229.851562 359.421875 230.222656 C 360.460938 230.59375 361.582031 230.550781 362.566406 230.089844 C 363.554688 229.636719 364.300781 228.828125 364.660156 227.816406 C 365.023438 226.804688 364.960938 225.707031 364.484375 224.730469 C 364.007812 223.75 363.171875 223.003906 362.132812 222.632812 C 361.671875 222.46875 361.1875 222.382812 360.714844 222.382812 Z M 360.839844 231.496094 C 360.25 231.496094 359.652344 231.394531 359.078125 231.1875 C 357.78125 230.726562 356.742188 229.796875 356.148438 228.570312 C 355.550781 227.34375 355.472656 225.96875 355.925781 224.695312 C 356.382812 223.421875 357.316406 222.40625 358.554688 221.832031 C 359.792969 221.265625 361.179688 221.207031 362.476562 221.667969 C 363.773438 222.132812 364.8125 223.058594 365.40625 224.285156 C 366 225.511719 366.082031 226.890625 365.625 228.164062 C 365.167969 229.4375 364.238281 230.449219 362.996094 231.019531 C 362.3125 231.339844 361.582031 231.496094 360.839844 231.496094 " fill-opacity="1" fill-rule="nonzero"/><path fill="#f4f1fa" d="M 342.949219 225.039062 C 342.203125 227.128906 343.335938 229.457031 345.476562 230.222656 C 346.515625 230.59375 347.636719 230.546875 348.625 230.089844 C 349.617188 229.636719 350.359375 228.828125 350.71875 227.816406 C 351.464844 225.722656 350.332031 223.398438 348.191406 222.632812 C 346.050781 221.867188 343.695312 222.945312 342.949219 225.039062 Z M 346.898438 231.496094 C 346.304688 231.496094 345.710938 231.394531 345.132812 231.1875 C 342.460938 230.230469 341.046875 227.316406 341.984375 224.695312 C 342.921875 222.070312 345.859375 220.710938 348.535156 221.667969 C 351.207031 222.625 352.621094 225.535156 351.683594 228.160156 C 351.226562 229.433594 350.292969 230.449219 349.054688 231.019531 C 348.371094 231.335938 347.636719 231.496094 346.898438 231.496094 " fill-opacity="1" fill-rule="nonzero"/><path fill="#432a4a" d="M 328.691406 225.035156 C 327.941406 227.128906 329.074219 229.453125 331.21875 230.21875 C 332.257812 230.59375 333.378906 230.546875 334.367188 230.089844 C 335.355469 229.632812 336.097656 228.824219 336.460938 227.8125 C 337.207031 225.71875 336.074219 223.394531 333.933594 222.628906 C 331.789062 221.863281 329.4375 222.941406 328.691406 225.035156 Z M 332.636719 231.492188 C 332.046875 231.492188 331.449219 231.390625 330.875 231.183594 C 328.199219 230.230469 326.789062 227.316406 327.726562 224.691406 L 327.726562 224.6875 C 328.664062 222.066406 331.601562 220.707031 334.273438 221.664062 C 336.953125 222.621094 338.363281 225.535156 337.425781 228.15625 C 336.96875 229.429688 336.035156 230.445312 334.796875 231.019531 C 334.113281 231.332031 333.378906 231.492188 332.636719 231.492188 " fill-opacity="1" fill-rule="nonzero"/><path fill="#b6a8db" d="M 563.296875 226.882812 L 365.421875 226.882812 L 365.421875 225.859375 L 563.296875 225.859375 L 563.296875 226.882812 " fill-opacity="1" fill-rule="nonzero"/><path fill="#ffffff" d="M 504.558594 370.769531 L 496.96875 368.304688 L 509.820312 328.714844 L 517.40625 331.175781 L 504.558594 370.769531 " fill-opacity="1" fill-rule="nonzero"/><path fill="#ffffff" d="M 522.894531 370.769531 L 515.308594 368.304688 L 528.167969 328.710938 L 535.75 331.175781 L 522.894531 370.769531 " fill-opacity="1" fill-rule="nonzero"/><path fill="#ffffff" d="M 478.410156 305.097656 C 473.796875 305.097656 470.042969 308.851562 470.042969 313.464844 L 470.042969 381.714844 C 470.042969 386.328125 473.796875 390.082031 478.410156 390.082031 L 556.414062 390.082031 C 561.027344 390.082031 564.78125 386.328125 564.78125 381.714844 L 564.78125 313.464844 C 564.78125 308.851562 561.027344 305.097656 556.414062 305.097656 Z M 556.414062 390.890625 L 478.410156 390.890625 C 473.351562 390.890625 469.238281 386.773438 469.238281 381.714844 L 469.238281 313.464844 C 469.238281 308.40625 473.351562 304.292969 478.410156 304.292969 L 556.414062 304.292969 C 561.472656 304.292969 565.589844 308.40625 565.589844 313.464844 L 565.589844 381.714844 C 565.589844 386.773438 561.472656 390.890625 556.414062 390.890625 " fill-opacity="1" fill-rule="nonzero"/><g clip-path="url(#bae0effeb9)"><path fill="#2e3135" d="M 452.398438 640.339844 L 441.664062 573.464844 C 441.601562 573.0625 441.226562 572.785156 440.824219 572.855469 C 440.425781 572.917969 440.15625 573.292969 440.21875 573.695312 L 450.914062 640.339844 L 452.398438 640.339844 " fill-opacity="1" fill-rule="nonzero"/></g><path fill="#86869e" d="M 308.957031 516.839844 L 337.527344 516.839844 L 337.527344 561.1875 L 308.957031 561.1875 L 308.957031 516.839844 " fill-opacity="1" fill-rule="nonzero"/><path fill="#432a4a" d="M 225.035156 516.945312 C 223.71875 516.945312 222.472656 516.363281 221.617188 515.355469 C 220.757812 514.335938 220.390625 513 220.613281 511.691406 L 241.59375 386.851562 C 242.394531 382.082031 246.238281 379.003906 251.382812 379.003906 L 435.148438 379.121094 C 436.457031 379.121094 437.828125 379.808594 438.800781 380.960938 C 439.675781 381.992188 440.070312 383.203125 439.886719 384.28125 L 418.515625 512.453125 C 418.03125 515.339844 415.941406 517.355469 413.445312 517.355469 L 225.035156 516.945312 " fill-opacity="1" fill-rule="nonzero"/><path fill="#86869e" d="M 251.382812 377.902344 C 245.703125 377.902344 241.398438 381.375 240.511719 386.667969 L 219.527344 511.507812 C 218.957031 514.921875 221.578125 518.035156 225.027344 518.042969 L 413.433594 518.460938 C 413.433594 518.460938 413.433594 518.460938 413.4375 518.460938 C 416.667969 518.460938 419.054688 515.835938 419.59375 512.636719 L 440.960938 384.460938 C 441.484375 381.375 438.453125 378.019531 435.140625 378.019531 L 251.390625 377.902344 C 251.390625 377.902344 251.390625 377.902344 251.382812 377.902344 Z M 251.390625 380.101562 L 435.140625 380.21875 C 436.121094 380.21875 437.199219 380.777344 437.953125 381.671875 C 438.605469 382.441406 438.917969 383.347656 438.792969 384.101562 L 417.425781 512.269531 C 417.101562 514.191406 415.714844 516.253906 413.4375 516.253906 L 225.027344 515.835938 C 224.035156 515.835938 223.09375 515.398438 222.449219 514.636719 C 221.800781 513.867188 221.527344 512.855469 221.6875 511.863281 L 242.671875 387.027344 C 243.382812 382.8125 246.796875 380.09375 251.375 380.09375 L 251.390625 380.09375 L 251.390625 380.101562 " fill-opacity="1" fill-rule="nonzero"/><path fill="#ffffff" d="M 409.949219 403.175781 L 256.132812 403.15625 L 256.132812 402.421875 L 409.949219 402.445312 L 409.949219 403.175781 " fill-opacity="1" fill-rule="nonzero"/><path fill="#d8ccea" d="M 386.257812 425.144531 L 375.484375 425.144531 C 374.867188 425.144531 374.292969 425.53125 374.210938 426.015625 C 374.132812 426.5 374.570312 426.886719 375.199219 426.886719 L 385.972656 426.886719 L 386.257812 425.144531 " fill-opacity="1" fill-rule="nonzero"/><path fill="#d8ccea" d="M 391.019531 425.144531 L 390.734375 426.886719 L 397.414062 426.886719 L 397.699219 425.144531 L 391.019531 425.144531 " fill-opacity="1" fill-rule="nonzero"/><path fill="#d8ccea" d="M 323.292969 425.144531 L 312.691406 425.144531 C 312.070312 425.144531 311.496094 425.53125 311.417969 426.015625 C 311.335938 426.5 311.78125 426.886719 312.402344 426.886719 L 323.007812 426.886719 L 323.292969 425.144531 " fill-opacity="1" fill-rule="nonzero"/><path fill="#d8ccea" d="M 363.273438 425.144531 L 344.160156 425.144531 L 343.875 426.886719 L 362.988281 426.886719 C 363.609375 426.886719 364.179688 426.5 364.265625 426.015625 C 364.34375 425.53125 363.90625 425.144531 363.273438 425.144531 " fill-opacity="1" fill-rule="nonzero"/><path fill="#d8ccea" d="M 298.449219 426.886719 L 262.21875 426.886719 C 261.597656 426.886719 261.148438 426.5 261.230469 426.015625 C 261.308594 425.53125 261.882812 425.144531 262.503906 425.144531 L 298.734375 425.144531 C 299.355469 425.144531 299.804688 425.53125 299.722656 426.015625 C 299.640625 426.5 299.078125 426.886719 298.449219 426.886719 " fill-opacity="1" fill-rule="nonzero"/><path fill="#ffffff" d="M 396.609375 431.789062 L 331.367188 431.789062 C 330.746094 431.789062 330.171875 432.179688 330.089844 432.660156 C 330.011719 433.144531 330.453125 433.535156 331.082031 433.535156 L 396.324219 433.535156 L 396.609375 431.789062 " fill-opacity="1" fill-rule="nonzero"/><path fill="#f4f1fa" d="M 270.585938 431.789062 L 261.414062 431.789062 C 260.789062 431.789062 260.21875 432.179688 260.136719 432.660156 C 260.058594 433.144531 260.496094 433.535156 261.128906 433.535156 L 270.300781 433.535156 L 270.585938 431.789062 " fill-opacity="1" fill-rule="nonzero"/><path fill="#f4f1fa" d="M 297.679688 431.789062 L 275.347656 431.789062 L 275.0625 433.535156 L 297.394531 433.535156 L 297.679688 431.789062 " fill-opacity="1" fill-rule="nonzero"/><path fill="#f4f1fa" d="M 318.289062 431.789062 L 305.367188 431.789062 L 305.078125 433.535156 L 318.003906 433.535156 C 318.625 433.535156 319.195312 433.144531 319.277344 432.660156 C 319.351562 432.1875 318.914062 431.789062 318.289062 431.789062 " fill-opacity="1" fill-rule="nonzero"/><path fill="#d8ccea" d="M 321.175781 438.0625 L 269.414062 438.0625 L 269.128906 439.808594 L 320.890625 439.808594 L 321.175781 438.0625 " fill-opacity="1" fill-rule="nonzero"/><path fill="#f57e41" d="M 344.878906 438.0625 L 342.039062 438.0625 L 341.753906 439.808594 L 344.59375 439.808594 C 345.210938 439.808594 345.785156 439.417969 345.867188 438.933594 C 345.945312 438.453125 345.507812 438.0625 344.878906 438.0625 " fill-opacity="1" fill-rule="nonzero"/><path fill="#d8ccea" d="M 388.402344 412.027344 L 377.632812 412.027344 C 377.007812 412.027344 376.4375 412.417969 376.359375 412.902344 C 376.277344 413.382812 376.714844 413.773438 377.347656 413.773438 L 388.117188 413.773438 L 388.402344 412.027344 " fill-opacity="1" fill-rule="nonzero"/><path fill="#d8ccea" d="M 393.164062 412.027344 L 392.878906 413.773438 L 399.5625 413.773438 L 399.847656 412.027344 L 393.164062 412.027344 " fill-opacity="1" fill-rule="nonzero"/><path fill="#d8ccea" d="M 325.4375 412.027344 L 314.835938 412.027344 C 314.214844 412.027344 313.644531 412.417969 313.5625 412.902344 C 313.480469 413.382812 313.929688 413.773438 314.550781 413.773438 L 325.152344 413.773438 L 325.4375 412.027344 " fill-opacity="1" fill-rule="nonzero"/><path fill="#d8ccea" d="M 365.429688 412.027344 L 346.3125 412.027344 L 346.027344 413.773438 L 365.144531 413.773438 C 365.765625 413.773438 366.335938 413.382812 366.414062 412.902344 C 366.488281 412.425781 366.050781 412.027344 365.429688 412.027344 " fill-opacity="1" fill-rule="nonzero"/><path fill="#ffffff" d="M 300.605469 413.773438 L 264.371094 413.773438 C 263.75 413.773438 263.304688 413.382812 263.382812 412.902344 C 263.464844 412.417969 264.035156 412.027344 264.65625 412.027344 L 300.886719 412.027344 C 301.511719 412.027344 301.957031 412.417969 301.875 412.902344 C 301.796875 413.382812 301.226562 413.773438 300.605469 413.773438 " fill-opacity="1" fill-rule="nonzero"/><path fill="#f4f1fa" d="M 360.960938 418.683594 L 333.519531 418.683594 C 332.898438 418.683594 332.328125 419.070312 332.246094 419.554688 C 332.164062 420.039062 332.605469 420.425781 333.234375 420.425781 L 360.671875 420.425781 L 360.960938 418.683594 " fill-opacity="1" fill-rule="nonzero"/><path fill="#f4f1fa" d="M 365.355469 418.683594 L 365.070312 420.425781 L 398.46875 420.425781 L 398.753906 418.683594 L 365.355469 418.683594 " fill-opacity="1" fill-rule="nonzero"/><path fill="#f57e41" d="M 320.4375 418.683594 L 272.585938 418.683594 L 272.300781 420.425781 L 320.152344 420.425781 C 320.769531 420.425781 321.34375 420.039062 321.421875 419.554688 C 321.507812 419.070312 321.058594 418.683594 320.4375 418.683594 " fill-opacity="1" fill-rule="nonzero"/><path fill="#f57e41" d="M 378.414062 394.183594 C 377.71875 394.625 377.214844 395.265625 376.992188 395.992188 C 376.777344 396.699219 376.859375 397.40625 377.222656 397.972656 C 377.578125 398.542969 378.183594 398.917969 378.910156 399.027344 C 379.667969 399.136719 380.460938 398.957031 381.152344 398.519531 C 381.847656 398.082031 382.351562 397.441406 382.574219 396.710938 C 382.785156 396.003906 382.707031 395.300781 382.34375 394.730469 C 381.589844 393.535156 379.824219 393.289062 378.414062 394.183594 Z M 379.351562 399.792969 C 379.167969 399.792969 378.988281 399.777344 378.804688 399.75 C 377.859375 399.609375 377.074219 399.121094 376.601562 398.367188 C 376.125 397.613281 376.015625 396.695312 376.292969 395.777344 C 376.566406 394.882812 377.179688 394.097656 378.019531 393.566406 C 379.777344 392.453125 381.992188 392.800781 382.964844 394.339844 C 383.441406 395.089844 383.550781 396.007812 383.273438 396.925781 C 383 397.820312 382.386719 398.605469 381.542969 399.136719 C 380.867188 399.566406 380.105469 399.792969 379.351562 399.792969 " fill-opacity="1" fill-rule="nonzero"/><path fill="#d8ccea" d="M 388.199219 394.183594 C 387.507812 394.621094 387.003906 395.265625 386.78125 395.992188 C 386.566406 396.699219 386.648438 397.402344 387.007812 397.972656 C 387.765625 399.167969 389.527344 399.414062 390.941406 398.519531 C 392.355469 397.625 392.890625 395.925781 392.132812 394.730469 C 391.378906 393.535156 389.613281 393.289062 388.199219 394.183594 Z M 389.140625 399.789062 C 388.019531 399.789062 386.976562 399.292969 386.390625 398.363281 C 385.910156 397.613281 385.800781 396.691406 386.082031 395.777344 C 386.355469 394.882812 386.964844 394.097656 387.808594 393.566406 C 389.5625 392.453125 391.78125 392.800781 392.753906 394.335938 C 393.726562 395.875 393.085938 398.027344 391.332031 399.136719 C 390.640625 399.578125 389.871094 399.789062 389.140625 399.789062 " fill-opacity="1" fill-rule="nonzero"/><path fill="#ffffff" d="M 398.207031 394.183594 C 397.515625 394.621094 397.011719 395.265625 396.789062 395.992188 C 396.574219 396.699219 396.65625 397.402344 397.015625 397.972656 C 397.375 398.542969 397.976562 398.917969 398.710938 399.023438 C 399.460938 399.136719 400.257812 398.957031 400.949219 398.519531 C 401.644531 398.082031 402.144531 397.4375 402.367188 396.710938 C 402.585938 396.003906 402.5 395.300781 402.144531 394.730469 C 401.386719 393.535156 399.621094 393.289062 398.207031 394.183594 Z M 399.148438 399.792969 C 398.964844 399.792969 398.785156 399.777344 398.601562 399.75 C 397.65625 399.609375 396.875 399.117188 396.394531 398.363281 C 395.921875 397.613281 395.8125 396.695312 396.089844 395.777344 C 396.359375 394.882812 396.972656 394.097656 397.816406 393.566406 C 399.574219 392.453125 401.789062 392.800781 402.761719 394.335938 C 403.238281 395.089844 403.347656 396.007812 403.070312 396.921875 C 402.796875 397.820312 402.183594 398.605469 401.34375 399.136719 C 400.664062 399.566406 399.902344 399.792969 399.148438 399.792969 " fill-opacity="1" fill-rule="nonzero"/><path fill="#86869e" d="M 318.242188 552.675781 C 360.085938 552.675781 394.007812 556.515625 394.007812 561.253906 C 394.007812 565.992188 360.085938 569.832031 318.242188 569.832031 C 276.402344 569.832031 242.480469 565.992188 242.480469 561.253906 C 242.480469 556.515625 276.402344 552.675781 318.242188 552.675781 " fill-opacity="1" fill-rule="nonzero"/><g clip-path="url(#1865d3a02f)"><path fill="#2e3135" d="M 314.417969 640.339844 L 320.578125 572.816406 C 320.617188 572.414062 320.316406 572.058594 319.917969 572.019531 C 319.503906 571.988281 319.15625 572.28125 319.117188 572.683594 L 312.949219 640.339844 L 314.417969 640.339844 " fill-opacity="1" fill-rule="nonzero"/></g><path fill="#595c6e" d="M 263.515625 562.324219 L 324.003906 548.035156 C 328.289062 547.355469 332.347656 549.902344 332.699219 553.5 L 333.460938 561.246094 L 263.515625 562.324219 " fill-opacity="1" fill-rule="nonzero"/><path fill="#908fa3" d="M 206.917969 545.863281 L 174.804688 557.503906 C 172.71875 558.257812 173.261719 561.347656 175.480469 561.347656 L 273.847656 561.386719 L 325.132812 547.835938 L 247.007812 547.105469 L 206.917969 545.863281 " fill-opacity="1" fill-rule="nonzero"/><g clip-path="url(#a23ece6af7)"><path fill="#feece0" d="M 188.550781 640.339844 C 190.636719 622.851562 190.132812 604.832031 175.371094 603.308594 C 101.972656 595.714844 45.785156 601.351562 45.785156 601.351562 C 45.785156 601.351562 42.441406 622.203125 49.886719 640.339844 L 188.550781 640.339844 " fill-opacity="1" fill-rule="nonzero"/></g><path fill="#7a232b" d="M 412.289062 574.296875 L 19.832031 574.296875 L 19.832031 561.355469 L 412.289062 561.355469 L 412.289062 574.296875 " fill-opacity="1" fill-rule="nonzero"/><path fill="#f25126" d="M 146.863281 562.628906 C 153.582031 532.179688 155.179688 498.757812 141.007812 470.304688 C 133.820312 455.875 120.949219 446.308594 104.96875 443.710938 C 89.503906 441.199219 68.058594 441.996094 46.261719 456.46875 C 33.902344 464.675781 28.378906 480.921875 34.050781 492.246094 C 37.867188 499.863281 41.816406 510.0625 43.96875 522.425781 C 70.878906 548.761719 108.960938 558.980469 146.863281 562.628906 " fill-opacity="1" fill-rule="nonzero"/><path fill="#f25126" d="M 136.796875 611.792969 C 119.558594 620.464844 45.0625 615.316406 45.0625 615.316406 C 39.601562 614.980469 36.664062 594.601562 37.003906 588.335938 C 37.25 583.742188 49.917969 556.617188 43.96875 522.417969 C 70.878906 548.761719 108.960938 558.980469 146.863281 562.628906 C 146.011719 566.480469 145.714844 571.988281 145.550781 575.125 C 144.351562 598.214844 150.476562 604.898438 136.796875 611.792969 " fill-opacity="1" fill-rule="nonzero"/><path fill="#f25126" d="M 173.269531 510.480469 L 135.785156 461.898438 L 114.441406 525.523438 L 139.792969 548.523438 C 159.507812 534.851562 171.75 531.179688 173.269531 510.480469 " fill-opacity="1" fill-rule="nonzero"/><path fill="#f25126" d="M 230.515625 544.414062 C 230.390625 541.5625 228.210938 537.125 221.914062 536.113281 C 215.433594 535.070312 211.996094 536.222656 197.179688 529.964844 C 193.8125 528.542969 188.851562 525.722656 186.265625 523.433594 C 177.511719 515.691406 165.625 502.179688 165.625 502.179688 C 162.996094 521.230469 156.402344 533.511719 143.609375 546.222656 L 149.179688 551.582031 C 155.917969 557.699219 163.960938 561.398438 173.488281 561.4375 L 227.214844 561.144531 C 231.015625 561.144531 231.867188 557.296875 231.996094 553.867188 L 230.515625 544.414062 " fill-opacity="1" fill-rule="nonzero"/><g clip-path="url(#f50dcf3887)"><path fill="#feece0" d="M 213.058594 640.339844 L 234.339844 620.425781 C 227.695312 612.457031 216.640625 605.394531 206.96875 605.191406 L 158.5625 602.265625 L 133.804688 640.339844 L 213.058594 640.339844 " fill-opacity="1" fill-rule="nonzero"/></g><g clip-path="url(#0681fcf2ca)"><path fill="#feece0" d="M 241.285156 640.339844 C 240.605469 630.011719 237.195312 622.410156 231.683594 617.324219 L 209.125 640.339844 L 241.285156 640.339844 " fill-opacity="1" fill-rule="nonzero"/></g><path fill="#f25126" d="M 109.644531 519.75 C 109.644531 519.75 131.84375 541.210938 146.914062 550.914062 C 152.285156 554.371094 155.332031 563.109375 189.269531 560.515625 L 109.644531 519.75 " fill-opacity="1" fill-rule="nonzero"/><path fill="#c93e21" d="M 177.925781 561.347656 C 158.675781 561.347656 153.105469 556.546875 149.226562 553.203125 C 148.367188 552.464844 147.558594 551.765625 146.714844 551.222656 C 131.789062 541.609375 109.613281 520.226562 109.390625 520.015625 L 109.898438 519.484375 C 110.121094 519.699219 132.246094 541.035156 147.113281 550.605469 C 148 551.175781 148.828125 551.890625 149.703125 552.648438 C 154.167969 556.496094 160.917969 562.3125 189.242188 560.148438 L 189.296875 560.878906 C 185.046875 561.203125 181.28125 561.347656 177.925781 561.347656 " fill-opacity="1" fill-rule="nonzero"/><path fill="#f79342" d="M 134.597656 460.996094 C 134.492188 460.996094 134.386719 460.953125 134.3125 460.863281 C 116.039062 438.324219 93.609375 446.585938 93.386719 446.671875 C 93.195312 446.746094 92.984375 446.648438 92.914062 446.460938 C 92.839844 446.269531 92.933594 446.058594 93.125 445.984375 C 93.351562 445.898438 116.277344 437.449219 134.882812 460.402344 C 135.011719 460.558594 134.988281 460.789062 134.828125 460.914062 C 134.761719 460.972656 134.679688 460.996094 134.597656 460.996094 " fill-opacity="1" fill-rule="nonzero"/><path fill="#a33b3f" d="M 449 574.28125 L 311.066406 574.28125 C 311.066406 567.027344 316.941406 561.152344 324.195312 561.152344 L 435.871094 561.152344 C 443.125 561.152344 449 567.027344 449 574.28125 " fill-opacity="1" fill-rule="nonzero"/><path fill="#2e3135" d="M 443.976562 590.46875 L 318.667969 590.46875 C 318.265625 590.46875 317.9375 590.140625 317.9375 589.734375 C 317.9375 589.332031 318.265625 589.003906 318.667969 589.003906 L 443.976562 589.003906 C 444.378906 589.003906 444.707031 589.332031 444.707031 589.734375 C 444.707031 590.140625 444.378906 590.46875 443.976562 590.46875 " fill-opacity="1" fill-rule="nonzero"/><path fill="#f89b2a" d="M 279.320312 515.8125 L 300.207031 515.902344 C 300.207031 515.902344 299.554688 520.375 299.554688 539.109375 L 276.683594 539.109375 C 276.683594 539.117188 274.921875 528.476562 279.320312 515.8125 " fill-opacity="1" fill-rule="nonzero"/><path fill="#6595d5" d="M 358.496094 516.546875 L 373.683594 516.613281 C 373.683594 516.613281 373.207031 519.859375 373.207031 533.488281 L 356.578125 533.488281 C 356.578125 533.488281 355.292969 525.761719 358.496094 516.546875 " fill-opacity="1" fill-rule="nonzero"/><path fill="#f8a49e" d="M 113.019531 440.898438 L 110.332031 454.917969 L 106.96875 456.109375 L 89.3125 448 L 90.300781 441.96875 C 97.695312 440.746094 113.074219 432.386719 113.019531 440.898438 " fill-opacity="1" fill-rule="nonzero"/><path fill="#f8a49e" d="M 91.980469 431.746094 C 94.425781 424.136719 110.855469 426.796875 114.847656 431.382812 L 113.019531 440.898438 C 105.453125 439.851562 97.703125 440.746094 90.300781 441.976562 L 91.109375 437.050781 L 91.980469 431.746094 " fill-opacity="1" fill-rule="nonzero"/><path fill="#f68082" d="M 117.726562 416.183594 L 114.847656 431.386719 C 106.976562 430.839844 99.359375 430.023438 91.980469 431.753906 L 95.476562 410.460938 C 99.5625 418.269531 109.152344 413.582031 117.726562 416.183594 " fill-opacity="1" fill-rule="nonzero"/><path fill="#ffffff" d="M 111.8125 404.386719 C 111.769531 404.472656 111.789062 404.414062 111.804688 404.363281 L 111.8125 404.386719 " fill-opacity="1" fill-rule="nonzero"/><path fill="#f8a49e" d="M 134.8125 368.765625 C 130.363281 368.421875 126.796875 377.917969 118.992188 377.847656 C 112.589844 377.785156 105.503906 380.738281 103.367188 382.09375 C 99.128906 384.777344 95.921875 406.753906 95.589844 407.777344 C 95.589844 407.777344 104.28125 406.195312 105.871094 413.222656 C 108.65625 425.53125 111.125 426.953125 114.171875 429.019531 C 115.320312 429.796875 116.699219 429.828125 118.09375 429.835938 C 122.613281 429.847656 133.585938 422.382812 136.304688 412.4375 C 136.320312 412.386719 136.335938 412.332031 136.34375 412.277344 L 141.777344 386.332031 C 141.894531 385.773438 141.984375 385.210938 142.011719 384.644531 C 142.59375 373.742188 135.660156 368.859375 134.8125 368.765625 " fill-opacity="1" fill-rule="nonzero"/><path fill="#7a232b" d="M 120.882812 368.792969 C 117.777344 367.96875 114.53125 367.566406 111.167969 367.285156 C 113.667969 367.148438 116.222656 367.222656 118.625 367.929688 C 119.390625 368.160156 120.136719 368.445312 120.882812 368.792969 " fill-opacity="1" fill-rule="nonzero"/><path fill="#7a232b" d="M 131.484375 385.371094 C 130.957031 386.050781 130.464844 386.769531 130.027344 387.519531 C 128.847656 389.519531 128.011719 391.71875 127.550781 393.972656 C 126.875 397.257812 127.007812 400.6875 126.121094 403.910156 C 124.214844 410.855469 117.789062 420.550781 110.800781 423.40625 C 108.398438 424.390625 104.648438 423.351562 100.65625 422.625 C 96.15625 421.796875 93.863281 418.535156 91.898438 414.761719 C 71.714844 400.171875 80.5 370.648438 82.886719 365.226562 C 84.433594 361.703125 87.453125 358.03125 90.933594 355.234375 C 93.261719 361.929688 100.875 362.621094 107.109375 362.765625 C 108.640625 362.871094 112.601562 361.984375 114.089844 362.109375 C 117.445312 362.390625 131.179688 367.441406 134.292969 368.269531 C 139.105469 370.476562 136.636719 372.582031 139.90625 376.144531 C 142.710938 379.167969 133.449219 382.863281 131.484375 385.371094 " fill-opacity="1" fill-rule="nonzero"/><path fill="#7a232b" d="M 140.730469 377.414062 C 139.457031 381.382812 134.789062 382.976562 131.660156 385.75 C 131.046875 386.308594 130.496094 386.894531 130.027344 387.527344 C 130.464844 386.777344 130.957031 386.058594 131.484375 385.378906 C 133.449219 382.871094 136.371094 382.058594 133.574219 379.023438 C 130.296875 375.464844 125.695312 371.007812 120.882812 368.8125 C 125.410156 370.011719 129.636719 372.144531 133.441406 376.136719 C 135.390625 378.308594 138.113281 378.476562 140.730469 377.414062 " fill-opacity="1" fill-rule="nonzero"/><path fill="#963537" d="M 133.703125 362.691406 C 129.257812 358.851562 128.589844 349.394531 110.4375 349.78125 C 96.433594 350.082031 93.773438 352.941406 90.941406 355.226562 C 93.261719 361.914062 100.421875 366.804688 106.640625 366.949219 C 116.628906 367.636719 125.871094 368.167969 133.441406 376.117188 C 135.398438 378.308594 138.113281 378.46875 140.730469 377.40625 C 140.730469 377.398438 140.738281 377.390625 140.738281 377.382812 C 141.222656 370.949219 140.414062 368.488281 133.703125 362.691406 " fill-opacity="1" fill-rule="nonzero"/><path fill="#f8a49e" d="M 128.488281 405.476562 C 131.871094 410.371094 128.101562 414.628906 124.539062 413.839844 C 120.976562 413.046875 118.144531 407.941406 118.207031 402.429688 C 118.273438 396.917969 122.230469 393.035156 127.265625 393.847656 C 130.867188 394.433594 125.359375 400.949219 128.488281 405.476562 " fill-opacity="1" fill-rule="nonzero"/><path fill="#f68082" d="M 127.566406 412.273438 C 127.546875 412.273438 127.527344 412.269531 127.511719 412.265625 C 127.382812 412.234375 127.304688 412.109375 127.335938 411.984375 C 127.480469 411.355469 127.625 410.621094 127.574219 409.929688 C 127.519531 409.214844 127.265625 408.617188 126.875 408.296875 C 126.5 407.988281 125.964844 407.894531 125.234375 408.011719 C 125.015625 408.046875 124.796875 408.0625 124.578125 408.078125 C 124.15625 408.113281 123.761719 408.144531 123.382812 408.300781 C 123.292969 408.339844 123.1875 408.316406 123.121094 408.246094 C 123.085938 408.207031 119.582031 404.359375 121.863281 399.476562 C 121.917969 399.359375 122.058594 399.308594 122.175781 399.363281 C 122.292969 399.421875 122.34375 399.5625 122.289062 399.675781 C 120.359375 403.804688 122.824219 407.148438 123.367188 407.808594 C 123.757812 407.675781 124.15625 407.644531 124.539062 407.613281 C 124.746094 407.597656 124.957031 407.582031 125.160156 407.546875 C 126.03125 407.40625 126.6875 407.53125 127.171875 407.933594 C 127.664062 408.335938 127.980469 409.050781 128.039062 409.894531 C 128.097656 410.648438 127.945312 411.425781 127.792969 412.089844 C 127.769531 412.199219 127.671875 412.273438 127.566406 412.273438 " fill-opacity="1" fill-rule="nonzero"/><path fill="#7a232b" d="M 93.488281 352.765625 C 86.910156 349.253906 75.269531 349.3125 69.195312 352.902344 C 63.972656 355.996094 61.027344 361.957031 55.675781 364.839844 C 54.683594 365.375 53.605469 365.792969 52.496094 366.144531 C 46.664062 368.003906 39.734375 367.96875 36.121094 372.671875 C 35.199219 373.875 34.585938 375.371094 34.707031 376.914062 C 34.839844 378.503906 35.734375 380.015625 35.726562 381.597656 C 35.707031 385.914062 29.304688 388.15625 29.851562 392.472656 C 30.144531 394.757812 32.4375 396.757812 32.035156 398.992188 C 31.894531 399.761719 31.441406 400.429688 31.175781 401.160156 C 30.328125 403.5 31.507812 406.269531 33.390625 408.0625 C 35.273438 409.859375 37.734375 410.886719 40.128906 411.875 C 39.582031 413.75 40.644531 415.90625 42.285156 417.117188 C 43.925781 418.335938 46.011719 418.769531 48.007812 418.859375 C 48.421875 418.875 48.839844 418.875 49.257812 418.863281 C 49.261719 418.867188 49.261719 418.871094 49.265625 418.875 C 56.636719 418.71875 63.355469 414.371094 67.632812 408.566406 C 72.15625 402.445312 74.324219 394.867188 75.796875 387.320312 C 77.011719 381.09375 78.515625 373.808594 84.367188 371.34375 C 86.132812 370.597656 88.105469 370.414062 89.941406 369.863281 C 96.960938 367.777344 101.746094 357.167969 93.488281 352.765625 " fill-opacity="1" fill-rule="nonzero"/><path fill="#fbcbae" d="M 124.40625 621.949219 C 124.210938 621.949219 124.046875 621.789062 124.039062 621.589844 C 124.035156 621.386719 124.195312 621.222656 124.398438 621.214844 C 124.527344 621.210938 137.554688 620.742188 143.242188 613.457031 C 145.753906 610.242188 146.488281 606.148438 145.429688 601.28125 C 145.386719 601.082031 145.507812 600.886719 145.707031 600.84375 C 145.902344 600.800781 146.101562 600.925781 146.144531 601.125 C 147.253906 606.214844 146.472656 610.515625 143.820312 613.910156 C 137.914062 621.464844 124.964844 621.933594 124.417969 621.949219 C 124.414062 621.949219 124.410156 621.949219 124.40625 621.949219 " fill-opacity="1" fill-rule="nonzero"/><path fill="#432a4a" d="M 280.984375 561.421875 C 280.574219 552.46875 270.277344 545.300781 257.632812 545.300781 C 244.988281 545.300781 234.691406 552.46875 234.28125 561.421875 L 280.984375 561.421875 " fill-opacity="1" fill-rule="nonzero"/><path fill="#f8a49e" d="M 229.167969 561.105469 C 229.167969 561.105469 235.105469 562.359375 240.949219 559.230469 C 243.484375 557.875 251.550781 554.777344 251.550781 554.777344 L 263.777344 539.042969 C 261.390625 535.425781 256.703125 533.714844 252.296875 534.859375 L 240.738281 537.859375 C 237.628906 538.664062 234.421875 539 231.210938 538.867188 L 227.585938 538.582031 C 233.796875 548.050781 229.167969 561.105469 229.167969 561.105469 " fill-opacity="1" fill-rule="nonzero"/><path fill="#f8a49e" d="M 257.875 547.527344 L 261.933594 541.109375 L 263.566406 541.769531 L 280.792969 551.382812 C 281.722656 551.902344 281.890625 553.097656 281.121094 553.824219 L 280.335938 554.5625 C 279.179688 555.652344 276.878906 556.101562 275.390625 555.433594 L 257.875 547.527344 " fill-opacity="1" fill-rule="nonzero"/><path fill="#f8a49e" d="M 258.351562 546.949219 L 270.929688 556.433594 C 271.5 556.855469 271.554688 557.648438 271.046875 558.140625 C 269.898438 559.261719 267.867188 559.605469 266.425781 558.820312 L 254.527344 552.226562 L 258.351562 546.949219 " fill-opacity="1" fill-rule="nonzero"/><path fill="#f8a49e" d="M 262.285156 542.6875 L 261.75 543.625 L 261.742188 543.625 Z M 262.285156 542.6875 " fill-opacity="1" fill-rule="nonzero"/><path fill="#f8a49e" d="M 281.503906 544.273438 C 282.800781 544.882812 283.039062 546.515625 281.964844 547.425781 L 281.863281 547.515625 C 280.425781 548.730469 278.359375 549.066406 276.5625 548.371094 L 261.742188 543.625 L 262.277344 542.6875 L 261.734375 543.625 L 261.742188 543.625 L 253.917969 557.371094 C 253.917969 557.371094 252.136719 556.140625 250.320312 554.6875 L 258.863281 535.269531 L 281.503906 544.273438 " fill-opacity="1" fill-rule="nonzero"/><path fill="#f8a49e" d="M 254.746094 552.0625 L 261.632812 557.546875 C 262.527344 558.285156 262.21875 559.730469 261.195312 560.300781 C 260.203125 560.851562 258.957031 560.800781 258.019531 560.167969 L 249.601562 554.460938 L 250.035156 553.378906 L 254.746094 552.0625 " fill-opacity="1" fill-rule="nonzero"/><path fill="#f25126" d="M 117.507812 449.128906 C 112.324219 440.5625 105.4375 433.019531 97.367188 427.09375 C 93.085938 423.949219 88.257812 421.179688 82.960938 420.777344 C 73.773438 420.082031 64.980469 427.402344 63.027344 436.398438 C 61.070312 445.40625 65.445312 455.164062 72.878906 460.605469 C 80.316406 466.039062 90.308594 467.375 99.253906 465.167969 L 117.507812 449.128906 " fill-opacity="1" fill-rule="nonzero"/><path fill="#f4c338" d="M 46.429688 603.285156 L 125.859375 603.285156 C 137.367188 603.285156 145.902344 585.375 143.382812 566.519531 L 116.296875 471.074219 C 114.457031 457.304688 107.175781 447.523438 98.773438 447.523438 L 46.335938 447.523438 C 38.09375 447.523438 30.914062 456.9375 28.914062 470.359375 L 29.015625 565.8125 C 26.171875 584.839844 34.746094 603.285156 46.429688 603.285156 " fill-opacity="1" fill-rule="nonzero"/><path fill="#f8a03a" d="M 35.046875 603.285156 L 114.472656 603.285156 C 125.984375 603.285156 134.519531 585.375 131.996094 566.519531 L 104.910156 471.074219 C 103.074219 457.304688 95.789062 447.523438 87.386719 447.523438 L 34.949219 447.523438 C 26.707031 447.523438 19.527344 456.9375 17.527344 470.359375 L 17.632812 565.8125 C 14.789062 584.839844 23.359375 603.285156 35.046875 603.285156 " fill-opacity="1" fill-rule="nonzero"/><g clip-path="url(#64955f5f6c)"><path fill="#553f5d" d="M 64.097656 640.339844 L 81.515625 640.339844 L 63.746094 522.527344 C 63.171875 518.761719 59.65625 516.160156 55.890625 516.730469 L 52.511719 517.242188 C 48.746094 517.816406 46.144531 521.332031 46.71875 525.097656 L 64.097656 640.339844 " fill-opacity="1" fill-rule="nonzero"/></g><path fill="#755e80" d="M 55.226562 528.460938 C 62.105469 527.277344 68.835938 533.027344 70.261719 541.300781 C 71.6875 549.574219 67.265625 557.246094 60.390625 558.429688 C 53.507812 559.617188 46.777344 553.867188 45.351562 545.59375 C 43.925781 537.320312 48.347656 529.648438 55.226562 528.460938 " fill-opacity="1" fill-rule="nonzero"/><path fill="#553f5d" d="M 57.097656 531.601562 C 56.644531 531.601562 56.191406 531.632812 55.734375 531.714844 C 50.429688 532.632812 47.046875 538.65625 48.167969 545.175781 C 49.191406 551.132812 53.632812 555.441406 58.4375 555.441406 C 58.894531 555.441406 59.347656 555.40625 59.800781 555.328125 C 65.105469 554.410156 68.492188 548.386719 67.371094 541.863281 C 66.34375 535.90625 61.90625 531.601562 57.097656 531.601562 Z M 57.097656 532.433594 C 61.546875 532.433594 65.605469 536.554688 66.542969 542.003906 C 67.054688 544.972656 66.601562 547.910156 65.261719 550.285156 C 63.957031 552.601562 61.964844 554.101562 59.65625 554.496094 C 59.253906 554.5625 58.84375 554.601562 58.433594 554.601562 C 53.984375 554.601562 49.925781 550.480469 48.988281 545.03125 C 48.476562 542.0625 48.929688 539.125 50.269531 536.75 C 51.574219 534.433594 53.566406 532.929688 55.875 532.539062 C 56.277344 532.472656 56.6875 532.433594 57.097656 532.433594 " fill-opacity="1" fill-rule="nonzero"/><path fill="#f25126" d="M 225.292969 536.914062 C 229.859375 542.65625 231.25 550.785156 228.847656 557.722656 C 228.453125 558.863281 228.011719 560.269531 228.832031 561.152344 C 238.921875 562.542969 239.859375 554.210938 239.132812 546.570312 C 239.039062 542.09375 236.480469 538.53125 232.289062 536.96875 C 230.722656 536.03125 226.421875 535.175781 225.292969 536.914062 " fill-opacity="1" fill-rule="nonzero"/><path fill="#cd3f21" d="M 229.019531 560.808594 C 232.210938 561.222656 234.652344 560.640625 236.28125 559.082031 C 238.542969 556.910156 239.359375 552.832031 238.769531 546.605469 C 238.675781 542.28125 236.207031 538.820312 232.164062 537.3125 C 230.613281 536.394531 226.921875 535.742188 225.757812 536.914062 C 230.246094 542.726562 231.59375 550.90625 229.191406 557.839844 C 228.804688 558.957031 228.480469 560.101562 229.019531 560.808594 Z M 230.921875 561.667969 C 230.246094 561.667969 229.53125 561.617188 228.78125 561.511719 L 228.652344 561.496094 L 228.5625 561.402344 C 227.558594 560.324219 228.125 558.6875 228.5 557.601562 C 230.855469 550.808594 229.480469 542.773438 225.007812 537.140625 L 224.84375 536.933594 L 224.984375 536.710938 C 226.285156 534.710938 230.882812 535.703125 232.476562 536.65625 C 236.753906 538.242188 239.402344 541.953125 239.5 546.5625 C 240.109375 552.996094 239.222656 557.277344 236.785156 559.609375 C 235.359375 560.980469 233.390625 561.667969 230.921875 561.667969 " fill-opacity="1" fill-rule="nonzero"/><path fill="#f25126" d="M 149.707031 476.039062 C 148.21875 474.582031 145.945312 474.269531 144.136719 475.289062 C 142.054688 476.453125 140.0625 477.761719 138.414062 479.464844 C 135.976562 481.984375 134.363281 485.574219 135.089844 489.003906 C 135.585938 491.363281 137.097656 493.355469 138.5625 495.269531 C 142.277344 500.097656 145.984375 504.925781 149.699219 509.753906 C 150.484375 510.773438 151.296875 511.824219 152.4375 512.402344 C 155.433594 513.929688 158.898438 511.652344 161.492188 509.496094 C 164.351562 507.125 167.457031 504.230469 167.398438 500.515625 C 167.363281 497.882812 165.714844 495.589844 164.132812 493.488281 C 159.355469 487.164062 154.585938 480.839844 149.707031 476.039062 " fill-opacity="1" fill-rule="nonzero"/><path fill="#c93e21" d="M 146.402344 475.0625 C 145.6875 475.0625 144.964844 475.242188 144.316406 475.605469 C 141.820312 477.003906 140.078125 478.273438 138.679688 479.71875 C 136.015625 482.46875 134.808594 485.910156 135.449219 488.929688 C 135.933594 491.238281 137.484375 493.261719 138.851562 495.046875 L 149.988281 509.53125 C 150.742188 510.511719 151.527344 511.527344 152.605469 512.074219 C 155.5 513.554688 158.929688 511.152344 161.257812 509.214844 C 164.082031 506.871094 167.089844 504.074219 167.03125 500.523438 C 167 498.101562 165.566406 496.003906 163.839844 493.710938 L 163.753906 493.597656 C 159.097656 487.429688 154.28125 481.054688 149.449219 476.300781 C 148.617188 475.488281 147.511719 475.0625 146.402344 475.0625 Z M 154.546875 513.269531 C 153.78125 513.269531 153.015625 513.105469 152.273438 512.726562 C 151.046875 512.105469 150.175781 510.976562 149.40625 509.980469 L 138.269531 495.492188 C 136.855469 493.644531 135.253906 491.550781 134.730469 489.078125 C 134.042969 485.824219 135.320312 482.132812 138.152344 479.207031 C 139.605469 477.710938 141.394531 476.402344 143.957031 474.96875 C 145.894531 473.878906 148.363281 474.214844 149.960938 475.78125 C 154.832031 480.570312 159.664062 486.96875 164.339844 493.15625 L 164.425781 493.269531 C 166.230469 495.671875 167.726562 497.871094 167.765625 500.507812 C 167.828125 504.382812 164.679688 507.328125 161.726562 509.78125 C 159.804688 511.378906 157.160156 513.269531 154.546875 513.269531 " fill-opacity="1" fill-rule="nonzero"/><path fill="#fcd8bd" d="M 230.90625 200.664062 L 187.363281 200.664062 L 187.363281 199.203125 L 230.90625 199.203125 L 230.90625 200.664062 " fill-opacity="1" fill-rule="nonzero"/><path fill="#d8ccea" d="M 308.765625 329.199219 L 265.535156 329.199219 L 265.535156 327.730469 L 308.765625 327.730469 L 308.765625 329.199219 " fill-opacity="1" fill-rule="nonzero"/><path fill="#f9b0a2" d="M 257.210938 248.808594 L 255.882812 248.191406 L 288.917969 177.324219 L 290.246094 177.945312 L 257.210938 248.808594 " fill-opacity="1" fill-rule="nonzero"/><path fill="#f5ae3c" d="M 340.140625 503.078125 C 340.15625 506.292969 342.78125 508.910156 346.003906 508.914062 L 400.640625 508.914062 C 403.871094 508.914062 406.503906 506.285156 406.503906 503.050781 L 416.65625 455.1875 C 416.648438 452.015625 414.019531 449.378906 410.785156 449.378906 L 356.152344 449.378906 C 352.917969 449.378906 350.289062 452.015625 350.289062 455.246094 Z M 400.640625 509.484375 L 346.003906 509.484375 C 342.457031 509.472656 339.574219 506.589844 339.574219 503.050781 L 339.582031 502.992188 L 349.730469 455.1875 C 349.722656 451.699219 352.609375 448.816406 356.152344 448.816406 L 410.785156 448.816406 C 414.332031 448.816406 417.214844 451.699219 417.214844 455.246094 L 407.0625 503.109375 C 407.070312 506.59375 404.183594 509.484375 400.640625 509.484375 " fill-opacity="1" fill-rule="nonzero"/><path fill="#f5ae3c" d="M 240.6875 465.652344 C 240.707031 466.527344 241.425781 467.234375 242.304688 467.234375 L 259.984375 467.234375 C 260.878906 467.234375 261.601562 466.507812 261.601562 465.613281 L 261.613281 465.539062 L 264.886719 450.109375 C 264.867188 449.234375 264.148438 448.527344 263.265625 448.527344 L 245.589844 448.527344 C 244.695312 448.527344 243.96875 449.253906 243.96875 450.144531 L 243.960938 450.222656 Z M 259.984375 467.964844 L 242.304688 467.964844 C 241.007812 467.964844 239.953125 466.910156 239.953125 465.613281 L 239.960938 465.539062 L 243.238281 450.105469 C 243.257812 448.828125 244.304688 447.792969 245.589844 447.792969 L 263.265625 447.792969 C 264.5625 447.792969 265.617188 448.847656 265.617188 450.144531 L 265.609375 450.222656 L 262.335938 465.65625 C 262.3125 466.933594 261.269531 467.964844 259.984375 467.964844 " fill-opacity="1" fill-rule="nonzero"/><path fill="#f5ae3c" d="M 301.191406 459.332031 C 301.199219 460.019531 301.796875 460.578125 302.527344 460.578125 L 314.992188 460.578125 C 315.730469 460.578125 316.328125 460.019531 316.328125 459.328125 L 318.644531 449.113281 C 318.644531 448.441406 318.042969 447.878906 317.304688 447.878906 L 304.84375 447.878906 C 304.109375 447.878906 303.507812 448.441406 303.507812 449.128906 Z M 314.992188 460.703125 L 302.527344 460.703125 C 301.722656 460.703125 301.070312 460.085938 301.070312 459.328125 L 301.070312 459.3125 L 303.386719 449.113281 C 303.382812 448.371094 304.039062 447.753906 304.84375 447.753906 L 317.304688 447.753906 C 318.113281 447.753906 318.769531 448.371094 318.769531 449.128906 L 316.453125 459.339844 C 316.453125 460.085938 315.796875 460.703125 314.992188 460.703125 " fill-opacity="1" fill-rule="nonzero"/><path fill="#f5ae3c" d="M 301.132812 459.730469 C 301.152344 460.234375 301.609375 460.636719 302.164062 460.636719 L 314.625 460.636719 C 315.195312 460.636719 315.660156 460.214844 315.660156 459.695312 L 315.667969 459.613281 L 317.972656 449.457031 C 317.949219 448.953125 317.496094 448.546875 316.941406 448.546875 L 304.480469 448.546875 C 303.910156 448.546875 303.445312 448.972656 303.445312 449.492188 L 303.433594 449.574219 Z M 314.625 461.371094 L 302.164062 461.371094 C 301.191406 461.371094 300.398438 460.621094 300.398438 459.695312 L 300.40625 459.613281 L 302.714844 449.453125 C 302.738281 448.542969 303.519531 447.816406 304.480469 447.816406 L 316.941406 447.816406 C 317.914062 447.816406 318.707031 448.570312 318.707031 449.492188 L 318.699219 449.574219 L 316.390625 459.738281 C 316.367188 460.644531 315.582031 461.371094 314.625 461.371094 " fill-opacity="1" fill-rule="nonzero"/><path fill="#f5ae3c" d="M 233.359375 508.867188 C 233.378906 509.144531 233.628906 509.367188 233.929688 509.367188 L 242.238281 509.367188 C 242.554688 509.367188 242.8125 509.125 242.8125 508.832031 L 242.820312 508.753906 L 244.355469 501.796875 C 244.335938 501.519531 244.089844 501.300781 243.785156 501.300781 L 235.476562 501.300781 C 235.160156 501.300781 234.90625 501.539062 234.90625 501.835938 L 234.898438 501.914062 Z M 242.238281 510.101562 L 233.929688 510.101562 C 233.210938 510.101562 232.628906 509.53125 232.628906 508.832031 L 232.636719 508.753906 L 234.171875 501.789062 C 234.195312 501.109375 234.773438 500.566406 235.476562 500.566406 L 243.785156 500.566406 C 244.503906 500.566406 245.089844 501.136719 245.089844 501.835938 L 245.082031 501.914062 L 243.542969 508.875 C 243.519531 509.554688 242.945312 510.101562 242.238281 510.101562 " fill-opacity="1" fill-rule="nonzero"/><path fill="#f5ae3c" d="M 260.46875 504.890625 C 260.476562 505.878906 260.867188 506.804688 261.570312 507.503906 C 262.28125 508.214844 263.226562 508.605469 264.234375 508.605469 C 264.238281 508.605469 264.242188 508.605469 264.25 508.605469 L 301.125 508.605469 C 303.207031 508.605469 304.902344 506.921875 304.902344 504.855469 L 304.910156 504.773438 L 311.753906 472.757812 C 311.734375 470.703125 310.046875 469.042969 307.972656 469.042969 L 271.097656 469.042969 C 269.011719 469.042969 267.316406 470.726562 267.316406 472.792969 L 267.308594 472.871094 Z M 264.230469 509.335938 C 263.03125 509.335938 261.90625 508.871094 261.054688 508.023438 C 260.203125 507.175781 259.734375 506.050781 259.734375 504.855469 L 259.742188 504.773438 L 266.585938 472.753906 C 266.605469 470.300781 268.621094 468.3125 271.097656 468.3125 L 307.972656 468.3125 C 310.460938 468.3125 312.484375 470.320312 312.484375 472.792969 L 312.476562 472.871094 L 305.636719 504.890625 C 305.613281 507.347656 303.597656 509.335938 301.125 509.335938 L 264.25 509.335938 C 264.242188 509.335938 264.238281 509.335938 264.230469 509.335938 " fill-opacity="1" fill-rule="nonzero"/><path fill="#f57e41" d="M 40.09375 172.261719 C 39.347656 174.359375 40.480469 176.683594 42.625 177.449219 C 44.765625 178.214844 47.117188 177.132812 47.863281 175.042969 C 48.613281 172.945312 47.480469 170.621094 45.335938 169.855469 C 43.195312 169.089844 40.84375 170.171875 40.09375 172.261719 Z M 44.035156 178.71875 C 43.453125 178.71875 42.859375 178.621094 42.277344 178.414062 C 39.605469 177.457031 38.195312 174.546875 39.128906 171.917969 L 39.132812 171.917969 C 40.070312 169.292969 43.007812 167.9375 45.679688 168.890625 C 48.355469 169.847656 49.765625 172.761719 48.828125 175.386719 C 48.09375 177.441406 46.132812 178.71875 44.035156 178.71875 " fill-opacity="1" fill-rule="nonzero"/><path fill="#ffffff" d="M 26.152344 172.261719 C 25.402344 174.355469 26.539062 176.683594 28.679688 177.449219 C 30.824219 178.214844 33.171875 177.132812 33.921875 175.042969 C 34.671875 172.945312 33.535156 170.621094 31.394531 169.855469 C 29.25 169.089844 26.898438 170.171875 26.152344 172.261719 Z M 30.09375 178.714844 C 29.511719 178.714844 28.917969 178.617188 28.335938 178.414062 C 25.664062 177.457031 24.25 174.542969 25.1875 171.917969 C 26.128906 169.292969 29.066406 167.9375 31.738281 168.890625 C 34.410156 169.847656 35.824219 172.757812 34.886719 175.386719 C 34.152344 177.4375 32.191406 178.714844 30.09375 178.714844 " fill-opacity="1" fill-rule="nonzero"/><path fill="#432a4a" d="M 15.714844 169.605469 C 15.125 169.605469 14.535156 169.730469 13.984375 169.984375 C 12.996094 170.441406 12.253906 171.25 11.894531 172.257812 C 11.144531 174.351562 12.28125 176.679688 14.421875 177.445312 C 15.460938 177.816406 16.582031 177.769531 17.570312 177.3125 C 18.558594 176.859375 19.300781 176.050781 19.664062 175.039062 C 20.027344 174.023438 19.960938 172.929688 19.488281 171.953125 C 19.011719 170.972656 18.175781 170.222656 17.136719 169.851562 C 16.671875 169.6875 16.191406 169.605469 15.714844 169.605469 Z M 15.84375 178.714844 C 15.25 178.714844 14.652344 178.613281 14.078125 178.40625 C 11.402344 177.453125 9.992188 174.539062 10.929688 171.914062 C 11.386719 170.640625 12.316406 169.625 13.558594 169.054688 C 14.792969 168.484375 16.1875 168.425781 17.480469 168.890625 C 18.773438 169.351562 19.8125 170.277344 20.40625 171.503906 C 21.003906 172.730469 21.082031 174.109375 20.628906 175.382812 C 20.171875 176.65625 19.238281 177.667969 18 178.242188 C 17.3125 178.558594 16.582031 178.714844 15.84375 178.714844 " fill-opacity="1" fill-rule="nonzero"/></svg>