<?xml version="1.0" encoding="UTF-8"?>
<!DOCTYPE svg PUBLIC "-//W3C//DTD SVG 1.1//EN" "http://www.w3.org/Graphics/SVG/1.1/DTD/svg11.dtd">
<svg xmlns="http://www.w3.org/2000/svg" version="1.1" width="420px" height="594px" style="shape-rendering:geometricPrecision; text-rendering:geometricPrecision; image-rendering:optimizeQuality; fill-rule:evenodd; clip-rule:evenodd" xmlns:xlink="http://www.w3.org/1999/xlink">
<g><path style="opacity:0.784" fill="#f2db90" d="M 287.5,282.5 C 287.5,282.167 287.5,281.833 287.5,281.5C 303.692,281.315 319.692,281.982 335.5,283.5C 319.5,283.167 303.5,282.833 287.5,282.5 Z"/></g>
<g><path style="opacity:1" fill="#e6bc50" d="M 287.5,281.5 C 287.5,281.833 287.5,282.167 287.5,282.5C 265.993,282.169 244.66,282.503 223.5,283.5C 216.557,284.427 209.557,284.76 202.5,284.5C 186.152,284.338 169.819,284.671 153.5,285.5C 156.5,284.833 159.5,284.167 162.5,283.5C 203.967,281.793 245.634,281.126 287.5,281.5 Z"/></g>
<g><path style="opacity:1" fill="#deb43d" d="M 287.5,282.5 C 303.5,282.833 319.5,283.167 335.5,283.5C 342.687,283.175 349.687,283.509 356.5,284.5C 351.833,284.5 347.167,284.5 342.5,284.5C 336.833,284.5 331.167,284.5 325.5,284.5C 320.5,284.5 315.5,284.5 310.5,284.5C 302.833,283.833 295.167,283.167 287.5,282.5 Z"/></g>
<g><path style="opacity:1" fill="#eacc7b" d="M 162.5,283.5 C 159.5,284.167 156.5,284.833 153.5,285.5C 148.5,285.5 143.5,285.5 138.5,285.5C 137.833,285.5 137.167,285.5 136.5,285.5C 144.981,284.355 153.648,283.689 162.5,283.5 Z"/></g>
<g><path style="opacity:1" fill="#e5ac07" d="M 202.5,284.5 C 200.958,285.163 199.291,285.83 197.5,286.5C 201.016,287.293 204.35,288.293 207.5,289.5C 206.848,290.725 205.681,291.392 204,291.5C 202.342,291.325 201.009,290.658 200,289.5C 179.383,290.735 158.883,290.735 138.5,289.5C 135.034,288.033 131.534,287.699 128,288.5C 127.667,289.5 127.333,290.5 127,291.5C 125.56,289.954 123.727,289.121 121.5,289C 117.514,288.501 113.514,288.334 109.5,288.5C 111.948,287.527 114.615,287.194 117.5,287.5C 124.7,287.422 131.7,286.755 138.5,285.5C 143.5,285.5 148.5,285.5 153.5,285.5C 169.819,284.671 186.152,284.338 202.5,284.5 Z"/></g>
<g><path style="opacity:1" fill="#e6ac06" d="M 223.5,283.5 C 230.841,283.334 238.174,283.5 245.5,284C 243.5,284.333 241.5,284.667 239.5,285C 242.333,285.167 245.167,285.333 248,285.5C 254.507,285.536 260.173,285.203 265,284.5C 265.483,285.448 265.649,286.448 265.5,287.5C 263.473,287.338 261.473,287.505 259.5,288C 259.833,288.333 260.167,288.667 260.5,289C 264.356,289.177 268.023,289.677 271.5,290.5C 258.163,290.333 244.829,290.5 231.5,291C 228.635,291.183 225.969,291.683 223.5,292.5C 218.5,292.5 213.5,292.5 208.5,292.5C 214.145,290.147 213.811,289.147 207.5,289.5C 204.35,288.293 201.016,287.293 197.5,286.5C 199.291,285.83 200.958,285.163 202.5,284.5C 209.557,284.76 216.557,284.427 223.5,283.5 Z"/></g>
<g><path style="opacity:1" fill="#e7ac04" d="M 310.5,284.5 C 315.5,284.5 320.5,284.5 325.5,284.5C 328.617,285.718 331.617,286.885 334.5,288C 321.504,288.5 308.504,288.667 295.5,288.5C 292.833,288.5 290.167,288.5 287.5,288.5C 287.36,286.876 288.027,285.71 289.5,285C 296.492,284.5 303.492,284.334 310.5,284.5 Z"/></g>
<g><path style="opacity:1" fill="#e5ac09" d="M 325.5,284.5 C 331.167,284.5 336.833,284.5 342.5,284.5C 342.611,285.117 342.944,285.617 343.5,286C 356.846,286.334 370.179,286.834 383.5,287.5C 387.164,288.074 390.831,288.907 394.5,290C 374.836,290.5 355.169,290.667 335.5,290.5C 319.167,290.5 302.833,290.5 286.5,290.5C 289.5,289.833 292.5,289.167 295.5,288.5C 308.504,288.667 321.504,288.5 334.5,288C 331.617,286.885 328.617,285.718 325.5,284.5 Z"/></g>
<g><path style="opacity:1" fill="#e5ac0b" d="M 223.5,283.5 C 244.66,282.503 265.993,282.169 287.5,282.5C 295.167,283.167 302.833,283.833 310.5,284.5C 303.492,284.334 296.492,284.5 289.5,285C 288.027,285.71 287.36,286.876 287.5,288.5C 290.167,288.5 292.833,288.5 295.5,288.5C 292.5,289.167 289.5,289.833 286.5,290.5C 281.5,290.5 276.5,290.5 271.5,290.5C 268.023,289.677 264.356,289.177 260.5,289C 260.167,288.667 259.833,288.333 259.5,288C 261.473,287.505 263.473,287.338 265.5,287.5C 265.649,286.448 265.483,285.448 265,284.5C 260.173,285.203 254.507,285.536 248,285.5C 245.167,285.333 242.333,285.167 239.5,285C 241.5,284.667 243.5,284.333 245.5,284C 238.174,283.5 230.841,283.334 223.5,283.5 Z"/></g>
<g><path style="opacity:1" fill="#e0b43f" d="M 342.5,284.5 C 347.167,284.5 351.833,284.5 356.5,284.5C 363.196,284.391 369.863,284.724 376.5,285.5C 378.833,286.167 381.167,286.833 383.5,287.5C 370.179,286.834 356.846,286.334 343.5,286C 342.944,285.617 342.611,285.117 342.5,284.5 Z"/></g>
<g><path style="opacity:0.318" fill="#f7e29a" d="M 376.5,285.5 C 382.389,285.45 388.056,286.116 393.5,287.5C 390.167,287.5 386.833,287.5 383.5,287.5C 381.167,286.833 378.833,286.167 376.5,285.5 Z"/></g>
<g><path style="opacity:1" fill="#e4c05f" d="M 136.5,285.5 C 137.167,285.5 137.833,285.5 138.5,285.5C 131.7,286.755 124.7,287.422 117.5,287.5C 117.5,287.167 117.5,286.833 117.5,286.5C 123.565,285.762 129.898,285.428 136.5,285.5 Z"/></g>
<g><path style="opacity:0.922" fill="#ebcb73" d="M 117.5,286.5 C 117.5,286.833 117.5,287.167 117.5,287.5C 114.615,287.194 111.948,287.527 109.5,288.5C 103.19,289.19 96.857,289.524 90.5,289.5C 99.298,287.944 108.298,286.944 117.5,286.5 Z"/></g>
<g><path style="opacity:0.929" fill="#eacc76" d="M 399.5,287.5 C 403.387,287.646 407.054,288.313 410.5,289.5C 406.351,290.08 402.684,289.414 399.5,287.5 Z"/></g>
<g><path style="opacity:1" fill="#e9ab07" d="M 138.5,289.5 C 158.883,290.735 179.383,290.735 200,289.5C 201.009,290.658 202.342,291.325 204,291.5C 205.681,291.392 206.848,290.725 207.5,289.5C 213.811,289.147 214.145,290.147 208.5,292.5C 202.5,292.5 196.5,292.5 190.5,292.5C 184.328,292.531 177.995,292.198 171.5,291.5C 168.41,291.752 165.41,292.419 162.5,293.5C 157.888,291.137 153.222,290.971 148.5,293C 149.167,293.333 149.833,293.667 150.5,294C 147.833,294.667 145.167,294.667 142.5,294C 143.654,293.086 143.487,292.253 142,291.5C 139.851,292.84 138.684,292.173 138.5,289.5 Z"/></g>
<g><path style="opacity:1" fill="#e5ac08" d="M 109.5,288.5 C 114.123,289.494 118.79,290.827 123.5,292.5C 121.129,293.791 118.629,294.791 116,295.5C 110.392,294.756 105.058,294.423 100,294.5C 97.8252,295.255 95.6585,296.088 93.5,297C 99.4348,298.239 105.435,298.739 111.5,298.5C 111.5,298.833 111.5,299.167 111.5,299.5C 107.785,299.423 104.119,299.756 100.5,300.5C 93.069,300.141 85.7357,300.807 78.5,302.5C 77.1667,302.333 75.8333,302.167 74.5,302C 75.4158,301.722 76.0825,301.222 76.5,300.5C 78.8543,301.494 79.8543,300.494 79.5,297.5C 76.4816,297.665 73.4816,297.498 70.5,297C 70.8333,296.667 71.1667,296.333 71.5,296C 78.247,296.08 84.9137,296.247 91.5,296.5C 92.3081,296.192 92.9747,295.692 93.5,295C 90.4429,293.236 87.1095,292.402 83.5,292.5C 85.42,291.935 87.0867,290.935 88.5,289.5C 89.1667,289.5 89.8333,289.5 90.5,289.5C 96.857,289.524 103.19,289.19 109.5,288.5 Z"/></g>
<g><path style="opacity:1" fill="#e5be54" d="M 271.5,290.5 C 276.5,290.5 281.5,290.5 286.5,290.5C 302.833,290.5 319.167,290.5 335.5,290.5C 335.5,290.833 335.5,291.167 335.5,291.5C 298.15,291.477 260.817,292.144 223.5,293.5C 223.5,293.167 223.5,292.833 223.5,292.5C 225.969,291.683 228.635,291.183 231.5,291C 244.829,290.5 258.163,290.333 271.5,290.5 Z"/></g>
<g><path style="opacity:1" fill="#e3b844" d="M 383.5,287.5 C 386.833,287.5 390.167,287.5 393.5,287.5C 395.5,287.5 397.5,287.5 399.5,287.5C 402.684,289.414 406.351,290.08 410.5,289.5C 413.57,289.368 416.57,289.701 419.5,290.5C 419.5,291.833 419.5,293.167 419.5,294.5C 391.504,293.3 363.504,292.3 335.5,291.5C 335.5,291.167 335.5,290.833 335.5,290.5C 355.169,290.667 374.836,290.5 394.5,290C 390.831,288.907 387.164,288.074 383.5,287.5 Z"/></g>
<g><path style="opacity:1" fill="#eccc79" d="M 79.5,290.5 C 73.1117,292.505 66.445,293.505 59.5,293.5C 65.9263,291.771 72.5929,290.771 79.5,290.5 Z"/></g>
<g><path style="opacity:1" fill="#e7bf56" d="M 190.5,292.5 C 196.5,292.5 202.5,292.5 208.5,292.5C 213.5,292.5 218.5,292.5 223.5,292.5C 223.5,292.833 223.5,293.167 223.5,293.5C 210.154,293.967 196.82,294.634 183.5,295.5C 183.5,295.167 183.5,294.833 183.5,294.5C 183.611,293.883 183.944,293.383 184.5,293C 186.473,292.505 188.473,292.338 190.5,292.5 Z"/></g>
<g><path style="opacity:1" fill="#e6ac07" d="M 138.5,289.5 C 138.684,292.173 139.851,292.84 142,291.5C 143.487,292.253 143.654,293.086 142.5,294C 145.167,294.667 147.833,294.667 150.5,294C 149.833,293.667 149.167,293.333 148.5,293C 153.222,290.971 157.888,291.137 162.5,293.5C 165.41,292.419 168.41,291.752 171.5,291.5C 177.995,292.198 184.328,292.531 190.5,292.5C 188.473,292.338 186.473,292.505 184.5,293C 183.944,293.383 183.611,293.883 183.5,294.5C 172.828,294.333 162.161,294.5 151.5,295C 138.096,296.055 124.763,297.222 111.5,298.5C 105.435,298.739 99.4348,298.239 93.5,297C 95.6585,296.088 97.8252,295.255 100,294.5C 105.058,294.423 110.392,294.756 116,295.5C 118.629,294.791 121.129,293.791 123.5,292.5C 118.79,290.827 114.123,289.494 109.5,288.5C 113.514,288.334 117.514,288.501 121.5,289C 123.727,289.121 125.56,289.954 127,291.5C 127.333,290.5 127.667,289.5 128,288.5C 131.534,287.699 135.034,288.033 138.5,289.5 Z"/></g>
<g><path style="opacity:1" fill="#e5bf52" d="M 183.5,294.5 C 183.5,294.833 183.5,295.167 183.5,295.5C 162.139,296.391 140.806,297.724 119.5,299.5C 116.833,299.5 114.167,299.5 111.5,299.5C 111.5,299.167 111.5,298.833 111.5,298.5C 124.763,297.222 138.096,296.055 151.5,295C 162.161,294.5 172.828,294.333 183.5,294.5 Z"/></g>
<g><path style="opacity:1" fill="#e6c15c" d="M 57.5,293.5 C 56.3998,294.558 55.0664,295.392 53.5,296C 48.8333,296.333 44.1667,296.667 39.5,297C 38.944,297.383 38.6107,297.883 38.5,298.5C 32.3221,299.9 25.9888,300.9 19.5,301.5C 31.6653,297.014 44.332,294.348 57.5,293.5 Z"/></g>
<g><path style="opacity:1" fill="#e9ab06" d="M 83.5,292.5 C 87.1095,292.402 90.4429,293.236 93.5,295C 92.9747,295.692 92.3081,296.192 91.5,296.5C 84.9137,296.247 78.247,296.08 71.5,296C 71.1667,296.333 70.8333,296.667 70.5,297C 73.4816,297.498 76.4816,297.665 79.5,297.5C 79.8543,300.494 78.8543,301.494 76.5,300.5C 74.1155,300.557 71.7822,300.223 69.5,299.5C 67.4311,299.824 67.0977,300.658 68.5,302C 66.4139,303.827 64.4139,303.827 62.5,302C 56.99,301.95 51.6567,301.283 46.5,300C 48.4587,298.904 50.6253,298.404 53,298.5C 56.0202,298.672 58.6869,299.005 61,299.5C 64.0693,297.45 63.5693,295.95 59.5,295C 67.615,294.761 75.615,293.928 83.5,292.5 Z"/></g>
<g><path style="opacity:1" fill="#e9cd71" d="M 111.5,299.5 C 114.167,299.5 116.833,299.5 119.5,299.5C 113.359,300.636 107.026,301.303 100.5,301.5C 100.5,301.167 100.5,300.833 100.5,300.5C 104.119,299.756 107.785,299.423 111.5,299.5 Z"/></g>
<g><path style="opacity:1" fill="#e4af1c" d="M 88.5,289.5 C 87.0867,290.935 85.42,291.935 83.5,292.5C 75.615,293.928 67.615,294.761 59.5,295C 63.5693,295.95 64.0693,297.45 61,299.5C 58.6869,299.005 56.0202,298.672 53,298.5C 50.6253,298.404 48.4587,298.904 46.5,300C 51.6567,301.283 56.99,301.95 62.5,302C 64.4139,303.827 66.4139,303.827 68.5,302C 67.0977,300.658 67.4311,299.824 69.5,299.5C 71.7822,300.223 74.1155,300.557 76.5,300.5C 76.0825,301.222 75.4158,301.722 74.5,302C 75.8333,302.167 77.1667,302.333 78.5,302.5C 85.7357,300.807 93.069,300.141 100.5,300.5C 100.5,300.833 100.5,301.167 100.5,301.5C 94.6165,302.818 88.6165,303.485 82.5,303.5C 77.8781,303.156 73.5448,303.823 69.5,305.5C 68.8333,305.5 68.1667,305.5 67.5,305.5C 56.6499,305.692 45.9833,306.692 35.5,308.5C 34.2825,307.839 32.9492,307.172 31.5,306.5C 36.4251,305.259 41.4251,304.593 46.5,304.5C 46.5,303.5 46.5,302.5 46.5,301.5C 44.4727,301.662 42.4727,301.495 40.5,301C 41.1513,299.692 40.4846,298.859 38.5,298.5C 38.6107,297.883 38.944,297.383 39.5,297C 44.1667,296.667 48.8333,296.333 53.5,296C 55.0664,295.392 56.3998,294.558 57.5,293.5C 58.1667,293.5 58.8333,293.5 59.5,293.5C 66.445,293.505 73.1117,292.505 79.5,290.5C 82.3915,289.597 85.3915,289.264 88.5,289.5 Z"/></g>
<g><path style="opacity:0.961" fill="#ebce83" d="M 19.5,301.5 C 17.4855,302.924 15.1522,303.59 12.5,303.5C 14.5145,302.076 16.8478,301.41 19.5,301.5 Z"/></g>
<g><path style="opacity:0.714" fill="#efd486" d="M 82.5,303.5 C 78.3609,304.563 74.0275,305.23 69.5,305.5C 73.5448,303.823 77.8781,303.156 82.5,303.5 Z"/></g>
<g><path style="opacity:1" fill="#e6be54" d="M 12.5,303.5 C 12.1961,304.15 11.8627,304.817 11.5,305.5C 8.5559,306.704 5.5559,307.704 2.5,308.5C 5.23529,305.799 8.56862,304.132 12.5,303.5 Z"/></g>
<g><path style="opacity:1" fill="#e9be59" d="M 67.5,305.5 C 52.3258,308.002 36.9924,310.336 21.5,312.5C 25.7829,310.188 30.4495,308.855 35.5,308.5C 45.9833,306.692 56.6499,305.692 67.5,305.5 Z"/></g>
<g><path style="opacity:1" fill="#e5ac0c" d="M 38.5,298.5 C 40.4846,298.859 41.1513,299.692 40.5,301C 42.4727,301.495 44.4727,301.662 46.5,301.5C 46.5,302.5 46.5,303.5 46.5,304.5C 41.4251,304.593 36.4251,305.259 31.5,306.5C 32.9492,307.172 34.2825,307.839 35.5,308.5C 30.4495,308.855 25.7829,310.188 21.5,312.5C 21.1667,312.5 20.8333,312.5 20.5,312.5C 14.5,312.833 8.5,313.167 2.5,313.5C 2.5,311.833 2.5,310.167 2.5,308.5C 5.5559,307.704 8.5559,306.704 11.5,305.5C 11.8627,304.817 12.1961,304.15 12.5,303.5C 15.1522,303.59 17.4855,302.924 19.5,301.5C 25.9888,300.9 32.3221,299.9 38.5,298.5 Z"/></g>
<g><path style="opacity:1" fill="#e3be53" d="M 2.5,308.5 C 2.5,310.167 2.5,311.833 2.5,313.5C 8.5,313.167 14.5,312.833 20.5,312.5C 14.4432,314.617 8.10989,315.45 1.5,315C -0.0202654,312.448 0.313068,310.282 2.5,308.5 Z"/></g>
</svg>
