<svg xmlns="http://www.w3.org/2000/svg" xmlns:xlink="http://www.w3.org/1999/xlink" width="500" zoomAndPan="magnify" viewBox="0 0 375 374.999991" height="500" preserveAspectRatio="xMidYMid meet" version="1.0"><defs><clipPath id="989b0ee7ea"><path d="M 7.648438 12 L 254 12 L 254 26 L 7.648438 26 Z M 7.648438 12 " clip-rule="nonzero"/></clipPath><clipPath id="551e236a87"><path d="M 11 11 L 255.148438 11 L 255.148438 30.441406 L 11 30.441406 Z M 11 11 " clip-rule="nonzero"/></clipPath></defs><rect x="-37.5" width="450" fill="#ffffff" y="-37.499999" height="449.999989" fill-opacity="1"/><rect x="-37.5" width="450" fill="#ffffff" y="-37.499999" height="449.999989" fill-opacity="1"/><g clip-path="url(#989b0ee7ea)"><path fill="#000000" d="M 9.398438 21.359375 C 24.03125 18.84375 61.179688 16.261719 120.84375 13.617188 L 120.863281 13.617188 C 134.410156 13.136719 150.601562 12.832031 169.441406 12.707031 L 169.445312 12.707031 C 174.015625 12.683594 179.328125 12.683594 185.378906 12.703125 L 185.382812 12.703125 C 228.28125 12.949219 250.265625 13.050781 251.34375 13.007812 C 250.171875 13.054688 249.574219 13.6875 249.550781 14.910156 L 249.550781 14.976562 C 249.574219 16.183594 250.160156 16.816406 251.316406 16.878906 L 251.320312 16.878906 C 251.316406 16.878906 251.3125 16.878906 251.308594 16.878906 C 250.257812 16.828125 249.441406 15.917969 249.492188 14.847656 C 249.539062 13.777344 250.433594 12.949219 251.488281 13 C 251.496094 13 251.507812 13 251.515625 13 L 251.519531 13 C 252.730469 13.066406 253.347656 13.703125 253.371094 14.910156 L 253.371094 14.976562 C 253.347656 16.203125 252.722656 16.839844 251.492188 16.886719 C 250.359375 16.933594 228.316406 16.832031 185.363281 16.585938 L 185.367188 16.585938 C 179.324219 16.566406 174.023438 16.570312 169.464844 16.59375 C 150.664062 16.714844 134.503906 17.019531 120.996094 17.496094 L 121.011719 17.496094 C 61.503906 20.136719 24.511719 22.699219 10.035156 25.191406 C 8.996094 25.367188 8.007812 24.65625 7.832031 23.597656 C 7.65625 22.542969 8.359375 21.539062 9.398438 21.359375 Z M 9.398438 21.359375 " fill-opacity="0.996" fill-rule="nonzero"/></g><g clip-path="url(#551e236a87)"><path fill="#000000" d="M 12.726562 26.300781 C 36.101562 22.472656 75.628906 18.574219 131.300781 14.605469 L 131.3125 14.605469 C 162.492188 12.546875 203.121094 11.363281 253.203125 11.054688 C 254.257812 11.046875 255.117188 11.910156 255.125 12.984375 C 255.132812 14.054688 254.28125 14.929688 253.226562 14.9375 C 203.222656 15.246094 162.664062 16.429688 131.558594 18.480469 L 131.570312 18.480469 C 76.007812 22.441406 36.597656 26.328125 13.332031 30.132812 C 12.292969 30.304688 11.3125 29.585938 11.144531 28.527344 C 10.976562 27.46875 11.683594 26.46875 12.726562 26.300781 Z M 12.726562 26.300781 " fill-opacity="0.996" fill-rule="nonzero"/></g><path fill="#000000" d="M 14.429688 24.527344 C 29.171875 21.035156 60.652344 18.324219 108.875 16.398438 L 108.894531 16.398438 C 136.355469 15.59375 157.359375 15.171875 171.902344 15.132812 C 196.199219 15.09375 219.871094 15.445312 242.921875 16.1875 C 243.972656 16.21875 244.800781 17.117188 244.769531 18.1875 C 244.734375 19.261719 243.855469 20.101562 242.800781 20.066406 C 219.792969 19.328125 196.160156 18.976562 171.910156 19.015625 C 157.402344 19.054688 136.433594 19.476562 109.007812 20.28125 L 109.027344 20.28125 C 61.042969 22.195312 29.800781 24.871094 15.296875 28.3125 C 14.269531 28.554688 13.242188 27.90625 13.003906 26.859375 C 12.761719 25.816406 13.402344 24.773438 14.429688 24.527344 Z M 14.429688 24.527344 " fill-opacity="0.996" fill-rule="nonzero"/></svg>