<svg xmlns="http://www.w3.org/2000/svg" xmlns:xlink="http://www.w3.org/1999/xlink" width="500" zoomAndPan="magnify" viewBox="0 0 375 374.999991" height="500" preserveAspectRatio="xMidYMid meet" version="1.0"><defs><clipPath id="a00b513f95"><path d="M 23.480469 0 L 365 0 L 365 375 L 23.480469 375 Z M 23.480469 0 " clip-rule="nonzero"/></clipPath></defs><rect x="-37.5" width="450" fill="#ffffff" y="-37.499999" height="449.999989" fill-opacity="1"/><rect x="-37.5" width="450" fill="#ffffff" y="-37.499999" height="449.999989" fill-opacity="1"/><g clip-path="url(#a00b513f95)"><path fill="#000000" d="M 336.167969 74.140625 L 354.578125 52.988281 C 356.675781 50.574219 360.332031 50.320312 362.742188 52.421875 C 365.152344 54.523438 365.40625 58.183594 363.308594 60.59375 C 357.730469 67.007812 312.242188 119.519531 311.164062 120.402344 C 308.691406 122.429688 305.046875 122.0625 303.023438 119.589844 L 290.121094 103.828125 C 288.097656 101.351562 284.453125 100.988281 281.980469 103.011719 C 279.503906 105.039062 279.140625 108.6875 281.164062 111.164062 C 288.398438 120 295.5625 128.890625 302.804688 137.730469 C 305.0625 140.492188 309.320312 140.535156 311.648438 137.867188 L 340.269531 104.960938 C 340.484375 104.714844 340.8125 104.628906 341.121094 104.746094 C 341.429688 104.859375 341.621094 105.140625 341.621094 105.46875 L 341.621094 142.933594 C 341.621094 147.730469 337.703125 151.652344 332.910156 151.652344 L 272.773438 151.652344 C 267.984375 151.652344 264.0625 147.730469 264.0625 142.933594 L 264.0625 82.738281 C 264.0625 77.941406 267.984375 74.019531 272.773438 74.019531 L 332.910156 74.019531 C 333.761719 74.019531 334.589844 74.144531 335.367188 74.375 C 335.660156 74.460938 335.964844 74.375 336.167969 74.140625 Z M 158.472656 149.074219 C 158.472656 162.03125 168.964844 172.535156 181.910156 172.535156 C 194.855469 172.535156 205.347656 162.03125 205.347656 149.074219 C 205.347656 136.117188 194.855469 125.617188 181.910156 125.617188 C 168.964844 125.617188 158.472656 136.117188 158.472656 149.074219 Z M 88.1875 241.515625 C 83.632812 235.164062 79.023438 228.691406 74.429688 222.171875 C 74.269531 221.945312 74.023438 221.824219 73.746094 221.84375 L 34.28125 224.574219 C 27.957031 225.011719 25.308594 234.914062 29.773438 240.449219 C 30.910156 241.863281 32.402344 242.738281 33.976562 242.738281 L 87.5625 242.738281 C 87.855469 242.738281 88.113281 242.582031 88.246094 242.320312 C 88.382812 242.054688 88.359375 241.757812 88.1875 241.515625 Z M 289.257812 221.867188 L 275.5625 241.527344 C 275.390625 241.769531 275.371094 242.0625 275.507812 242.324219 C 275.644531 242.589844 275.898438 242.742188 276.195312 242.742188 L 334.148438 242.742188 C 339.667969 242.742188 342.988281 232.796875 338.4375 227.148438 C 337.226562 225.644531 335.59375 224.695312 333.839844 224.574219 L 289.945312 221.539062 C 289.667969 221.519531 289.417969 221.640625 289.257812 221.867188 Z M 225.410156 256.820312 C 225.410156 257.191406 225.160156 257.5 224.796875 257.578125 L 221.847656 258.207031 C 221.621094 258.253906 221.40625 258.207031 221.21875 258.066406 C 216.890625 254.773438 212.234375 252.074219 207.207031 249.953125 C 206.996094 249.863281 206.84375 249.699219 206.773438 249.480469 L 201.347656 232.761719 L 201.339844 232.765625 C 200.480469 230.128906 198.078125 228.378906 195.328125 228.378906 L 168.488281 228.378906 C 165.746094 228.378906 163.316406 230.152344 162.46875 232.761719 L 157.042969 249.480469 C 156.972656 249.699219 156.824219 249.863281 156.609375 249.953125 C 151.582031 252.070312 146.925781 254.773438 142.597656 258.066406 C 142.410156 258.207031 142.195312 258.253906 141.96875 258.207031 L 139.019531 257.578125 C 138.660156 257.5 138.40625 257.191406 138.40625 256.820312 L 138.40625 235.941406 L 138.390625 235.941406 C 138.394531 232.738281 135.003906 230.410156 131.984375 231.683594 L 107.171875 242.195312 C 106.011719 242.6875 104.796875 242.867188 103.621094 242.769531 L 103.621094 242.738281 C 101.601562 242.738281 99.324219 241.273438 98.082031 239.484375 L 57.148438 180.738281 C 54.644531 177.070312 55.578125 171.601562 59.363281 169.066406 L 59.359375 169.058594 C 62.921875 166.644531 67.863281 167.699219 70.078125 170.886719 C 70.085938 170.894531 70.089844 170.902344 70.097656 170.90625 L 70.703125 171.714844 C 70.71875 171.734375 70.730469 171.753906 70.75 171.769531 L 108.847656 213.972656 C 108.859375 213.984375 108.867188 213.996094 108.875 214.007812 C 110.441406 215.957031 113.285156 216.3125 115.285156 214.789062 L 151.269531 187.160156 C 151.292969 187.144531 151.3125 187.128906 151.335938 187.117188 C 154.964844 184.886719 159.507812 183.242188 164.488281 182.195312 C 169.925781 181.054688 175.839844 180.632812 181.648438 180.953125 C 181.816406 180.960938 181.988281 180.960938 182.164062 180.953125 C 187.976562 180.632812 193.890625 181.054688 199.332031 182.195312 C 204.3125 183.242188 208.855469 184.886719 212.484375 187.117188 C 212.507812 187.128906 212.527344 187.144531 212.550781 187.160156 L 248.535156 214.789062 L 248.542969 214.78125 C 250.429688 216.226562 253.136719 216.003906 254.757812 214.207031 L 293.027344 171.820312 C 293.039062 171.808594 293.046875 171.796875 293.058594 171.78125 L 293.585938 171.113281 L 293.578125 171.109375 C 294.875 169.320312 296.625 168.230469 298.648438 167.855469 C 305.972656 166.5 310.558594 175.144531 306.675781 180.734375 C 306.671875 180.738281 306.671875 180.742188 306.667969 180.746094 C 292.777344 199.867188 279.285156 219.976562 265.773438 239.433594 C 263.710938 242.4375 260.015625 243.625 256.648438 242.195312 L 232.238281 231.855469 C 232.230469 231.851562 232.21875 231.847656 232.210938 231.84375 C 228.652344 230.152344 225.410156 232.773438 225.410156 235.941406 Z M 248.789062 281.195312 L 244.546875 273.839844 L 244.554688 273.835938 L 240.304688 266.46875 C 239.453125 264.996094 237.824219 264.269531 236.160156 264.621094 L 221.300781 267.78125 L 221.300781 267.773438 C 219.976562 268.054688 218.539062 267.75 217.414062 266.824219 C 213.273438 263.414062 207.039062 259.574219 201.957031 257.785156 C 201.359375 257.574219 200.886719 257.273438 200.449219 256.8125 C 197.699219 253.929688 195.429688 245.515625 194.035156 240.476562 C 193.5625 238.78125 192.074219 237.648438 190.316406 237.648438 L 173.527344 237.648438 C 171.757812 237.648438 170.257812 238.796875 169.800781 240.511719 C 168.289062 246.140625 165.597656 256.398438 162.273438 257.636719 C 157.226562 259.523438 150.707031 263.105469 146.667969 266.609375 C 146.640625 266.628906 146.621094 266.652344 146.59375 266.671875 C 145.53125 267.640625 144.035156 268.105469 142.519531 267.78125 L 127.660156 264.621094 C 125.996094 264.265625 124.367188 264.992188 123.515625 266.46875 L 115.023438 281.1875 C 114.171875 282.664062 114.359375 284.441406 115.5 285.707031 L 125.652344 296.996094 L 125.648438 297 C 126.550781 298.003906 127.007812 299.394531 126.777344 300.832031 C 125.882812 306.296875 125.730469 313.527344 126.730469 318.960938 C 126.738281 318.984375 126.742188 319.007812 126.746094 319.035156 C 127.03125 320.425781 126.675781 321.925781 125.652344 323.0625 L 115.507812 334.347656 C 114.367188 335.613281 114.179688 337.390625 115.03125 338.863281 L 119.273438 346.21875 L 119.265625 346.226562 L 123.515625 353.589844 C 124.367188 355.066406 125.996094 355.792969 127.660156 355.4375 L 142.519531 352.277344 L 142.519531 352.285156 C 143.84375 352.007812 145.28125 352.308594 146.40625 353.238281 C 150.578125 356.671875 156.871094 360.539062 161.972656 362.3125 C 162.007812 362.324219 162.03125 362.332031 162.066406 362.34375 C 163.433594 362.78125 164.582031 363.847656 165.058594 365.320312 L 169.746094 379.757812 C 170.273438 381.378906 171.714844 382.429688 173.417969 382.429688 L 190.402344 382.429688 C 192.101562 382.429688 193.546875 381.378906 194.074219 379.757812 L 198.757812 365.324219 L 198.765625 365.328125 C 199.1875 364.035156 200.171875 362.9375 201.542969 362.425781 C 206.597656 360.539062 213.113281 356.960938 217.160156 353.453125 C 217.183594 353.429688 217.207031 353.410156 217.230469 353.386719 C 218.292969 352.417969 219.792969 351.957031 221.308594 352.277344 L 236.160156 355.4375 C 237.824219 355.792969 239.457031 355.0625 240.304688 353.589844 L 248.792969 338.863281 C 249.640625 337.390625 249.453125 335.613281 248.316406 334.347656 L 238.164062 323.0625 L 238.167969 323.058594 C 237.265625 322.054688 236.808594 320.664062 237.042969 319.222656 C 237.9375 313.757812 238.09375 306.535156 237.089844 301.097656 C 237.082031 301.074219 237.078125 301.050781 237.074219 301.023438 C 236.789062 299.632812 237.144531 298.128906 238.164062 296.996094 L 248.316406 285.714844 C 249.453125 284.449219 249.640625 282.671875 248.789062 281.195312 Z M 181.90625 283.613281 C 196.488281 283.613281 208.308594 295.445312 208.308594 310.039062 C 208.308594 324.632812 196.488281 336.46875 181.90625 336.46875 C 167.324219 336.46875 155.503906 324.632812 155.503906 310.039062 C 155.503906 295.445312 167.324219 283.613281 181.90625 283.613281 Z M 94.796875 74.375 C 94.019531 74.144531 93.195312 74.019531 92.34375 74.019531 L 32.203125 74.019531 C 27.414062 74.019531 23.492188 77.945312 23.492188 82.738281 L 23.492188 142.933594 C 23.492188 147.730469 27.414062 151.652344 32.203125 151.652344 L 92.34375 151.652344 C 97.132812 151.652344 101.054688 147.730469 101.054688 142.933594 L 101.054688 105.472656 C 101.054688 105.144531 100.859375 104.863281 100.550781 104.75 C 100.242188 104.636719 99.914062 104.71875 99.699219 104.96875 C 93.371094 112.269531 71.292969 137.800781 70.378906 138.546875 C 67.90625 140.574219 64.257812 140.207031 62.234375 137.734375 C 54.996094 128.890625 47.832031 120 40.597656 111.164062 C 38.574219 108.6875 38.9375 105.039062 41.410156 103.015625 C 43.886719 100.988281 47.53125 101.351562 49.554688 103.828125 L 62.457031 119.589844 C 64.714844 122.351562 68.972656 122.394531 71.300781 119.722656 L 123.976562 59.160156 C 126.074219 56.75 125.820312 53.089844 123.410156 50.988281 C 121 48.886719 117.34375 49.140625 115.246094 51.554688 L 95.597656 74.140625 C 95.394531 74.375 95.09375 74.464844 94.796875 74.375 Z M 214.433594 23.894531 C 213.652344 23.664062 212.828125 23.539062 211.980469 23.539062 L 151.839844 23.539062 C 147.050781 23.539062 143.128906 27.464844 143.128906 32.257812 L 143.128906 92.453125 C 143.128906 97.25 147.050781 101.175781 151.839844 101.175781 L 211.980469 101.175781 C 216.769531 101.175781 220.6875 97.25 220.6875 92.453125 L 220.6875 54.992188 C 220.6875 54.664062 220.496094 54.386719 220.1875 54.269531 C 219.878906 54.15625 219.550781 54.238281 219.335938 54.488281 C 213.007812 61.789062 190.929688 87.320312 190.011719 88.066406 C 187.542969 90.09375 183.894531 89.726562 181.871094 87.253906 C 174.632812 78.410156 167.46875 69.519531 160.234375 60.683594 C 158.210938 58.207031 158.574219 54.558594 161.046875 52.535156 C 163.519531 50.507812 167.167969 50.871094 169.191406 53.347656 L 182.09375 69.109375 C 184.351562 71.871094 188.609375 71.914062 190.933594 69.246094 L 242.253906 10.242188 C 244.351562 7.828125 244.101562 4.167969 241.6875 2.066406 C 239.277344 -0.03125 235.621094 0.222656 233.523438 2.632812 L 215.234375 23.660156 C 215.03125 23.894531 214.730469 23.984375 214.433594 23.894531 Z M 214.433594 23.894531 " fill-opacity="1" fill-rule="evenodd"/></g></svg>