<svg xmlns="http://www.w3.org/2000/svg" xmlns:xlink="http://www.w3.org/1999/xlink" width="500" zoomAndPan="magnify" viewBox="0 0 375 374.999991" height="500" preserveAspectRatio="xMidYMid meet" version="1.0"><defs><clipPath id="b76107e738"><path d="M 0 0 L 312 0 L 312 337.414062 L 0 337.414062 Z M 0 0 " clip-rule="nonzero"/></clipPath></defs><rect x="-37.5" width="450" fill="#ffffff" y="-37.499999" height="449.999989" fill-opacity="1"/><rect x="-37.5" width="450" fill="#ffffff" y="-37.499999" height="449.999989" fill-opacity="1"/><g clip-path="url(#b76107e738)"><path fill="#000000" d="M 285.25 56.265625 L 302.046875 36.976562 C 303.960938 34.777344 307.292969 34.546875 309.492188 36.460938 C 311.691406 38.378906 311.925781 41.714844 310.011719 43.914062 C 304.921875 49.761719 263.425781 97.640625 262.445312 98.445312 C 260.1875 100.292969 256.863281 99.960938 255.015625 97.703125 L 243.246094 83.332031 C 241.398438 81.074219 238.074219 80.742188 235.820312 82.589844 C 233.5625 84.4375 233.230469 87.761719 235.074219 90.019531 C 241.675781 98.078125 248.210938 106.183594 254.816406 114.246094 C 256.875 116.761719 260.761719 116.800781 262.882812 114.367188 L 288.992188 84.367188 C 289.191406 84.140625 289.488281 84.0625 289.769531 84.167969 C 290.050781 84.273438 290.226562 84.527344 290.226562 84.828125 L 290.226562 118.988281 C 290.226562 123.359375 286.652344 126.9375 282.28125 126.9375 L 227.421875 126.9375 C 223.050781 126.9375 219.476562 123.359375 219.476562 118.988281 L 219.476562 64.105469 C 219.476562 59.730469 223.050781 56.152344 227.421875 56.152344 L 282.28125 56.152344 C 283.058594 56.152344 283.8125 56.265625 284.523438 56.476562 C 284.789062 56.558594 285.066406 56.480469 285.25 56.265625 Z M 123.152344 124.585938 C 123.152344 136.398438 132.722656 145.976562 144.53125 145.976562 C 156.339844 145.976562 165.910156 136.398438 165.910156 124.585938 C 165.910156 112.773438 156.339844 103.199219 144.53125 103.199219 C 132.722656 103.199219 123.152344 112.773438 123.152344 124.585938 Z M 59.035156 208.871094 C 54.882812 203.082031 50.675781 197.179688 46.484375 191.234375 C 46.339844 191.027344 46.113281 190.917969 45.859375 190.9375 L 9.859375 193.421875 C 4.089844 193.824219 1.671875 202.851562 5.746094 207.902344 C 6.785156 209.1875 8.144531 209.988281 9.578125 209.988281 L 58.464844 209.988281 C 58.734375 209.988281 58.964844 209.84375 59.089844 209.605469 C 59.210938 209.363281 59.191406 209.09375 59.035156 208.871094 Z M 242.460938 190.957031 L 229.964844 208.882812 C 229.808594 209.101562 229.792969 209.371094 229.917969 209.609375 C 230.042969 209.847656 230.273438 209.988281 230.542969 209.988281 L 283.410156 209.988281 C 288.445312 209.988281 291.476562 200.921875 287.320312 195.769531 C 286.21875 194.402344 284.730469 193.535156 283.128906 193.425781 L 243.085938 190.660156 C 242.832031 190.640625 242.605469 190.75 242.460938 190.957031 Z M 184.214844 222.828125 C 184.214844 223.164062 183.984375 223.445312 183.65625 223.515625 L 180.964844 224.089844 C 180.757812 224.132812 180.5625 224.089844 180.394531 223.960938 C 176.441406 220.960938 172.195312 218.496094 167.609375 216.5625 C 167.414062 216.480469 167.28125 216.335938 167.214844 216.132812 L 162.261719 200.890625 L 162.257812 200.890625 C 161.472656 198.488281 159.28125 196.894531 156.773438 196.894531 L 132.289062 196.894531 C 129.789062 196.894531 127.570312 198.511719 126.796875 200.890625 L 121.847656 216.132812 C 121.78125 216.335938 121.648438 216.480469 121.453125 216.5625 C 116.867188 218.496094 112.617188 220.960938 108.667969 223.960938 C 108.5 224.089844 108.304688 224.132812 108.097656 224.089844 L 105.40625 223.515625 C 105.078125 223.445312 104.847656 223.164062 104.847656 222.828125 L 104.847656 203.789062 L 104.832031 203.789062 C 104.835938 200.867188 101.742188 198.746094 98.988281 199.90625 L 76.351562 209.492188 C 75.292969 209.941406 74.183594 210.105469 73.113281 210.011719 L 73.113281 209.988281 C 71.269531 209.988281 69.191406 208.652344 68.0625 207.019531 L 30.71875 153.457031 C 28.4375 150.113281 29.289062 145.125 32.742188 142.8125 L 32.738281 142.808594 C 35.988281 140.609375 40.496094 141.570312 42.515625 144.472656 C 42.519531 144.480469 42.523438 144.488281 42.53125 144.492188 L 43.085938 145.230469 C 43.097656 145.25 43.109375 145.261719 43.125 145.28125 L 77.882812 183.757812 C 77.890625 183.769531 77.898438 183.777344 77.90625 183.789062 C 79.335938 185.570312 81.929688 185.894531 83.753906 184.5 L 116.582031 159.3125 C 116.601562 159.296875 116.617188 159.285156 116.640625 159.269531 C 119.949219 157.242188 124.097656 155.738281 128.640625 154.785156 C 133.597656 153.746094 138.992188 153.359375 144.292969 153.652344 C 144.445312 153.660156 144.605469 153.660156 144.761719 153.652344 C 150.066406 153.359375 155.464844 153.746094 160.425781 154.785156 C 164.96875 155.738281 169.113281 157.242188 172.421875 159.269531 C 172.445312 159.285156 172.464844 159.296875 172.484375 159.3125 L 205.3125 184.5 L 205.316406 184.496094 C 207.035156 185.8125 209.507812 185.609375 210.988281 183.972656 L 245.894531 145.328125 C 245.90625 145.3125 245.914062 145.304688 245.925781 145.292969 L 246.40625 144.683594 L 246.398438 144.675781 C 247.585938 143.046875 249.179688 142.050781 251.023438 141.710938 C 257.707031 140.476562 261.890625 148.355469 258.347656 153.453125 C 258.347656 153.457031 258.34375 153.460938 258.339844 153.464844 C 245.667969 170.894531 233.359375 189.234375 221.035156 206.972656 C 219.152344 209.714844 215.785156 210.792969 212.710938 209.492188 L 190.445312 200.066406 C 190.433594 200.058594 190.425781 200.058594 190.417969 200.050781 C 187.171875 198.511719 184.214844 200.902344 184.214844 203.789062 Z M 205.542969 245.050781 L 201.671875 238.34375 L 201.679688 238.339844 L 197.800781 231.621094 C 197.027344 230.277344 195.539062 229.617188 194.019531 229.9375 L 180.46875 232.820312 L 180.464844 232.8125 C 179.257812 233.066406 177.945312 232.792969 176.917969 231.945312 C 173.144531 228.839844 167.457031 225.339844 162.820312 223.707031 C 162.273438 223.515625 161.84375 223.238281 161.445312 222.816406 C 158.9375 220.191406 156.867188 212.515625 155.59375 207.925781 C 155.160156 206.378906 153.804688 205.347656 152.199219 205.347656 L 136.886719 205.347656 C 135.269531 205.347656 133.902344 206.394531 133.484375 207.953125 C 132.109375 213.085938 129.648438 222.4375 126.617188 223.570312 C 122.015625 225.289062 116.066406 228.554688 112.382812 231.75 C 112.359375 231.769531 112.339844 231.789062 112.316406 231.808594 C 111.347656 232.691406 109.980469 233.113281 108.597656 232.820312 L 95.042969 229.9375 C 93.527344 229.613281 92.039062 230.277344 91.261719 231.621094 L 83.515625 245.042969 C 82.742188 246.386719 82.910156 248.007812 83.949219 249.164062 L 93.210938 259.453125 L 93.207031 259.457031 C 94.03125 260.375 94.449219 261.644531 94.238281 262.957031 C 93.421875 267.9375 93.28125 274.527344 94.195312 279.484375 C 94.203125 279.507812 94.203125 279.527344 94.210938 279.550781 C 94.46875 280.816406 94.144531 282.1875 93.214844 283.222656 L 83.957031 293.511719 C 82.917969 294.664062 82.746094 296.285156 83.523438 297.628906 L 87.394531 304.335938 L 87.386719 304.34375 L 91.261719 311.058594 C 92.039062 312.402344 93.527344 313.066406 95.042969 312.742188 L 108.597656 309.859375 L 108.597656 309.867188 C 109.808594 309.613281 111.117188 309.890625 112.144531 310.734375 C 115.949219 313.867188 121.691406 317.394531 126.347656 319.007812 C 126.375 319.019531 126.398438 319.027344 126.429688 319.039062 C 127.679688 319.4375 128.722656 320.410156 129.160156 321.753906 L 133.4375 334.917969 C 133.914062 336.390625 135.234375 337.351562 136.785156 337.351562 L 152.277344 337.351562 C 153.832031 337.351562 155.148438 336.394531 155.628906 334.917969 L 159.902344 321.757812 L 159.910156 321.757812 C 160.292969 320.578125 161.191406 319.582031 162.445312 319.113281 C 167.050781 317.390625 173 314.128906 176.6875 310.929688 C 176.710938 310.910156 176.730469 310.894531 176.753906 310.871094 C 177.722656 309.988281 179.089844 309.570312 180.472656 309.859375 L 194.019531 312.742188 C 195.539062 313.066406 197.027344 312.402344 197.800781 311.054688 L 205.542969 297.628906 C 206.320312 296.285156 206.148438 294.664062 205.109375 293.511719 L 195.851562 283.222656 L 195.855469 283.21875 C 195.03125 282.304688 194.613281 281.035156 194.828125 279.722656 C 195.644531 274.738281 195.785156 268.152344 194.867188 263.199219 C 194.863281 263.171875 194.859375 263.152344 194.855469 263.128906 C 194.59375 261.863281 194.917969 260.492188 195.851562 259.457031 L 205.109375 249.167969 C 206.148438 248.015625 206.316406 246.394531 205.542969 245.050781 Z M 144.527344 247.253906 C 157.832031 247.253906 168.613281 258.042969 168.613281 271.347656 C 168.613281 284.65625 157.832031 295.445312 144.527344 295.445312 C 131.226562 295.445312 120.445312 284.65625 120.445312 271.347656 C 120.445312 258.042969 131.226562 247.253906 144.527344 247.253906 Z M 65.066406 56.480469 C 64.355469 56.269531 63.601562 56.15625 62.824219 56.15625 L 7.964844 56.15625 C 3.59375 56.15625 0.0195312 59.730469 0.0195312 64.105469 L 0.0195312 118.988281 C 0.0195312 123.363281 3.59375 126.9375 7.964844 126.9375 L 62.824219 126.9375 C 67.195312 126.9375 70.769531 123.363281 70.769531 118.988281 L 70.769531 84.832031 C 70.769531 84.535156 70.59375 84.277344 70.3125 84.171875 C 70.03125 84.070312 69.730469 84.144531 69.535156 84.371094 C 63.765625 91.027344 43.621094 114.304688 42.789062 114.988281 C 40.53125 116.835938 37.207031 116.503906 35.359375 114.246094 C 28.757812 106.183594 22.222656 98.078125 15.621094 90.019531 C 13.773438 87.761719 14.109375 84.4375 16.363281 82.589844 C 18.621094 80.742188 21.945312 81.074219 23.792969 83.332031 L 35.5625 97.703125 C 37.621094 100.222656 41.503906 100.257812 43.628906 97.828125 L 91.683594 42.605469 C 93.597656 40.40625 93.367188 37.070312 91.167969 35.15625 C 88.964844 33.238281 85.632812 33.472656 83.71875 35.671875 L 65.796875 56.265625 C 65.609375 56.476562 65.335938 56.558594 65.066406 56.480469 Z M 174.203125 10.453125 C 173.492188 10.242188 172.738281 10.128906 171.960938 10.128906 L 117.101562 10.128906 C 112.730469 10.128906 109.15625 13.707031 109.15625 18.078125 L 109.15625 72.964844 C 109.15625 77.335938 112.730469 80.914062 117.101562 80.914062 L 171.960938 80.914062 C 176.332031 80.914062 179.910156 77.335938 179.910156 72.964844 L 179.910156 38.808594 C 179.910156 38.507812 179.730469 38.253906 179.449219 38.148438 C 179.171875 38.042969 178.867188 38.117188 178.671875 38.34375 C 172.902344 45 152.757812 68.28125 151.925781 68.964844 C 149.667969 70.808594 146.34375 70.476562 144.496094 68.21875 C 137.894531 60.15625 131.359375 52.050781 124.757812 43.996094 C 122.910156 41.738281 123.246094 38.410156 125.5 36.5625 C 127.757812 34.71875 131.082031 35.050781 132.929688 37.308594 L 144.699219 51.675781 C 146.757812 54.195312 150.644531 54.234375 152.765625 51.800781 L 199.582031 -1.996094 C 201.496094 -4.195312 201.265625 -7.535156 199.066406 -9.449219 C 196.867188 -11.363281 193.53125 -11.132812 191.617188 -8.933594 L 174.933594 10.238281 C 174.746094 10.453125 174.472656 10.53125 174.203125 10.453125 Z M 174.203125 10.453125 " fill-opacity="1" fill-rule="evenodd"/></g></svg>