<svg xmlns="http://www.w3.org/2000/svg" xmlns:xlink="http://www.w3.org/1999/xlink" width="500" zoomAndPan="magnify" viewBox="0 0 375 374.999991" height="500" preserveAspectRatio="xMidYMid meet" version="1.0"><defs><clipPath id="c46b277ffe"><path d="M 0 0 L 130.5 0 L 130.5 134.160156 L 0 134.160156 Z M 0 0 " clip-rule="nonzero"/></clipPath></defs><rect x="-37.5" width="450" fill="#ffffff" y="-37.499999" height="449.999989" fill-opacity="1"/><rect x="-37.5" width="450" fill="#ffffff" y="-37.499999" height="449.999989" fill-opacity="1"/><g clip-path="url(#c46b277ffe)"><path fill="#000000" d="M 119.316406 16.863281 L 126.339844 8.816406 C 127.140625 7.898438 128.535156 7.804688 129.457031 8.601562 C 130.375 9.402344 130.472656 10.792969 129.671875 11.710938 C 127.542969 14.148438 110.1875 34.125 109.773438 34.460938 C 108.832031 35.230469 107.441406 35.09375 106.667969 34.152344 L 101.746094 28.15625 C 100.972656 27.214844 99.582031 27.074219 98.636719 27.847656 C 97.695312 28.617188 97.554688 30.003906 98.328125 30.945312 C 101.085938 34.308594 103.820312 37.691406 106.585938 41.054688 C 107.445312 42.105469 109.070312 42.121094 109.957031 41.105469 L 120.878906 28.585938 C 120.960938 28.492188 121.089844 28.460938 121.207031 28.503906 C 121.324219 28.550781 121.398438 28.65625 121.398438 28.78125 L 121.398438 43.03125 C 121.398438 44.855469 119.902344 46.347656 118.074219 46.347656 L 95.125 46.347656 C 93.296875 46.347656 91.800781 44.855469 91.800781 43.03125 L 91.800781 20.132812 C 91.800781 18.308594 93.296875 16.816406 95.125 16.816406 L 118.074219 16.816406 C 118.398438 16.816406 118.710938 16.863281 119.011719 16.953125 C 119.121094 16.984375 119.238281 16.953125 119.316406 16.863281 Z M 51.507812 45.367188 C 51.507812 50.296875 55.511719 54.292969 60.453125 54.292969 C 65.390625 54.292969 69.394531 50.296875 69.394531 45.367188 C 69.394531 40.4375 65.390625 36.445312 60.453125 36.445312 C 55.511719 36.445312 51.507812 40.4375 51.507812 45.367188 Z M 24.691406 80.53125 C 22.953125 78.117188 21.195312 75.652344 19.441406 73.171875 C 19.378906 73.085938 19.285156 73.042969 19.179688 73.050781 L 4.121094 74.085938 C 1.707031 74.253906 0.695312 78.019531 2.398438 80.125 C 2.832031 80.664062 3.402344 80.996094 4.003906 80.996094 L 24.449219 80.996094 C 24.5625 80.996094 24.660156 80.9375 24.714844 80.835938 C 24.765625 80.738281 24.757812 80.625 24.691406 80.53125 Z M 101.414062 73.058594 L 96.1875 80.535156 C 96.125 80.628906 96.117188 80.738281 96.167969 80.839844 C 96.222656 80.941406 96.316406 80.996094 96.429688 80.996094 L 118.542969 80.996094 C 120.652344 80.996094 121.917969 77.214844 120.179688 75.066406 C 119.71875 74.496094 119.097656 74.132812 118.425781 74.085938 L 101.679688 72.933594 C 101.570312 72.925781 101.476562 72.96875 101.414062 73.058594 Z M 77.050781 86.355469 C 77.050781 86.496094 76.957031 86.613281 76.820312 86.640625 L 75.691406 86.878906 C 75.605469 86.898438 75.523438 86.878906 75.453125 86.828125 C 73.800781 85.574219 72.023438 84.546875 70.105469 83.742188 C 70.023438 83.707031 69.96875 83.644531 69.941406 83.5625 L 67.871094 77.203125 L 67.867188 77.203125 C 67.539062 76.199219 66.621094 75.535156 65.574219 75.535156 L 55.332031 75.535156 C 54.285156 75.535156 53.359375 76.210938 53.035156 77.203125 L 50.964844 83.5625 C 50.9375 83.644531 50.878906 83.707031 50.796875 83.742188 C 48.882812 84.546875 47.105469 85.574219 45.453125 86.828125 C 45.382812 86.878906 45.300781 86.898438 45.210938 86.878906 L 44.085938 86.640625 C 43.949219 86.613281 43.851562 86.496094 43.851562 86.355469 L 43.851562 78.410156 L 43.847656 78.410156 C 43.847656 77.191406 42.554688 76.308594 41.402344 76.792969 L 31.933594 80.789062 C 31.492188 80.976562 31.027344 81.046875 30.578125 81.007812 L 30.578125 80.996094 C 29.808594 80.996094 28.9375 80.441406 28.464844 79.757812 L 12.84375 57.414062 C 11.890625 56.015625 12.246094 53.9375 13.691406 52.972656 L 13.691406 52.96875 C 15.050781 52.050781 16.933594 52.453125 17.78125 53.664062 C 17.78125 53.667969 17.785156 53.671875 17.785156 53.671875 L 18.019531 53.980469 C 18.023438 53.988281 18.03125 53.992188 18.035156 54 L 32.574219 70.054688 C 32.578125 70.058594 32.582031 70.0625 32.585938 70.066406 C 33.183594 70.808594 34.265625 70.945312 35.03125 70.363281 L 48.761719 59.855469 C 48.769531 59.847656 48.777344 59.84375 48.785156 59.839844 C 50.171875 58.992188 51.90625 58.363281 53.804688 57.96875 C 55.878906 57.53125 58.136719 57.371094 60.351562 57.492188 C 60.417969 57.496094 60.484375 57.496094 60.550781 57.492188 C 62.765625 57.371094 65.027344 57.53125 67.101562 57.96875 C 69 58.363281 70.734375 58.992188 72.121094 59.839844 C 72.128906 59.84375 72.136719 59.847656 72.144531 59.855469 L 85.875 70.363281 L 85.878906 70.363281 C 86.597656 70.910156 87.632812 70.828125 88.25 70.144531 L 102.851562 54.019531 C 102.859375 54.015625 102.859375 54.011719 102.867188 54.003906 L 103.066406 53.75 L 103.0625 53.75 C 103.558594 53.070312 104.226562 52.652344 105 52.511719 C 107.792969 51.996094 109.542969 55.285156 108.0625 57.410156 C 108.0625 57.414062 108.058594 57.414062 108.058594 57.414062 C 102.757812 64.6875 97.609375 72.339844 92.453125 79.738281 C 91.667969 80.882812 90.257812 81.332031 88.972656 80.789062 L 79.65625 76.859375 C 79.652344 76.855469 79.652344 76.855469 79.648438 76.851562 C 78.289062 76.210938 77.050781 77.207031 77.050781 78.410156 Z M 85.972656 95.625 L 84.355469 92.828125 L 84.355469 92.824219 L 82.734375 90.023438 C 82.410156 89.464844 81.789062 89.1875 81.152344 89.320312 L 75.484375 90.523438 L 75.484375 90.519531 C 74.976562 90.625 74.429688 90.511719 74 90.160156 C 72.421875 88.863281 70.042969 87.402344 68.101562 86.722656 C 67.875 86.640625 67.695312 86.523438 67.527344 86.351562 C 66.480469 85.253906 65.613281 82.050781 65.078125 80.136719 C 64.898438 79.492188 64.332031 79.0625 63.660156 79.0625 L 57.253906 79.0625 C 56.578125 79.0625 56.007812 79.496094 55.832031 80.148438 C 55.257812 82.289062 54.226562 86.191406 52.960938 86.664062 C 51.035156 87.382812 48.546875 88.742188 47.003906 90.078125 C 46.996094 90.085938 46.988281 90.09375 46.976562 90.101562 C 46.570312 90.46875 46 90.644531 45.421875 90.523438 L 39.753906 89.320312 C 39.117188 89.1875 38.496094 89.460938 38.171875 90.023438 L 34.929688 95.621094 C 34.605469 96.183594 34.675781 96.859375 35.113281 97.339844 L 38.988281 101.636719 L 38.984375 101.636719 C 39.328125 102.019531 39.503906 102.546875 39.414062 103.097656 C 39.074219 105.171875 39.015625 107.925781 39.398438 109.992188 C 39.398438 110 39.402344 110.007812 39.402344 110.019531 C 39.511719 110.546875 39.375 111.121094 38.988281 111.550781 L 35.113281 115.84375 C 34.679688 116.324219 34.609375 117 34.933594 117.5625 L 36.550781 120.359375 L 36.550781 120.363281 L 38.171875 123.164062 C 38.496094 123.726562 39.117188 124 39.753906 123.867188 L 45.421875 122.664062 L 45.421875 122.667969 C 45.929688 122.5625 46.476562 122.675781 46.90625 123.03125 C 48.496094 124.335938 50.898438 125.808594 52.847656 126.480469 C 52.859375 126.484375 52.867188 126.488281 52.878906 126.492188 C 53.402344 126.660156 53.839844 127.066406 54.023438 127.625 L 55.8125 133.117188 C 56.011719 133.734375 56.5625 134.132812 57.210938 134.132812 L 63.695312 134.132812 C 64.34375 134.132812 64.894531 133.734375 65.09375 133.117188 L 66.882812 127.628906 L 66.886719 127.628906 C 67.046875 127.136719 67.421875 126.71875 67.945312 126.527344 C 69.875 125.808594 72.359375 124.445312 73.902344 123.113281 C 73.914062 123.101562 73.921875 123.09375 73.929688 123.085938 C 74.335938 122.71875 74.910156 122.542969 75.488281 122.664062 L 81.152344 123.867188 C 81.789062 124 82.410156 123.726562 82.734375 123.164062 L 85.972656 117.5625 C 86.296875 117 86.226562 116.324219 85.792969 115.84375 L 81.917969 111.550781 L 81.921875 111.550781 C 81.574219 111.167969 81.402344 110.636719 81.492188 110.089844 C 81.832031 108.011719 81.890625 105.265625 81.507812 103.195312 C 81.507812 103.1875 81.503906 103.179688 81.503906 103.167969 C 81.394531 102.640625 81.53125 102.066406 81.917969 101.636719 L 85.792969 97.34375 C 86.226562 96.863281 86.296875 96.1875 85.972656 95.625 Z M 60.453125 96.542969 C 66.015625 96.542969 70.527344 101.046875 70.527344 106.597656 C 70.527344 112.148438 66.015625 116.648438 60.453125 116.648438 C 54.886719 116.648438 50.378906 112.148438 50.378906 106.597656 C 50.378906 101.046875 54.886719 96.542969 60.453125 96.542969 Z M 27.210938 16.953125 C 26.914062 16.863281 26.601562 16.816406 26.277344 16.816406 L 3.328125 16.816406 C 1.5 16.816406 0.00390625 18.308594 0.00390625 20.132812 L 0.00390625 43.03125 C 0.00390625 44.855469 1.5 46.347656 3.328125 46.347656 L 26.277344 46.347656 C 28.105469 46.347656 29.597656 44.855469 29.597656 43.03125 L 29.597656 28.78125 C 29.597656 28.65625 29.523438 28.550781 29.40625 28.507812 C 29.289062 28.464844 29.164062 28.496094 29.082031 28.589844 C 26.667969 31.367188 18.242188 41.078125 17.894531 41.363281 C 16.949219 42.132812 15.558594 41.996094 14.789062 41.054688 C 12.023438 37.691406 9.289062 34.308594 6.53125 30.945312 C 5.757812 30.003906 5.898438 28.617188 6.839844 27.847656 C 7.785156 27.074219 9.175781 27.214844 9.949219 28.15625 L 14.871094 34.152344 C 15.734375 35.203125 17.359375 35.21875 18.246094 34.203125 L 38.347656 11.164062 C 39.148438 10.246094 39.050781 8.855469 38.128906 8.054688 C 37.210938 7.257812 35.816406 7.355469 35.015625 8.273438 L 27.519531 16.863281 C 27.441406 16.953125 27.324219 16.984375 27.210938 16.953125 Z M 72.863281 -2.25 C 72.566406 -2.335938 72.25 -2.382812 71.925781 -2.382812 L 48.980469 -2.382812 C 47.152344 -2.382812 45.65625 -0.890625 45.65625 0.933594 L 45.65625 23.832031 C 45.65625 25.652344 47.152344 27.148438 48.980469 27.148438 L 71.925781 27.148438 C 73.753906 27.148438 75.25 25.652344 75.25 23.832031 L 75.25 9.582031 C 75.25 9.457031 75.175781 9.347656 75.058594 9.304688 C 74.941406 9.261719 74.816406 9.292969 74.734375 9.386719 C 72.320312 12.164062 63.894531 21.875 63.546875 22.160156 C 62.601562 22.933594 61.210938 22.792969 60.4375 21.851562 C 57.675781 18.488281 54.941406 15.105469 52.183594 11.746094 C 51.410156 10.800781 51.546875 9.414062 52.492188 8.644531 C 53.4375 7.875 54.828125 8.011719 55.597656 8.953125 L 60.523438 14.949219 C 61.382812 16 63.007812 16.015625 63.898438 15 L 83.480469 -7.445312 C 84.28125 -8.359375 84.183594 -9.753906 83.265625 -10.550781 C 82.34375 -11.351562 80.949219 -11.253906 80.148438 -10.335938 L 73.167969 -2.339844 C 73.09375 -2.25 72.976562 -2.214844 72.863281 -2.25 Z M 72.863281 -2.25 " fill-opacity="1" fill-rule="evenodd"/></g></svg>